G04 #@! TF.GenerationSoftware,KiCad,Pcbnew,(5.1.5)-3*
G04 #@! TF.CreationDate,2020-04-06T14:53:39-04:00*
G04 #@! TF.ProjectId,OctoPad,4f63746f-5061-4642-9e6b-696361645f70,rev?*
G04 #@! TF.SameCoordinates,Original*
G04 #@! TF.FileFunction,Copper,L2,Bot*
G04 #@! TF.FilePolarity,Positive*
%FSLAX46Y46*%
G04 Gerber Fmt 4.6, Leading zero omitted, Abs format (unit mm)*
G04 Created by KiCad (PCBNEW (5.1.5)-3) date 2020-04-06 14:53:39*
%MOMM*%
%LPD*%
G04 APERTURE LIST*
%ADD10C,1.998980*%
%ADD11C,0.100000*%
%ADD12C,2.250000*%
%ADD13C,2.250000*%
%ADD14C,1.600000*%
%ADD15C,1.600000*%
%ADD16O,1.600000X1.600000*%
%ADD17R,1.600000X1.600000*%
%ADD18C,0.800000*%
%ADD19C,0.250000*%
%ADD20C,0.254000*%
G04 APERTURE END LIST*
D10*
X97976231Y-102264274D03*
G04 #@! TA.AperFunction,ComponentPad*
D11*
G36*
X93150353Y-101347170D02*
G01*
X93915330Y-99500353D01*
X95762147Y-100265330D01*
X94997170Y-102112147D01*
X93150353Y-101347170D01*
G37*
G04 #@! TD.AperFunction*
D12*
X214281250Y-116800000D03*
D13*
X215741250Y-118110000D02*
X214281250Y-116799998D01*
D12*
X213201250Y-111760000D03*
D13*
X213781250Y-111800000D02*
X213201250Y-111760000D01*
D14*
X94508605Y-96150124D03*
X96855259Y-97122140D03*
X99201913Y-98094156D03*
X101548567Y-99066172D03*
X103895221Y-100038188D03*
X106241875Y-101010204D03*
X108588529Y-101982220D03*
X110935183Y-102954236D03*
X113281837Y-103926252D03*
X115628491Y-104898268D03*
X117975145Y-105870284D03*
X120321799Y-106842300D03*
X126153895Y-92762376D03*
X123807241Y-91790360D03*
X121460587Y-90818344D03*
X119113933Y-89846328D03*
X116767279Y-88874312D03*
X114420625Y-87902296D03*
X112073971Y-86930280D03*
X109727317Y-85958264D03*
X107380663Y-84986248D03*
X105034009Y-84014232D03*
X102687355Y-83042216D03*
G04 #@! TA.AperFunction,ComponentPad*
D11*
G36*
X99295451Y-82503157D02*
G01*
X99907744Y-81024950D01*
X101385951Y-81637243D01*
X100773658Y-83115450D01*
X99295451Y-82503157D01*
G37*
G04 #@! TD.AperFunction*
D12*
X196222556Y-154514340D03*
D13*
X196328622Y-156473026D02*
X196222558Y-154514340D01*
D12*
X199022699Y-150186846D03*
D13*
X199404536Y-150625253D02*
X199022698Y-150186847D01*
D12*
X200551840Y-77621194D03*
D13*
X202510526Y-77515128D02*
X200551840Y-77621192D01*
D12*
X196224346Y-74821051D03*
D13*
X196662753Y-74439214D02*
X196224347Y-74821052D01*
D12*
X162043750Y-59562500D03*
D13*
X163353750Y-58102500D02*
X162043748Y-59562500D01*
D12*
X157003750Y-60642500D03*
D13*
X157043750Y-60062500D02*
X157003750Y-60642500D01*
D12*
X122864944Y-73291910D03*
D13*
X122758878Y-71333224D02*
X122864942Y-73291910D01*
D12*
X120064801Y-77619404D03*
D13*
X119682964Y-77180997D02*
X120064802Y-77619403D01*
D12*
X104806250Y-111800000D03*
D13*
X103346250Y-110490000D02*
X104806250Y-111800002D01*
D12*
X105886250Y-116840000D03*
D13*
X105306250Y-116800000D02*
X105886250Y-116840000D01*
D12*
X119329410Y-151772556D03*
D13*
X117370724Y-151878622D02*
X119329410Y-151772558D01*
D12*
X123656904Y-154572699D03*
D13*
X123218497Y-154954536D02*
X123656903Y-154572698D01*
D12*
X156250000Y-169037500D03*
D13*
X154940000Y-170497500D02*
X156250002Y-169037500D01*
D12*
X161290000Y-167957500D03*
D13*
X161250000Y-168537500D02*
X161290000Y-167957500D01*
D15*
X187325000Y-142081250D02*
X187325000Y-142081250D01*
G04 #@! TA.AperFunction,ComponentPad*
D11*
G36*
X180805475Y-136693096D02*
G01*
X181936846Y-135561725D01*
X183068217Y-136693096D01*
X181936846Y-137824467D01*
X180805475Y-136693096D01*
G37*
G04 #@! TD.AperFunction*
D16*
X199231250Y-114300000D03*
D17*
X191611250Y-114300000D03*
D15*
X187950654Y-85893096D02*
X187950654Y-85893096D01*
G04 #@! TA.AperFunction,ComponentPad*
D11*
G36*
X182562500Y-92412621D02*
G01*
X181431129Y-91281250D01*
X182562500Y-90149879D01*
X183693871Y-91281250D01*
X182562500Y-92412621D01*
G37*
G04 #@! TD.AperFunction*
D16*
X159543750Y-74930000D03*
D17*
X159543750Y-82550000D03*
D15*
X131136846Y-85893096D02*
X131136846Y-85893096D01*
G04 #@! TA.AperFunction,ComponentPad*
D11*
G36*
X137656371Y-91281250D02*
G01*
X136525000Y-92412621D01*
X135393629Y-91281250D01*
X136525000Y-90149879D01*
X137656371Y-91281250D01*
G37*
G04 #@! TD.AperFunction*
D16*
X120173750Y-114300000D03*
D17*
X127793750Y-114300000D03*
D15*
X131136846Y-142706904D02*
X131136846Y-142706904D01*
G04 #@! TA.AperFunction,ComponentPad*
D11*
G36*
X136525000Y-136187379D02*
G01*
X137656371Y-137318750D01*
X136525000Y-138450121D01*
X135393629Y-137318750D01*
X136525000Y-136187379D01*
G37*
G04 #@! TD.AperFunction*
D16*
X159543750Y-153670000D03*
D17*
X159543750Y-146050000D03*
D18*
X159543750Y-116681250D03*
X157956250Y-115887500D03*
X157162500Y-114300000D03*
X157956250Y-112712500D03*
X159543750Y-111918750D03*
X161131250Y-112712500D03*
X161925000Y-114300000D03*
X161131250Y-115887500D03*
D19*
X117975145Y-105870284D02*
X119856250Y-103989179D01*
X119856250Y-103989179D02*
X127785821Y-103989179D01*
X127785821Y-103989179D02*
X141271642Y-117475000D01*
X141271642Y-117475000D02*
X158750000Y-117475000D01*
X158750000Y-117475000D02*
X159543750Y-116681250D01*
X157162500Y-116681250D02*
X157956250Y-115887500D01*
X127793750Y-103187500D02*
X141287500Y-116681250D01*
X115628491Y-104898268D02*
X117339259Y-103187500D01*
X141287500Y-116681250D02*
X157162500Y-116681250D01*
X117339259Y-103187500D02*
X127793750Y-103187500D01*
X127793750Y-102393750D02*
X140493750Y-115093750D01*
X113281837Y-103926252D02*
X114814339Y-102393750D01*
X114814339Y-102393750D02*
X127793750Y-102393750D01*
X140493750Y-115093750D02*
X141287500Y-115887500D01*
X141287500Y-115887500D02*
X155575000Y-115887500D01*
X157162500Y-114300000D02*
X157162500Y-115093750D01*
X157162500Y-115093750D02*
X156368750Y-115887500D01*
X156368750Y-115887500D02*
X155575000Y-115887500D01*
X157956250Y-112712500D02*
X138906250Y-112712500D01*
X138906250Y-112712500D02*
X118268750Y-92075000D01*
X119113933Y-91229817D02*
X119113933Y-89846328D01*
X118268750Y-92075000D02*
X119113933Y-91229817D01*
X159543750Y-111918750D02*
X138906250Y-111918750D01*
X138906250Y-111918750D02*
X120650000Y-93662500D01*
X121460587Y-92851913D02*
X121460587Y-90818344D01*
X120650000Y-93662500D02*
X121460587Y-92851913D01*
X160337500Y-111125000D02*
X161131250Y-111918750D01*
X161131250Y-111918750D02*
X161131250Y-112712500D01*
X138906250Y-111125000D02*
X160337500Y-111125000D01*
X123807241Y-91790360D02*
X123807241Y-96025991D01*
X123807241Y-96025991D02*
X138906250Y-111125000D01*
X126153895Y-97578895D02*
X126153895Y-92762376D01*
X138906250Y-110331250D02*
X126153895Y-97578895D01*
X161925000Y-114300000D02*
X161925000Y-111918750D01*
X161925000Y-111918750D02*
X160337500Y-110331250D01*
X160337500Y-110331250D02*
X138906250Y-110331250D01*
X121121798Y-106042301D02*
X121121798Y-105890702D01*
X120321799Y-106842300D02*
X121121798Y-106042301D01*
X127793750Y-104775000D02*
X141287500Y-118268750D01*
X121121798Y-105890702D02*
X122237500Y-104775000D01*
X122237500Y-104775000D02*
X127793750Y-104775000D01*
X141287500Y-118268750D02*
X159543750Y-118268750D01*
X159543750Y-118268750D02*
X161131250Y-116681250D01*
X161131250Y-116681250D02*
X161131250Y-115887500D01*
X106006025Y-84986248D02*
X105034009Y-84014232D01*
X107380663Y-84986248D02*
X106006025Y-84986248D01*
X96855259Y-92192982D02*
X105034009Y-84014232D01*
X96855259Y-97122140D02*
X96855259Y-92192982D01*
X96855259Y-97122140D02*
X96855259Y-96855259D01*
D20*
G36*
X130007474Y-92141795D02*
G01*
X127517814Y-97868013D01*
X126913895Y-97264094D01*
X126913895Y-93980419D01*
X127068654Y-93877013D01*
X127268532Y-93677135D01*
X127425575Y-93442103D01*
X127533748Y-93180950D01*
X127588895Y-92903711D01*
X127588895Y-92621041D01*
X127533748Y-92343802D01*
X127425575Y-92082649D01*
X127268532Y-91847617D01*
X127068654Y-91647739D01*
X126833622Y-91490696D01*
X126572469Y-91382523D01*
X126295230Y-91327376D01*
X126012560Y-91327376D01*
X125735321Y-91382523D01*
X125474168Y-91490696D01*
X125241651Y-91646059D01*
X125187094Y-91371786D01*
X125078921Y-91110633D01*
X124921878Y-90875601D01*
X124722000Y-90675723D01*
X124486968Y-90518680D01*
X124225815Y-90410507D01*
X123948576Y-90355360D01*
X123665906Y-90355360D01*
X123388667Y-90410507D01*
X123127514Y-90518680D01*
X122894997Y-90674043D01*
X122840440Y-90399770D01*
X122732267Y-90138617D01*
X122575224Y-89903585D01*
X122375346Y-89703707D01*
X122140314Y-89546664D01*
X121879161Y-89438491D01*
X121601922Y-89383344D01*
X121319252Y-89383344D01*
X121042013Y-89438491D01*
X120780860Y-89546664D01*
X120548343Y-89702027D01*
X120493786Y-89427754D01*
X120385613Y-89166601D01*
X120228570Y-88931569D01*
X120028692Y-88731691D01*
X119793660Y-88574648D01*
X119532507Y-88466475D01*
X119255268Y-88411328D01*
X118972598Y-88411328D01*
X118695359Y-88466475D01*
X118434206Y-88574648D01*
X118201689Y-88730011D01*
X118147132Y-88455738D01*
X118038959Y-88194585D01*
X117881916Y-87959553D01*
X117682038Y-87759675D01*
X117447006Y-87602632D01*
X117185853Y-87494459D01*
X116908614Y-87439312D01*
X116625944Y-87439312D01*
X116348705Y-87494459D01*
X116087552Y-87602632D01*
X115855035Y-87757995D01*
X115800478Y-87483722D01*
X115692305Y-87222569D01*
X115535262Y-86987537D01*
X115335384Y-86787659D01*
X115100352Y-86630616D01*
X114839199Y-86522443D01*
X114561960Y-86467296D01*
X114279290Y-86467296D01*
X114002051Y-86522443D01*
X113740898Y-86630616D01*
X113508381Y-86785979D01*
X113453824Y-86511706D01*
X113345651Y-86250553D01*
X113188608Y-86015521D01*
X112988730Y-85815643D01*
X112753698Y-85658600D01*
X112492545Y-85550427D01*
X112215306Y-85495280D01*
X111932636Y-85495280D01*
X111655397Y-85550427D01*
X111394244Y-85658600D01*
X111161727Y-85813963D01*
X111107170Y-85539690D01*
X110998997Y-85278537D01*
X110841954Y-85043505D01*
X110642076Y-84843627D01*
X110407044Y-84686584D01*
X110145891Y-84578411D01*
X109868652Y-84523264D01*
X109585982Y-84523264D01*
X109308743Y-84578411D01*
X109047590Y-84686584D01*
X108813703Y-84842862D01*
X108806963Y-84774432D01*
X108608959Y-84614935D01*
X107604867Y-85030844D01*
X107574412Y-85000389D01*
X107394804Y-85179997D01*
X107742329Y-85527522D01*
X107986641Y-86117343D01*
X108239433Y-86144571D01*
X108292317Y-86096656D01*
X108292317Y-86099599D01*
X108347464Y-86376838D01*
X108455637Y-86637991D01*
X108612680Y-86873023D01*
X108812558Y-87072901D01*
X109047590Y-87229944D01*
X109308743Y-87338117D01*
X109585982Y-87393264D01*
X109868652Y-87393264D01*
X110145891Y-87338117D01*
X110407044Y-87229944D01*
X110639561Y-87074581D01*
X110694118Y-87348854D01*
X110802291Y-87610007D01*
X110959334Y-87845039D01*
X111159212Y-88044917D01*
X111394244Y-88201960D01*
X111655397Y-88310133D01*
X111932636Y-88365280D01*
X112215306Y-88365280D01*
X112492545Y-88310133D01*
X112753698Y-88201960D01*
X112986215Y-88046597D01*
X113040772Y-88320870D01*
X113148945Y-88582023D01*
X113305988Y-88817055D01*
X113505866Y-89016933D01*
X113740898Y-89173976D01*
X114002051Y-89282149D01*
X114279290Y-89337296D01*
X114561960Y-89337296D01*
X114839199Y-89282149D01*
X115100352Y-89173976D01*
X115332869Y-89018613D01*
X115387426Y-89292886D01*
X115495599Y-89554039D01*
X115652642Y-89789071D01*
X115852520Y-89988949D01*
X116087552Y-90145992D01*
X116348705Y-90254165D01*
X116625944Y-90309312D01*
X116908614Y-90309312D01*
X117185853Y-90254165D01*
X117447006Y-90145992D01*
X117679523Y-89990629D01*
X117734080Y-90264902D01*
X117842253Y-90526055D01*
X117999296Y-90761087D01*
X118199174Y-90960965D01*
X118264401Y-91004548D01*
X117757752Y-91511197D01*
X117728749Y-91534999D01*
X117641449Y-91641374D01*
X117633776Y-91650724D01*
X117563204Y-91782754D01*
X117519748Y-91926015D01*
X117505074Y-92075000D01*
X117519748Y-92223985D01*
X117563204Y-92367246D01*
X117633776Y-92499276D01*
X117728749Y-92615001D01*
X117757753Y-92638804D01*
X126144828Y-101025880D01*
X125880537Y-101633750D01*
X114851661Y-101633750D01*
X114814338Y-101630074D01*
X114777015Y-101633750D01*
X114777006Y-101633750D01*
X114665353Y-101644747D01*
X114522092Y-101688204D01*
X114390062Y-101758776D01*
X114306422Y-101827418D01*
X114274338Y-101853749D01*
X114250540Y-101882747D01*
X113605723Y-102527564D01*
X113423172Y-102491252D01*
X113140502Y-102491252D01*
X112863263Y-102546399D01*
X112602110Y-102654572D01*
X112369593Y-102809935D01*
X112315036Y-102535662D01*
X112206863Y-102274509D01*
X112049820Y-102039477D01*
X111849942Y-101839599D01*
X111614910Y-101682556D01*
X111353757Y-101574383D01*
X111076518Y-101519236D01*
X110793848Y-101519236D01*
X110516609Y-101574383D01*
X110255456Y-101682556D01*
X110022939Y-101837919D01*
X109968382Y-101563646D01*
X109860209Y-101302493D01*
X109703166Y-101067461D01*
X109503288Y-100867583D01*
X109268256Y-100710540D01*
X109007103Y-100602367D01*
X108729864Y-100547220D01*
X108447194Y-100547220D01*
X108169955Y-100602367D01*
X107908802Y-100710540D01*
X107676285Y-100865903D01*
X107621728Y-100591630D01*
X107513555Y-100330477D01*
X107356512Y-100095445D01*
X107156634Y-99895567D01*
X106921602Y-99738524D01*
X106660449Y-99630351D01*
X106383210Y-99575204D01*
X106100540Y-99575204D01*
X105823301Y-99630351D01*
X105562148Y-99738524D01*
X105329631Y-99893887D01*
X105275074Y-99619614D01*
X105166901Y-99358461D01*
X105009858Y-99123429D01*
X104809980Y-98923551D01*
X104574948Y-98766508D01*
X104313795Y-98658335D01*
X104036556Y-98603188D01*
X103753886Y-98603188D01*
X103476647Y-98658335D01*
X103215494Y-98766508D01*
X102982977Y-98921871D01*
X102928420Y-98647598D01*
X102820247Y-98386445D01*
X102663204Y-98151413D01*
X102463326Y-97951535D01*
X102228294Y-97794492D01*
X101967141Y-97686319D01*
X101689902Y-97631172D01*
X101407232Y-97631172D01*
X101129993Y-97686319D01*
X100868840Y-97794492D01*
X100636323Y-97949855D01*
X100581766Y-97675582D01*
X100473593Y-97414429D01*
X100316550Y-97179397D01*
X100116672Y-96979519D01*
X99881640Y-96822476D01*
X99620487Y-96714303D01*
X99343248Y-96659156D01*
X99060578Y-96659156D01*
X98783339Y-96714303D01*
X98522186Y-96822476D01*
X98288299Y-96978754D01*
X98281559Y-96910324D01*
X98083555Y-96750827D01*
X97079463Y-97166736D01*
X97049008Y-97136281D01*
X96869400Y-97315889D01*
X97216925Y-97663414D01*
X97461237Y-98253235D01*
X97714029Y-98280463D01*
X97766913Y-98232548D01*
X97766913Y-98235491D01*
X97822060Y-98512730D01*
X97930233Y-98773883D01*
X98087276Y-99008915D01*
X98287154Y-99208793D01*
X98522186Y-99365836D01*
X98783339Y-99474009D01*
X99060578Y-99529156D01*
X99343248Y-99529156D01*
X99620487Y-99474009D01*
X99881640Y-99365836D01*
X100114157Y-99210473D01*
X100168714Y-99484746D01*
X100276887Y-99745899D01*
X100433930Y-99980931D01*
X100633808Y-100180809D01*
X100868840Y-100337852D01*
X101129993Y-100446025D01*
X101407232Y-100501172D01*
X101689902Y-100501172D01*
X101967141Y-100446025D01*
X102228294Y-100337852D01*
X102460811Y-100182489D01*
X102515368Y-100456762D01*
X102623541Y-100717915D01*
X102780584Y-100952947D01*
X102980462Y-101152825D01*
X103215494Y-101309868D01*
X103476647Y-101418041D01*
X103753886Y-101473188D01*
X104036556Y-101473188D01*
X104313795Y-101418041D01*
X104574948Y-101309868D01*
X104807465Y-101154505D01*
X104862022Y-101428778D01*
X104970195Y-101689931D01*
X105127238Y-101924963D01*
X105327116Y-102124841D01*
X105562148Y-102281884D01*
X105823301Y-102390057D01*
X106100540Y-102445204D01*
X106383210Y-102445204D01*
X106660449Y-102390057D01*
X106921602Y-102281884D01*
X107154119Y-102126521D01*
X107208676Y-102400794D01*
X107316849Y-102661947D01*
X107473892Y-102896979D01*
X107673770Y-103096857D01*
X107908802Y-103253900D01*
X108169955Y-103362073D01*
X108447194Y-103417220D01*
X108729864Y-103417220D01*
X109007103Y-103362073D01*
X109268256Y-103253900D01*
X109500773Y-103098537D01*
X109555330Y-103372810D01*
X109663503Y-103633963D01*
X109820546Y-103868995D01*
X110020424Y-104068873D01*
X110255456Y-104225916D01*
X110516609Y-104334089D01*
X110793848Y-104389236D01*
X111076518Y-104389236D01*
X111353757Y-104334089D01*
X111614910Y-104225916D01*
X111847427Y-104070553D01*
X111901984Y-104344826D01*
X112010157Y-104605979D01*
X112167200Y-104841011D01*
X112367078Y-105040889D01*
X112602110Y-105197932D01*
X112863263Y-105306105D01*
X113140502Y-105361252D01*
X113423172Y-105361252D01*
X113700411Y-105306105D01*
X113961564Y-105197932D01*
X114194081Y-105042569D01*
X114248638Y-105316842D01*
X114356811Y-105577995D01*
X114513854Y-105813027D01*
X114713732Y-106012905D01*
X114948764Y-106169948D01*
X115209917Y-106278121D01*
X115487156Y-106333268D01*
X115769826Y-106333268D01*
X116047065Y-106278121D01*
X116308218Y-106169948D01*
X116540735Y-106014585D01*
X116595292Y-106288858D01*
X116703465Y-106550011D01*
X116860508Y-106785043D01*
X117060386Y-106984921D01*
X117295418Y-107141964D01*
X117556571Y-107250137D01*
X117833810Y-107305284D01*
X118116480Y-107305284D01*
X118393719Y-107250137D01*
X118654872Y-107141964D01*
X118887389Y-106986601D01*
X118941946Y-107260874D01*
X119050119Y-107522027D01*
X119207162Y-107757059D01*
X119407040Y-107956937D01*
X119642072Y-108113980D01*
X119903225Y-108222153D01*
X120180464Y-108277300D01*
X120463134Y-108277300D01*
X120740373Y-108222153D01*
X121001526Y-108113980D01*
X121236558Y-107956937D01*
X121436436Y-107757059D01*
X121593479Y-107522027D01*
X121701652Y-107260874D01*
X121756799Y-106983635D01*
X121756799Y-106700965D01*
X121719266Y-106512278D01*
X121756771Y-106466578D01*
X121756772Y-106466577D01*
X121827344Y-106334548D01*
X121859823Y-106227479D01*
X122552302Y-105535000D01*
X124184341Y-105535000D01*
X122170192Y-110167543D01*
X96143574Y-99756896D01*
X96116641Y-99734792D01*
X96006326Y-99675828D01*
X95345741Y-99405530D01*
X95306154Y-99421928D01*
X94837473Y-99234455D01*
X94817744Y-99186826D01*
X94159509Y-98910852D01*
X94039811Y-98874541D01*
X93915330Y-98862281D01*
X93908676Y-98862936D01*
X92989519Y-98495274D01*
X93087166Y-98049907D01*
X93105801Y-97980910D01*
X95696936Y-97980910D01*
X95886730Y-98190386D01*
X96113745Y-98358811D01*
X96369256Y-98479711D01*
X96643444Y-98548440D01*
X96925772Y-98562357D01*
X97067075Y-98548440D01*
X97226572Y-98350436D01*
X96786527Y-97288073D01*
X95724164Y-97728118D01*
X95696936Y-97980910D01*
X93105801Y-97980910D01*
X93364945Y-97021447D01*
X93393968Y-97064883D01*
X93593846Y-97264761D01*
X93828878Y-97421804D01*
X94090031Y-97529977D01*
X94367270Y-97585124D01*
X94649940Y-97585124D01*
X94927179Y-97529977D01*
X95188332Y-97421804D01*
X95422219Y-97265526D01*
X95428959Y-97333956D01*
X95626963Y-97493453D01*
X96631055Y-97077544D01*
X96661510Y-97107999D01*
X96841118Y-96928391D01*
X96493593Y-96580866D01*
X96249281Y-95991045D01*
X95996489Y-95963817D01*
X95943605Y-96011732D01*
X95943605Y-96008789D01*
X95920741Y-95893844D01*
X96483946Y-95893844D01*
X96923991Y-96956207D01*
X97986354Y-96516162D01*
X98013582Y-96263370D01*
X97823788Y-96053894D01*
X97596773Y-95885469D01*
X97341262Y-95764569D01*
X97067074Y-95695840D01*
X96784746Y-95681923D01*
X96643443Y-95695840D01*
X96483946Y-95893844D01*
X95920741Y-95893844D01*
X95888458Y-95731550D01*
X95780285Y-95470397D01*
X95623242Y-95235365D01*
X95423364Y-95035487D01*
X95188332Y-94878444D01*
X94927179Y-94770271D01*
X94649940Y-94715124D01*
X94367270Y-94715124D01*
X94090031Y-94770271D01*
X93961685Y-94823434D01*
X94949119Y-91759441D01*
X96104108Y-88688382D01*
X97332113Y-85845018D01*
X106222340Y-85845018D01*
X106412134Y-86054494D01*
X106639149Y-86222919D01*
X106894660Y-86343819D01*
X107168848Y-86412548D01*
X107451176Y-86426465D01*
X107592479Y-86412548D01*
X107751976Y-86214544D01*
X107311931Y-85152181D01*
X106249568Y-85592226D01*
X106222340Y-85845018D01*
X97332113Y-85845018D01*
X97405010Y-85676232D01*
X97798627Y-84873002D01*
X103875686Y-84873002D01*
X104065480Y-85082478D01*
X104292495Y-85250903D01*
X104548006Y-85371803D01*
X104822194Y-85440532D01*
X105104522Y-85454449D01*
X105245825Y-85440532D01*
X105405322Y-85242528D01*
X104976799Y-84207981D01*
X105048150Y-84207981D01*
X105395675Y-84555506D01*
X105639987Y-85145327D01*
X105892779Y-85172555D01*
X105947011Y-85123418D01*
X105954363Y-85198064D01*
X106152367Y-85357561D01*
X107156459Y-84941652D01*
X107186914Y-84972107D01*
X107366522Y-84792499D01*
X107018997Y-84444974D01*
X106774685Y-83855153D01*
X106521893Y-83827925D01*
X106467661Y-83877062D01*
X106460309Y-83802416D01*
X106405111Y-83757952D01*
X107009350Y-83757952D01*
X107449395Y-84820315D01*
X108511758Y-84380270D01*
X108538986Y-84127478D01*
X108349192Y-83918002D01*
X108122177Y-83749577D01*
X107866666Y-83628677D01*
X107592478Y-83559948D01*
X107310150Y-83546031D01*
X107168847Y-83559948D01*
X107009350Y-83757952D01*
X106405111Y-83757952D01*
X106262305Y-83642919D01*
X105258213Y-84058828D01*
X105227758Y-84028373D01*
X105048150Y-84207981D01*
X104976799Y-84207981D01*
X104965277Y-84180165D01*
X103902914Y-84620210D01*
X103875686Y-84873002D01*
X97798627Y-84873002D01*
X98778265Y-82873919D01*
X98844266Y-82954342D01*
X98940957Y-83033695D01*
X99051272Y-83092659D01*
X100529479Y-83704952D01*
X100649176Y-83741262D01*
X100773658Y-83753522D01*
X100898140Y-83741262D01*
X101017838Y-83704952D01*
X101128152Y-83645987D01*
X101224843Y-83566635D01*
X101304196Y-83469944D01*
X101308195Y-83462463D01*
X101415675Y-83721943D01*
X101572718Y-83956975D01*
X101772596Y-84156853D01*
X102007628Y-84313896D01*
X102268781Y-84422069D01*
X102546020Y-84477216D01*
X102828690Y-84477216D01*
X103105929Y-84422069D01*
X103367082Y-84313896D01*
X103600969Y-84157618D01*
X103607709Y-84226048D01*
X103805713Y-84385545D01*
X104809805Y-83969636D01*
X104840260Y-84000091D01*
X105019868Y-83820483D01*
X104672343Y-83472958D01*
X104428031Y-82883137D01*
X104175239Y-82855909D01*
X104122355Y-82903824D01*
X104122355Y-82900881D01*
X104099491Y-82785936D01*
X104662696Y-82785936D01*
X105102741Y-83848299D01*
X106165104Y-83408254D01*
X106192332Y-83155462D01*
X106002538Y-82945986D01*
X105775523Y-82777561D01*
X105520012Y-82656661D01*
X105245824Y-82587932D01*
X104963496Y-82574015D01*
X104822193Y-82587932D01*
X104662696Y-82785936D01*
X104099491Y-82785936D01*
X104067208Y-82623642D01*
X103959035Y-82362489D01*
X103801992Y-82127457D01*
X103602114Y-81927579D01*
X103367082Y-81770536D01*
X103105929Y-81662363D01*
X102828690Y-81607216D01*
X102546020Y-81607216D01*
X102268781Y-81662363D01*
X102009300Y-81769843D01*
X102011763Y-81761725D01*
X102024023Y-81637243D01*
X102011763Y-81512761D01*
X101975453Y-81393063D01*
X101916488Y-81282749D01*
X101837136Y-81186058D01*
X101740445Y-81106705D01*
X101630130Y-81047741D01*
X100151923Y-80435448D01*
X100118656Y-80425356D01*
X100432256Y-79856213D01*
X100570718Y-79631174D01*
X130007474Y-92141795D01*
G37*
X130007474Y-92141795D02*
X127517814Y-97868013D01*
X126913895Y-97264094D01*
X126913895Y-93980419D01*
X127068654Y-93877013D01*
X127268532Y-93677135D01*
X127425575Y-93442103D01*
X127533748Y-93180950D01*
X127588895Y-92903711D01*
X127588895Y-92621041D01*
X127533748Y-92343802D01*
X127425575Y-92082649D01*
X127268532Y-91847617D01*
X127068654Y-91647739D01*
X126833622Y-91490696D01*
X126572469Y-91382523D01*
X126295230Y-91327376D01*
X126012560Y-91327376D01*
X125735321Y-91382523D01*
X125474168Y-91490696D01*
X125241651Y-91646059D01*
X125187094Y-91371786D01*
X125078921Y-91110633D01*
X124921878Y-90875601D01*
X124722000Y-90675723D01*
X124486968Y-90518680D01*
X124225815Y-90410507D01*
X123948576Y-90355360D01*
X123665906Y-90355360D01*
X123388667Y-90410507D01*
X123127514Y-90518680D01*
X122894997Y-90674043D01*
X122840440Y-90399770D01*
X122732267Y-90138617D01*
X122575224Y-89903585D01*
X122375346Y-89703707D01*
X122140314Y-89546664D01*
X121879161Y-89438491D01*
X121601922Y-89383344D01*
X121319252Y-89383344D01*
X121042013Y-89438491D01*
X120780860Y-89546664D01*
X120548343Y-89702027D01*
X120493786Y-89427754D01*
X120385613Y-89166601D01*
X120228570Y-88931569D01*
X120028692Y-88731691D01*
X119793660Y-88574648D01*
X119532507Y-88466475D01*
X119255268Y-88411328D01*
X118972598Y-88411328D01*
X118695359Y-88466475D01*
X118434206Y-88574648D01*
X118201689Y-88730011D01*
X118147132Y-88455738D01*
X118038959Y-88194585D01*
X117881916Y-87959553D01*
X117682038Y-87759675D01*
X117447006Y-87602632D01*
X117185853Y-87494459D01*
X116908614Y-87439312D01*
X116625944Y-87439312D01*
X116348705Y-87494459D01*
X116087552Y-87602632D01*
X115855035Y-87757995D01*
X115800478Y-87483722D01*
X115692305Y-87222569D01*
X115535262Y-86987537D01*
X115335384Y-86787659D01*
X115100352Y-86630616D01*
X114839199Y-86522443D01*
X114561960Y-86467296D01*
X114279290Y-86467296D01*
X114002051Y-86522443D01*
X113740898Y-86630616D01*
X113508381Y-86785979D01*
X113453824Y-86511706D01*
X113345651Y-86250553D01*
X113188608Y-86015521D01*
X112988730Y-85815643D01*
X112753698Y-85658600D01*
X112492545Y-85550427D01*
X112215306Y-85495280D01*
X111932636Y-85495280D01*
X111655397Y-85550427D01*
X111394244Y-85658600D01*
X111161727Y-85813963D01*
X111107170Y-85539690D01*
X110998997Y-85278537D01*
X110841954Y-85043505D01*
X110642076Y-84843627D01*
X110407044Y-84686584D01*
X110145891Y-84578411D01*
X109868652Y-84523264D01*
X109585982Y-84523264D01*
X109308743Y-84578411D01*
X109047590Y-84686584D01*
X108813703Y-84842862D01*
X108806963Y-84774432D01*
X108608959Y-84614935D01*
X107604867Y-85030844D01*
X107574412Y-85000389D01*
X107394804Y-85179997D01*
X107742329Y-85527522D01*
X107986641Y-86117343D01*
X108239433Y-86144571D01*
X108292317Y-86096656D01*
X108292317Y-86099599D01*
X108347464Y-86376838D01*
X108455637Y-86637991D01*
X108612680Y-86873023D01*
X108812558Y-87072901D01*
X109047590Y-87229944D01*
X109308743Y-87338117D01*
X109585982Y-87393264D01*
X109868652Y-87393264D01*
X110145891Y-87338117D01*
X110407044Y-87229944D01*
X110639561Y-87074581D01*
X110694118Y-87348854D01*
X110802291Y-87610007D01*
X110959334Y-87845039D01*
X111159212Y-88044917D01*
X111394244Y-88201960D01*
X111655397Y-88310133D01*
X111932636Y-88365280D01*
X112215306Y-88365280D01*
X112492545Y-88310133D01*
X112753698Y-88201960D01*
X112986215Y-88046597D01*
X113040772Y-88320870D01*
X113148945Y-88582023D01*
X113305988Y-88817055D01*
X113505866Y-89016933D01*
X113740898Y-89173976D01*
X114002051Y-89282149D01*
X114279290Y-89337296D01*
X114561960Y-89337296D01*
X114839199Y-89282149D01*
X115100352Y-89173976D01*
X115332869Y-89018613D01*
X115387426Y-89292886D01*
X115495599Y-89554039D01*
X115652642Y-89789071D01*
X115852520Y-89988949D01*
X116087552Y-90145992D01*
X116348705Y-90254165D01*
X116625944Y-90309312D01*
X116908614Y-90309312D01*
X117185853Y-90254165D01*
X117447006Y-90145992D01*
X117679523Y-89990629D01*
X117734080Y-90264902D01*
X117842253Y-90526055D01*
X117999296Y-90761087D01*
X118199174Y-90960965D01*
X118264401Y-91004548D01*
X117757752Y-91511197D01*
X117728749Y-91534999D01*
X117641449Y-91641374D01*
X117633776Y-91650724D01*
X117563204Y-91782754D01*
X117519748Y-91926015D01*
X117505074Y-92075000D01*
X117519748Y-92223985D01*
X117563204Y-92367246D01*
X117633776Y-92499276D01*
X117728749Y-92615001D01*
X117757753Y-92638804D01*
X126144828Y-101025880D01*
X125880537Y-101633750D01*
X114851661Y-101633750D01*
X114814338Y-101630074D01*
X114777015Y-101633750D01*
X114777006Y-101633750D01*
X114665353Y-101644747D01*
X114522092Y-101688204D01*
X114390062Y-101758776D01*
X114306422Y-101827418D01*
X114274338Y-101853749D01*
X114250540Y-101882747D01*
X113605723Y-102527564D01*
X113423172Y-102491252D01*
X113140502Y-102491252D01*
X112863263Y-102546399D01*
X112602110Y-102654572D01*
X112369593Y-102809935D01*
X112315036Y-102535662D01*
X112206863Y-102274509D01*
X112049820Y-102039477D01*
X111849942Y-101839599D01*
X111614910Y-101682556D01*
X111353757Y-101574383D01*
X111076518Y-101519236D01*
X110793848Y-101519236D01*
X110516609Y-101574383D01*
X110255456Y-101682556D01*
X110022939Y-101837919D01*
X109968382Y-101563646D01*
X109860209Y-101302493D01*
X109703166Y-101067461D01*
X109503288Y-100867583D01*
X109268256Y-100710540D01*
X109007103Y-100602367D01*
X108729864Y-100547220D01*
X108447194Y-100547220D01*
X108169955Y-100602367D01*
X107908802Y-100710540D01*
X107676285Y-100865903D01*
X107621728Y-100591630D01*
X107513555Y-100330477D01*
X107356512Y-100095445D01*
X107156634Y-99895567D01*
X106921602Y-99738524D01*
X106660449Y-99630351D01*
X106383210Y-99575204D01*
X106100540Y-99575204D01*
X105823301Y-99630351D01*
X105562148Y-99738524D01*
X105329631Y-99893887D01*
X105275074Y-99619614D01*
X105166901Y-99358461D01*
X105009858Y-99123429D01*
X104809980Y-98923551D01*
X104574948Y-98766508D01*
X104313795Y-98658335D01*
X104036556Y-98603188D01*
X103753886Y-98603188D01*
X103476647Y-98658335D01*
X103215494Y-98766508D01*
X102982977Y-98921871D01*
X102928420Y-98647598D01*
X102820247Y-98386445D01*
X102663204Y-98151413D01*
X102463326Y-97951535D01*
X102228294Y-97794492D01*
X101967141Y-97686319D01*
X101689902Y-97631172D01*
X101407232Y-97631172D01*
X101129993Y-97686319D01*
X100868840Y-97794492D01*
X100636323Y-97949855D01*
X100581766Y-97675582D01*
X100473593Y-97414429D01*
X100316550Y-97179397D01*
X100116672Y-96979519D01*
X99881640Y-96822476D01*
X99620487Y-96714303D01*
X99343248Y-96659156D01*
X99060578Y-96659156D01*
X98783339Y-96714303D01*
X98522186Y-96822476D01*
X98288299Y-96978754D01*
X98281559Y-96910324D01*
X98083555Y-96750827D01*
X97079463Y-97166736D01*
X97049008Y-97136281D01*
X96869400Y-97315889D01*
X97216925Y-97663414D01*
X97461237Y-98253235D01*
X97714029Y-98280463D01*
X97766913Y-98232548D01*
X97766913Y-98235491D01*
X97822060Y-98512730D01*
X97930233Y-98773883D01*
X98087276Y-99008915D01*
X98287154Y-99208793D01*
X98522186Y-99365836D01*
X98783339Y-99474009D01*
X99060578Y-99529156D01*
X99343248Y-99529156D01*
X99620487Y-99474009D01*
X99881640Y-99365836D01*
X100114157Y-99210473D01*
X100168714Y-99484746D01*
X100276887Y-99745899D01*
X100433930Y-99980931D01*
X100633808Y-100180809D01*
X100868840Y-100337852D01*
X101129993Y-100446025D01*
X101407232Y-100501172D01*
X101689902Y-100501172D01*
X101967141Y-100446025D01*
X102228294Y-100337852D01*
X102460811Y-100182489D01*
X102515368Y-100456762D01*
X102623541Y-100717915D01*
X102780584Y-100952947D01*
X102980462Y-101152825D01*
X103215494Y-101309868D01*
X103476647Y-101418041D01*
X103753886Y-101473188D01*
X104036556Y-101473188D01*
X104313795Y-101418041D01*
X104574948Y-101309868D01*
X104807465Y-101154505D01*
X104862022Y-101428778D01*
X104970195Y-101689931D01*
X105127238Y-101924963D01*
X105327116Y-102124841D01*
X105562148Y-102281884D01*
X105823301Y-102390057D01*
X106100540Y-102445204D01*
X106383210Y-102445204D01*
X106660449Y-102390057D01*
X106921602Y-102281884D01*
X107154119Y-102126521D01*
X107208676Y-102400794D01*
X107316849Y-102661947D01*
X107473892Y-102896979D01*
X107673770Y-103096857D01*
X107908802Y-103253900D01*
X108169955Y-103362073D01*
X108447194Y-103417220D01*
X108729864Y-103417220D01*
X109007103Y-103362073D01*
X109268256Y-103253900D01*
X109500773Y-103098537D01*
X109555330Y-103372810D01*
X109663503Y-103633963D01*
X109820546Y-103868995D01*
X110020424Y-104068873D01*
X110255456Y-104225916D01*
X110516609Y-104334089D01*
X110793848Y-104389236D01*
X111076518Y-104389236D01*
X111353757Y-104334089D01*
X111614910Y-104225916D01*
X111847427Y-104070553D01*
X111901984Y-104344826D01*
X112010157Y-104605979D01*
X112167200Y-104841011D01*
X112367078Y-105040889D01*
X112602110Y-105197932D01*
X112863263Y-105306105D01*
X113140502Y-105361252D01*
X113423172Y-105361252D01*
X113700411Y-105306105D01*
X113961564Y-105197932D01*
X114194081Y-105042569D01*
X114248638Y-105316842D01*
X114356811Y-105577995D01*
X114513854Y-105813027D01*
X114713732Y-106012905D01*
X114948764Y-106169948D01*
X115209917Y-106278121D01*
X115487156Y-106333268D01*
X115769826Y-106333268D01*
X116047065Y-106278121D01*
X116308218Y-106169948D01*
X116540735Y-106014585D01*
X116595292Y-106288858D01*
X116703465Y-106550011D01*
X116860508Y-106785043D01*
X117060386Y-106984921D01*
X117295418Y-107141964D01*
X117556571Y-107250137D01*
X117833810Y-107305284D01*
X118116480Y-107305284D01*
X118393719Y-107250137D01*
X118654872Y-107141964D01*
X118887389Y-106986601D01*
X118941946Y-107260874D01*
X119050119Y-107522027D01*
X119207162Y-107757059D01*
X119407040Y-107956937D01*
X119642072Y-108113980D01*
X119903225Y-108222153D01*
X120180464Y-108277300D01*
X120463134Y-108277300D01*
X120740373Y-108222153D01*
X121001526Y-108113980D01*
X121236558Y-107956937D01*
X121436436Y-107757059D01*
X121593479Y-107522027D01*
X121701652Y-107260874D01*
X121756799Y-106983635D01*
X121756799Y-106700965D01*
X121719266Y-106512278D01*
X121756771Y-106466578D01*
X121756772Y-106466577D01*
X121827344Y-106334548D01*
X121859823Y-106227479D01*
X122552302Y-105535000D01*
X124184341Y-105535000D01*
X122170192Y-110167543D01*
X96143574Y-99756896D01*
X96116641Y-99734792D01*
X96006326Y-99675828D01*
X95345741Y-99405530D01*
X95306154Y-99421928D01*
X94837473Y-99234455D01*
X94817744Y-99186826D01*
X94159509Y-98910852D01*
X94039811Y-98874541D01*
X93915330Y-98862281D01*
X93908676Y-98862936D01*
X92989519Y-98495274D01*
X93087166Y-98049907D01*
X93105801Y-97980910D01*
X95696936Y-97980910D01*
X95886730Y-98190386D01*
X96113745Y-98358811D01*
X96369256Y-98479711D01*
X96643444Y-98548440D01*
X96925772Y-98562357D01*
X97067075Y-98548440D01*
X97226572Y-98350436D01*
X96786527Y-97288073D01*
X95724164Y-97728118D01*
X95696936Y-97980910D01*
X93105801Y-97980910D01*
X93364945Y-97021447D01*
X93393968Y-97064883D01*
X93593846Y-97264761D01*
X93828878Y-97421804D01*
X94090031Y-97529977D01*
X94367270Y-97585124D01*
X94649940Y-97585124D01*
X94927179Y-97529977D01*
X95188332Y-97421804D01*
X95422219Y-97265526D01*
X95428959Y-97333956D01*
X95626963Y-97493453D01*
X96631055Y-97077544D01*
X96661510Y-97107999D01*
X96841118Y-96928391D01*
X96493593Y-96580866D01*
X96249281Y-95991045D01*
X95996489Y-95963817D01*
X95943605Y-96011732D01*
X95943605Y-96008789D01*
X95920741Y-95893844D01*
X96483946Y-95893844D01*
X96923991Y-96956207D01*
X97986354Y-96516162D01*
X98013582Y-96263370D01*
X97823788Y-96053894D01*
X97596773Y-95885469D01*
X97341262Y-95764569D01*
X97067074Y-95695840D01*
X96784746Y-95681923D01*
X96643443Y-95695840D01*
X96483946Y-95893844D01*
X95920741Y-95893844D01*
X95888458Y-95731550D01*
X95780285Y-95470397D01*
X95623242Y-95235365D01*
X95423364Y-95035487D01*
X95188332Y-94878444D01*
X94927179Y-94770271D01*
X94649940Y-94715124D01*
X94367270Y-94715124D01*
X94090031Y-94770271D01*
X93961685Y-94823434D01*
X94949119Y-91759441D01*
X96104108Y-88688382D01*
X97332113Y-85845018D01*
X106222340Y-85845018D01*
X106412134Y-86054494D01*
X106639149Y-86222919D01*
X106894660Y-86343819D01*
X107168848Y-86412548D01*
X107451176Y-86426465D01*
X107592479Y-86412548D01*
X107751976Y-86214544D01*
X107311931Y-85152181D01*
X106249568Y-85592226D01*
X106222340Y-85845018D01*
X97332113Y-85845018D01*
X97405010Y-85676232D01*
X97798627Y-84873002D01*
X103875686Y-84873002D01*
X104065480Y-85082478D01*
X104292495Y-85250903D01*
X104548006Y-85371803D01*
X104822194Y-85440532D01*
X105104522Y-85454449D01*
X105245825Y-85440532D01*
X105405322Y-85242528D01*
X104976799Y-84207981D01*
X105048150Y-84207981D01*
X105395675Y-84555506D01*
X105639987Y-85145327D01*
X105892779Y-85172555D01*
X105947011Y-85123418D01*
X105954363Y-85198064D01*
X106152367Y-85357561D01*
X107156459Y-84941652D01*
X107186914Y-84972107D01*
X107366522Y-84792499D01*
X107018997Y-84444974D01*
X106774685Y-83855153D01*
X106521893Y-83827925D01*
X106467661Y-83877062D01*
X106460309Y-83802416D01*
X106405111Y-83757952D01*
X107009350Y-83757952D01*
X107449395Y-84820315D01*
X108511758Y-84380270D01*
X108538986Y-84127478D01*
X108349192Y-83918002D01*
X108122177Y-83749577D01*
X107866666Y-83628677D01*
X107592478Y-83559948D01*
X107310150Y-83546031D01*
X107168847Y-83559948D01*
X107009350Y-83757952D01*
X106405111Y-83757952D01*
X106262305Y-83642919D01*
X105258213Y-84058828D01*
X105227758Y-84028373D01*
X105048150Y-84207981D01*
X104976799Y-84207981D01*
X104965277Y-84180165D01*
X103902914Y-84620210D01*
X103875686Y-84873002D01*
X97798627Y-84873002D01*
X98778265Y-82873919D01*
X98844266Y-82954342D01*
X98940957Y-83033695D01*
X99051272Y-83092659D01*
X100529479Y-83704952D01*
X100649176Y-83741262D01*
X100773658Y-83753522D01*
X100898140Y-83741262D01*
X101017838Y-83704952D01*
X101128152Y-83645987D01*
X101224843Y-83566635D01*
X101304196Y-83469944D01*
X101308195Y-83462463D01*
X101415675Y-83721943D01*
X101572718Y-83956975D01*
X101772596Y-84156853D01*
X102007628Y-84313896D01*
X102268781Y-84422069D01*
X102546020Y-84477216D01*
X102828690Y-84477216D01*
X103105929Y-84422069D01*
X103367082Y-84313896D01*
X103600969Y-84157618D01*
X103607709Y-84226048D01*
X103805713Y-84385545D01*
X104809805Y-83969636D01*
X104840260Y-84000091D01*
X105019868Y-83820483D01*
X104672343Y-83472958D01*
X104428031Y-82883137D01*
X104175239Y-82855909D01*
X104122355Y-82903824D01*
X104122355Y-82900881D01*
X104099491Y-82785936D01*
X104662696Y-82785936D01*
X105102741Y-83848299D01*
X106165104Y-83408254D01*
X106192332Y-83155462D01*
X106002538Y-82945986D01*
X105775523Y-82777561D01*
X105520012Y-82656661D01*
X105245824Y-82587932D01*
X104963496Y-82574015D01*
X104822193Y-82587932D01*
X104662696Y-82785936D01*
X104099491Y-82785936D01*
X104067208Y-82623642D01*
X103959035Y-82362489D01*
X103801992Y-82127457D01*
X103602114Y-81927579D01*
X103367082Y-81770536D01*
X103105929Y-81662363D01*
X102828690Y-81607216D01*
X102546020Y-81607216D01*
X102268781Y-81662363D01*
X102009300Y-81769843D01*
X102011763Y-81761725D01*
X102024023Y-81637243D01*
X102011763Y-81512761D01*
X101975453Y-81393063D01*
X101916488Y-81282749D01*
X101837136Y-81186058D01*
X101740445Y-81106705D01*
X101630130Y-81047741D01*
X100151923Y-80435448D01*
X100118656Y-80425356D01*
X100432256Y-79856213D01*
X100570718Y-79631174D01*
X130007474Y-92141795D01*
M02*
