G04 #@! TF.GenerationSoftware,KiCad,Pcbnew,(5.1.5)-3*
G04 #@! TF.CreationDate,2020-04-06T14:53:39-04:00*
G04 #@! TF.ProjectId,OctoPad,4f63746f-5061-4642-9e6b-696361645f70,rev?*
G04 #@! TF.SameCoordinates,Original*
G04 #@! TF.FileFunction,Legend,Top*
G04 #@! TF.FilePolarity,Positive*
%FSLAX46Y46*%
G04 Gerber Fmt 4.6, Leading zero omitted, Abs format (unit mm)*
G04 Created by KiCad (PCBNEW (5.1.5)-3) date 2020-04-06 14:53:39*
%MOMM*%
%LPD*%
G04 APERTURE LIST*
%ADD10C,0.120000*%
%ADD11C,0.300000*%
%ADD12C,0.150000*%
G04 APERTURE END LIST*
D10*
X94456250Y-100806250D02*
X98425000Y-102393750D01*
D11*
X156436607Y-136409821D02*
X156436607Y-135409821D01*
X156436607Y-135695535D02*
X156508035Y-135552678D01*
X156579464Y-135481250D01*
X156722321Y-135409821D01*
X156865178Y-135409821D01*
X157936607Y-136338392D02*
X157793750Y-136409821D01*
X157508035Y-136409821D01*
X157365178Y-136338392D01*
X157293750Y-136195535D01*
X157293750Y-135624107D01*
X157365178Y-135481250D01*
X157508035Y-135409821D01*
X157793750Y-135409821D01*
X157936607Y-135481250D01*
X158008035Y-135624107D01*
X158008035Y-135766964D01*
X157293750Y-135909821D01*
X158508035Y-135409821D02*
X158865178Y-136409821D01*
X159222321Y-135409821D01*
X160579464Y-136409821D02*
X159722321Y-136409821D01*
X160150892Y-136409821D02*
X160150892Y-134909821D01*
X160008035Y-135124107D01*
X159865178Y-135266964D01*
X159722321Y-135338392D01*
X161222321Y-136266964D02*
X161293750Y-136338392D01*
X161222321Y-136409821D01*
X161150892Y-136338392D01*
X161222321Y-136266964D01*
X161222321Y-136409821D01*
X162722321Y-136409821D02*
X161865178Y-136409821D01*
X162293750Y-136409821D02*
X162293750Y-134909821D01*
X162150892Y-135124107D01*
X162008035Y-135266964D01*
X161865178Y-135338392D01*
X149258035Y-130119642D02*
X149829464Y-130119642D01*
X150115178Y-130262500D01*
X150400892Y-130548214D01*
X150543750Y-131119642D01*
X150543750Y-132119642D01*
X150400892Y-132691071D01*
X150115178Y-132976785D01*
X149829464Y-133119642D01*
X149258035Y-133119642D01*
X148972321Y-132976785D01*
X148686607Y-132691071D01*
X148543750Y-132119642D01*
X148543750Y-131119642D01*
X148686607Y-130548214D01*
X148972321Y-130262500D01*
X149258035Y-130119642D01*
X153115178Y-132976785D02*
X152829464Y-133119642D01*
X152258035Y-133119642D01*
X151972321Y-132976785D01*
X151829464Y-132833928D01*
X151686607Y-132548214D01*
X151686607Y-131691071D01*
X151829464Y-131405357D01*
X151972321Y-131262500D01*
X152258035Y-131119642D01*
X152829464Y-131119642D01*
X153115178Y-131262500D01*
X153972321Y-131119642D02*
X155115178Y-131119642D01*
X154400892Y-130119642D02*
X154400892Y-132691071D01*
X154543750Y-132976785D01*
X154829464Y-133119642D01*
X155115178Y-133119642D01*
X156543750Y-133119642D02*
X156258035Y-132976785D01*
X156115178Y-132833928D01*
X155972321Y-132548214D01*
X155972321Y-131691071D01*
X156115178Y-131405357D01*
X156258035Y-131262500D01*
X156543750Y-131119642D01*
X156972321Y-131119642D01*
X157258035Y-131262500D01*
X157400892Y-131405357D01*
X157543750Y-131691071D01*
X157543750Y-132548214D01*
X157400892Y-132833928D01*
X157258035Y-132976785D01*
X156972321Y-133119642D01*
X156543750Y-133119642D01*
X159829464Y-131548214D02*
X160258035Y-131691071D01*
X160400892Y-131833928D01*
X160543750Y-132119642D01*
X160543750Y-132548214D01*
X160400892Y-132833928D01*
X160258035Y-132976785D01*
X159972321Y-133119642D01*
X158829464Y-133119642D01*
X158829464Y-130119642D01*
X159829464Y-130119642D01*
X160115178Y-130262500D01*
X160258035Y-130405357D01*
X160400892Y-130691071D01*
X160400892Y-130976785D01*
X160258035Y-131262500D01*
X160115178Y-131405357D01*
X159829464Y-131548214D01*
X158829464Y-131548214D01*
X162258035Y-133119642D02*
X161972321Y-132976785D01*
X161829464Y-132833928D01*
X161686607Y-132548214D01*
X161686607Y-131691071D01*
X161829464Y-131405357D01*
X161972321Y-131262500D01*
X162258035Y-131119642D01*
X162686607Y-131119642D01*
X162972321Y-131262500D01*
X163115178Y-131405357D01*
X163258035Y-131691071D01*
X163258035Y-132548214D01*
X163115178Y-132833928D01*
X162972321Y-132976785D01*
X162686607Y-133119642D01*
X162258035Y-133119642D01*
X165829464Y-133119642D02*
X165829464Y-131548214D01*
X165686607Y-131262500D01*
X165400892Y-131119642D01*
X164829464Y-131119642D01*
X164543750Y-131262500D01*
X165829464Y-132976785D02*
X165543750Y-133119642D01*
X164829464Y-133119642D01*
X164543750Y-132976785D01*
X164400892Y-132691071D01*
X164400892Y-132405357D01*
X164543750Y-132119642D01*
X164829464Y-131976785D01*
X165543750Y-131976785D01*
X165829464Y-131833928D01*
X167258035Y-133119642D02*
X167258035Y-131119642D01*
X167258035Y-131691071D02*
X167400892Y-131405357D01*
X167543750Y-131262500D01*
X167829464Y-131119642D01*
X168115178Y-131119642D01*
X170400892Y-133119642D02*
X170400892Y-130119642D01*
X170400892Y-132976785D02*
X170115178Y-133119642D01*
X169543750Y-133119642D01*
X169258035Y-132976785D01*
X169115178Y-132833928D01*
X168972321Y-132548214D01*
X168972321Y-131691071D01*
X169115178Y-131405357D01*
X169258035Y-131262500D01*
X169543750Y-131119642D01*
X170115178Y-131119642D01*
X170400892Y-131262500D01*
D10*
X161925000Y-114300000D02*
G75*
G03X161925000Y-114300000I-2381250J0D01*
G01*
X189716692Y-114300000D02*
G75*
G03X189716692Y-114300000I-30172942J0D01*
G01*
D12*
X92849270Y-96837444D02*
X121009118Y-108501635D01*
X94793302Y-92144136D02*
X92849270Y-96837444D01*
X92446648Y-91172120D02*
X94793302Y-92144136D01*
X95362696Y-84132158D02*
X92446648Y-91172120D01*
X97709350Y-85104173D02*
X95362696Y-84132158D01*
X99653382Y-80410865D02*
X97709350Y-85104173D01*
X127813230Y-92075056D02*
X99653382Y-80410865D01*
X121009118Y-108501635D02*
X127813230Y-92075056D01*
D10*
X184348080Y-137520411D02*
X182764161Y-139104330D01*
X184517786Y-137690117D02*
X182933867Y-139274036D01*
X184432933Y-137605264D02*
X182849014Y-139189183D01*
X186589609Y-141345859D02*
X186129989Y-140886239D01*
X182672237Y-137428487D02*
X183131856Y-137888106D01*
X186921949Y-140094280D02*
X183923816Y-137096147D01*
X185338030Y-141678199D02*
X186921949Y-140094280D01*
X182339897Y-138680066D02*
X185338030Y-141678199D01*
X183923816Y-137096147D02*
X182339897Y-138680066D01*
X193901250Y-113180000D02*
X193901250Y-115420000D01*
X194141250Y-113180000D02*
X194141250Y-115420000D01*
X194021250Y-113180000D02*
X194021250Y-115420000D01*
X198191250Y-114300000D02*
X197541250Y-114300000D01*
X192651250Y-114300000D02*
X193301250Y-114300000D01*
X197541250Y-113180000D02*
X193301250Y-113180000D01*
X197541250Y-115420000D02*
X197541250Y-113180000D01*
X193301250Y-115420000D02*
X197541250Y-115420000D01*
X193301250Y-113180000D02*
X193301250Y-115420000D01*
X183389815Y-88870016D02*
X184973734Y-90453935D01*
X183559521Y-88700310D02*
X185143440Y-90284229D01*
X183474668Y-88785163D02*
X185058587Y-90369082D01*
X187215263Y-86628487D02*
X186755643Y-87088107D01*
X183297891Y-90545859D02*
X183757510Y-90086240D01*
X185963684Y-86296147D02*
X182965551Y-89294280D01*
X187547603Y-87880066D02*
X185963684Y-86296147D01*
X184549470Y-90878199D02*
X187547603Y-87880066D01*
X182965551Y-89294280D02*
X184549470Y-90878199D01*
X158423750Y-80260000D02*
X160663750Y-80260000D01*
X158423750Y-80020000D02*
X160663750Y-80020000D01*
X158423750Y-80140000D02*
X160663750Y-80140000D01*
X159543750Y-75970000D02*
X159543750Y-76620000D01*
X159543750Y-81510000D02*
X159543750Y-80860000D01*
X158423750Y-76620000D02*
X158423750Y-80860000D01*
X160663750Y-76620000D02*
X158423750Y-76620000D01*
X160663750Y-80860000D02*
X160663750Y-76620000D01*
X158423750Y-80860000D02*
X160663750Y-80860000D01*
X134113766Y-90453935D02*
X135697685Y-88870016D01*
X133944060Y-90284229D02*
X135527979Y-88700310D01*
X134028913Y-90369082D02*
X135612832Y-88785163D01*
X131872237Y-86628487D02*
X132331857Y-87088107D01*
X135789609Y-90545859D02*
X135329990Y-90086240D01*
X131539897Y-87880066D02*
X134538030Y-90878199D01*
X133123816Y-86296147D02*
X131539897Y-87880066D01*
X136121949Y-89294280D02*
X133123816Y-86296147D01*
X134538030Y-90878199D02*
X136121949Y-89294280D01*
X125503750Y-115420000D02*
X125503750Y-113180000D01*
X125263750Y-115420000D02*
X125263750Y-113180000D01*
X125383750Y-115420000D02*
X125383750Y-113180000D01*
X121213750Y-114300000D02*
X121863750Y-114300000D01*
X126753750Y-114300000D02*
X126103750Y-114300000D01*
X121863750Y-115420000D02*
X126103750Y-115420000D01*
X121863750Y-113180000D02*
X121863750Y-115420000D01*
X126103750Y-113180000D02*
X121863750Y-113180000D01*
X126103750Y-115420000D02*
X126103750Y-113180000D01*
X135697685Y-139729984D02*
X134113766Y-138146065D01*
X135527979Y-139899690D02*
X133944060Y-138315771D01*
X135612832Y-139814837D02*
X134028913Y-138230918D01*
X131872237Y-141971513D02*
X132331857Y-141511893D01*
X135789609Y-138054141D02*
X135329990Y-138513760D01*
X133123816Y-142303853D02*
X136121949Y-139305720D01*
X131539897Y-140719934D02*
X133123816Y-142303853D01*
X134538030Y-137721801D02*
X131539897Y-140719934D01*
X136121949Y-139305720D02*
X134538030Y-137721801D01*
X160663750Y-148340000D02*
X158423750Y-148340000D01*
X160663750Y-148580000D02*
X158423750Y-148580000D01*
X160663750Y-148460000D02*
X158423750Y-148460000D01*
X159543750Y-152630000D02*
X159543750Y-151980000D01*
X159543750Y-147090000D02*
X159543750Y-147740000D01*
X160663750Y-151980000D02*
X160663750Y-147740000D01*
X158423750Y-151980000D02*
X160663750Y-151980000D01*
X158423750Y-147740000D02*
X158423750Y-151980000D01*
X160663750Y-147740000D02*
X158423750Y-147740000D01*
D12*
X93581076Y-102985862D02*
X93836198Y-102369943D01*
X93763306Y-102545920D02*
X93843746Y-102476154D01*
X93905964Y-102450383D01*
X94012175Y-102442835D01*
X94100164Y-102479281D01*
X94523178Y-103324551D02*
X94416967Y-103332100D01*
X94240990Y-103259208D01*
X94171224Y-103178767D01*
X94163676Y-103072556D01*
X94309460Y-102720602D01*
X94389901Y-102650836D01*
X94496112Y-102643288D01*
X94672089Y-102716180D01*
X94741855Y-102796620D01*
X94749403Y-102902832D01*
X94712957Y-102990820D01*
X94236568Y-102896579D01*
X94919127Y-103488559D02*
X94988892Y-103568999D01*
X95164869Y-103641891D01*
X95271081Y-103634343D01*
X95351521Y-103564577D01*
X95369744Y-103520583D01*
X95362196Y-103414372D01*
X95292430Y-103333931D01*
X95160448Y-103279262D01*
X95090682Y-103198822D01*
X95083134Y-103092610D01*
X95101357Y-103048616D01*
X95181797Y-102978851D01*
X95288009Y-102971302D01*
X95419992Y-103025971D01*
X95489757Y-103106412D01*
X96062978Y-103962357D02*
X95956766Y-103969905D01*
X95780789Y-103897013D01*
X95711024Y-103816573D01*
X95703475Y-103710361D01*
X95849259Y-103358407D01*
X95929700Y-103288642D01*
X96035911Y-103281094D01*
X96211888Y-103353986D01*
X96281654Y-103434426D01*
X96289202Y-103540638D01*
X96252756Y-103628626D01*
X95776367Y-103534384D01*
X96607837Y-103517993D02*
X96959791Y-103663777D01*
X96867381Y-103264702D02*
X96539366Y-104056599D01*
X96546915Y-104162810D01*
X96616680Y-104243251D01*
X96704669Y-104279697D01*
X185288195Y-137686075D02*
X185995301Y-136978968D01*
X186163660Y-137147327D01*
X186231004Y-137282014D01*
X186231004Y-137416701D01*
X186197332Y-137517716D01*
X186096317Y-137686075D01*
X185995301Y-137787090D01*
X185826943Y-137888106D01*
X185725927Y-137921777D01*
X185591240Y-137921777D01*
X185456553Y-137854434D01*
X185288195Y-137686075D01*
X186500378Y-138090136D02*
X186466706Y-137989121D01*
X186466706Y-137921777D01*
X186500378Y-137820762D01*
X186534050Y-137787090D01*
X186635065Y-137753418D01*
X186702408Y-137753418D01*
X186803424Y-137787090D01*
X186938111Y-137921777D01*
X186971782Y-138022793D01*
X186971782Y-138090136D01*
X186938111Y-138191151D01*
X186904439Y-138224823D01*
X186803424Y-138258495D01*
X186736080Y-138258495D01*
X186635065Y-138224823D01*
X186500378Y-138090136D01*
X186399363Y-138056464D01*
X186332019Y-138056464D01*
X186231004Y-138090136D01*
X186096317Y-138224823D01*
X186062645Y-138325838D01*
X186062645Y-138393182D01*
X186096317Y-138494197D01*
X186231004Y-138628884D01*
X186332019Y-138662556D01*
X186399363Y-138662556D01*
X186500378Y-138628884D01*
X186635065Y-138494197D01*
X186668737Y-138393182D01*
X186668737Y-138325838D01*
X186635065Y-138224823D01*
X182704561Y-135554991D02*
X183411668Y-134847884D01*
X183108622Y-135959052D02*
X183209638Y-135251945D01*
X183815729Y-135251945D02*
X183007607Y-135251945D01*
X194683154Y-112632380D02*
X194683154Y-111632380D01*
X194921250Y-111632380D01*
X195064107Y-111680000D01*
X195159345Y-111775238D01*
X195206964Y-111870476D01*
X195254583Y-112060952D01*
X195254583Y-112203809D01*
X195206964Y-112394285D01*
X195159345Y-112489523D01*
X195064107Y-112584761D01*
X194921250Y-112632380D01*
X194683154Y-112632380D01*
X195587916Y-111632380D02*
X196254583Y-111632380D01*
X195826011Y-112632380D01*
X191349345Y-112952380D02*
X191349345Y-111952380D01*
X191920773Y-112952380D02*
X191492202Y-112380952D01*
X191920773Y-111952380D02*
X191349345Y-112523809D01*
X183555479Y-87929900D02*
X182848372Y-87222794D01*
X183016731Y-87054435D01*
X183151418Y-86987091D01*
X183286105Y-86987091D01*
X183387120Y-87020763D01*
X183555479Y-87121778D01*
X183656494Y-87222794D01*
X183757510Y-87391152D01*
X183791181Y-87492168D01*
X183791181Y-87626855D01*
X183723838Y-87761542D01*
X183555479Y-87929900D01*
X183858525Y-86212641D02*
X183723838Y-86347328D01*
X183690166Y-86448343D01*
X183690166Y-86515687D01*
X183723838Y-86684045D01*
X183824853Y-86852404D01*
X184094227Y-87121778D01*
X184195242Y-87155450D01*
X184262586Y-87155450D01*
X184363601Y-87121778D01*
X184498288Y-86987091D01*
X184531960Y-86886076D01*
X184531960Y-86818732D01*
X184498288Y-86717717D01*
X184329929Y-86549358D01*
X184228914Y-86515687D01*
X184161571Y-86515687D01*
X184060555Y-86549358D01*
X183925868Y-86684045D01*
X183892197Y-86785061D01*
X183892197Y-86852404D01*
X183925868Y-86953419D01*
X181424395Y-90513534D02*
X180717288Y-89806427D01*
X181828456Y-90109473D02*
X181121349Y-90008458D01*
X181121349Y-89402366D02*
X181121349Y-90210488D01*
X157876130Y-79478095D02*
X156876130Y-79478095D01*
X156876130Y-79240000D01*
X156923750Y-79097142D01*
X157018988Y-79001904D01*
X157114226Y-78954285D01*
X157304702Y-78906666D01*
X157447559Y-78906666D01*
X157638035Y-78954285D01*
X157733273Y-79001904D01*
X157828511Y-79097142D01*
X157876130Y-79240000D01*
X157876130Y-79478095D01*
X156876130Y-78001904D02*
X156876130Y-78478095D01*
X157352321Y-78525714D01*
X157304702Y-78478095D01*
X157257083Y-78382857D01*
X157257083Y-78144761D01*
X157304702Y-78049523D01*
X157352321Y-78001904D01*
X157447559Y-77954285D01*
X157685654Y-77954285D01*
X157780892Y-78001904D01*
X157828511Y-78049523D01*
X157876130Y-78144761D01*
X157876130Y-78382857D01*
X157828511Y-78478095D01*
X157780892Y-78525714D01*
X158196130Y-82811904D02*
X157196130Y-82811904D01*
X158196130Y-82240476D02*
X157624702Y-82669047D01*
X157196130Y-82240476D02*
X157767559Y-82811904D01*
X131490063Y-89884209D02*
X132197169Y-89177102D01*
X132365528Y-89345461D01*
X132432872Y-89480148D01*
X132432872Y-89614835D01*
X132399200Y-89715850D01*
X132298185Y-89884209D01*
X132197169Y-89985224D01*
X132028811Y-90086240D01*
X131927795Y-90119911D01*
X131793108Y-90119911D01*
X131658421Y-90052568D01*
X131490063Y-89884209D01*
X132971620Y-90422957D02*
X132500215Y-90894362D01*
X133072635Y-89985224D02*
X132399200Y-90321942D01*
X132836933Y-90759675D01*
X134747131Y-92688729D02*
X135454238Y-91981622D01*
X135151192Y-93092790D02*
X135252208Y-92385683D01*
X135858299Y-92385683D02*
X135050177Y-92385683D01*
X123245654Y-116872380D02*
X123245654Y-115872380D01*
X123483750Y-115872380D01*
X123626607Y-115920000D01*
X123721845Y-116015238D01*
X123769464Y-116110476D01*
X123817083Y-116300952D01*
X123817083Y-116443809D01*
X123769464Y-116634285D01*
X123721845Y-116729523D01*
X123626607Y-116824761D01*
X123483750Y-116872380D01*
X123245654Y-116872380D01*
X124150416Y-115872380D02*
X124769464Y-115872380D01*
X124436130Y-116253333D01*
X124578988Y-116253333D01*
X124674226Y-116300952D01*
X124721845Y-116348571D01*
X124769464Y-116443809D01*
X124769464Y-116681904D01*
X124721845Y-116777142D01*
X124674226Y-116824761D01*
X124578988Y-116872380D01*
X124293273Y-116872380D01*
X124198035Y-116824761D01*
X124150416Y-116777142D01*
X127531845Y-116552380D02*
X127531845Y-115552380D01*
X128103273Y-116552380D02*
X127674702Y-115980952D01*
X128103273Y-115552380D02*
X127531845Y-116123809D01*
X135127959Y-142353686D02*
X134420852Y-141646580D01*
X134589211Y-141478221D01*
X134723898Y-141410877D01*
X134858585Y-141410877D01*
X134959600Y-141444549D01*
X135127959Y-141545564D01*
X135228974Y-141646580D01*
X135329990Y-141814938D01*
X135363661Y-141915954D01*
X135363661Y-142050641D01*
X135296318Y-142185328D01*
X135127959Y-142353686D01*
X135161631Y-141040488D02*
X135161631Y-140973144D01*
X135195302Y-140872129D01*
X135363661Y-140703770D01*
X135464677Y-140670099D01*
X135532020Y-140670099D01*
X135633035Y-140703770D01*
X135700379Y-140771114D01*
X135767722Y-140905801D01*
X135767722Y-141713923D01*
X136205455Y-141276190D01*
X137932479Y-139096618D02*
X137225372Y-138389511D01*
X138336540Y-138692557D02*
X137629433Y-138591542D01*
X137629433Y-137985450D02*
X137629433Y-138793572D01*
X162116130Y-150598095D02*
X161116130Y-150598095D01*
X161116130Y-150360000D01*
X161163750Y-150217142D01*
X161258988Y-150121904D01*
X161354226Y-150074285D01*
X161544702Y-150026666D01*
X161687559Y-150026666D01*
X161878035Y-150074285D01*
X161973273Y-150121904D01*
X162068511Y-150217142D01*
X162116130Y-150360000D01*
X162116130Y-150598095D01*
X162116130Y-149074285D02*
X162116130Y-149645714D01*
X162116130Y-149360000D02*
X161116130Y-149360000D01*
X161258988Y-149455238D01*
X161354226Y-149550476D01*
X161401845Y-149645714D01*
X161796130Y-146311904D02*
X160796130Y-146311904D01*
X161796130Y-145740476D02*
X161224702Y-146169047D01*
X160796130Y-145740476D02*
X161367559Y-146311904D01*
M02*
