M48
; DRILL file {KiCad (5.1.5)-3} date 4/5/2020 11:08:00 AM
; FORMAT={-:-/ absolute / inch / decimal}
; #@! TF.CreationDate,2020-04-05T11:08:00-04:00
; #@! TF.GenerationSoftware,Kicad,Pcbnew,(5.1.5)-3
; #@! TF.FileFunction,Plated,1,2,PTH
FMAT,2
INCH
T1C0.0157
T2C0.0315
T3C0.0315
T4C0.0433
T5C0.0579
%
G90
G05
T1
X6.1875Y-4.5
X6.2188Y-4.4375
X6.2188Y-4.5625
X6.2812Y-4.4062
X6.2812Y-4.5938
X6.3438Y-4.4375
X6.3438Y-4.5625
X6.375Y-4.5
T2
X5.1629Y-3.3816
X5.375Y-3.5938
X7.1875Y-3.5938
X7.3996Y-3.3816
X7.1629Y-5.3816
X7.375Y-5.5938
X6.2812Y-5.75
X6.2812Y-6.05
X5.1629Y-5.6184
X5.375Y-5.4062
X6.2812Y-2.95
X6.2812Y-3.25
X4.7313Y-4.5
X5.0312Y-4.5
X7.5438Y-4.5
X7.8438Y-4.5
T3
X3.7188Y-3.9688
X3.8573Y-4.0262
T4
X3.7208Y-3.7854
X3.8132Y-3.8237
X3.9056Y-3.862
X3.9504Y-3.2311
X3.998Y-3.9002
X4.0428Y-3.2694
X4.0904Y-3.9385
X4.1352Y-3.3076
X4.1828Y-3.9768
X4.2276Y-3.3459
X4.2751Y-4.015
X4.32Y-3.3842
X4.3675Y-4.0533
X4.4124Y-3.4225
X4.4599Y-4.0916
X4.5047Y-3.4607
X4.5523Y-4.1299
X4.5971Y-3.499
X4.6447Y-4.1681
X4.6895Y-3.5373
X4.7371Y-4.2064
X4.7819Y-3.5755
X4.8743Y-3.6138
X4.9667Y-3.6521
T5
X4.7119Y-3.0386
X4.727Y-3.0559
X4.833Y-2.8084
X4.8372Y-2.8855
X7.7253Y-6.0832
X7.7295Y-6.1604
X7.8355Y-5.9129
X7.8506Y-5.9301
X6.1Y-6.7125
X6.1516Y-6.655
X6.3484Y-6.6353
X6.35Y-6.6125
X7.7254Y-2.9457
X7.7426Y-2.9307
X7.8957Y-3.056
X7.9729Y-3.0518
X4.6209Y-5.9795
X4.698Y-5.9753
X4.8511Y-6.1006
X4.8684Y-6.0855
X4.0687Y-4.35
X4.1262Y-4.4016
X4.1459Y-4.5984
X4.1688Y-4.6
X6.1812Y-2.3875
X6.1828Y-2.3647
X6.3797Y-2.345
X6.4312Y-2.2875
X8.3937Y-4.4
X8.4166Y-4.4016
X8.4363Y-4.5984
X8.4938Y-4.65
T0
M30
