M48
; DRILL file {KiCad (5.1.5)-3} date 4/6/2020 2:53:40 PM
; FORMAT={-:-/ absolute / inch / decimal}
; #@! TF.CreationDate,2020-04-06T14:53:40-04:00
; #@! TF.GenerationSoftware,Kicad,Pcbnew,(5.1.5)-3
; #@! TF.FileFunction,NonPlated,1,2,NPTH
FMAT,2
INCH
T1C0.0689
T2C0.0866
T3C0.1570
%
G90
G05
T1
X6.45Y-6.8125
X3.9688Y-4.3
X7.7961Y-2.7336
X8.0789Y-3.0164
X8.5938Y-4.3
X8.5938Y-4.7
X4.5148Y-2.9852
X4.7977Y-2.7023
X7.7648Y-6.2664
X8.0477Y-5.9836
X6.05Y-6.8125
X3.9688Y-4.7
X6.0812Y-2.1875
X6.4813Y-2.1875
X4.5148Y-6.0148
X4.7977Y-6.2977
T2
X8.625Y-3.5625
X4.0938Y-5.75
X7.2188Y-6.8125
X5.0312Y-2.3125
T3
X4.6562Y-2.8438
X6.2812Y-2.1875
X7.9375Y-2.875
X8.5938Y-4.5
X7.9062Y-6.125
X6.25Y-6.8125
X3.9688Y-4.5
X4.6562Y-6.1562
T0
M30
