G04 #@! TF.GenerationSoftware,KiCad,Pcbnew,(5.1.5)-3*
G04 #@! TF.CreationDate,2020-04-20T09:44:32-04:00*
G04 #@! TF.ProjectId,OctoPad,4f63746f-5061-4642-9e6b-696361645f70,rev?*
G04 #@! TF.SameCoordinates,Original*
G04 #@! TF.FileFunction,Copper,L2,Bot*
G04 #@! TF.FilePolarity,Positive*
%FSLAX46Y46*%
G04 Gerber Fmt 4.6, Leading zero omitted, Abs format (unit mm)*
G04 Created by KiCad (PCBNEW (5.1.5)-3) date 2020-04-20 09:44:32*
%MOMM*%
%LPD*%
G04 APERTURE LIST*
%ADD10C,1.998980*%
%ADD11C,0.100000*%
%ADD12C,2.250000*%
%ADD13C,2.250000*%
%ADD14C,1.600000*%
%ADD15C,1.600000*%
%ADD16O,1.600000X1.600000*%
%ADD17R,1.600000X1.600000*%
%ADD18C,0.250000*%
%ADD19C,0.254000*%
G04 APERTURE END LIST*
D10*
X173166976Y-117923769D03*
G04 #@! TA.AperFunction,ComponentPad*
D11*
G36*
X175930897Y-121984670D02*
G01*
X174084080Y-122749647D01*
X173319103Y-120902830D01*
X175165920Y-120137853D01*
X175930897Y-121984670D01*
G37*
G04 #@! TD.AperFunction*
D12*
X202525000Y-118300000D03*
D13*
X203835000Y-116840000D02*
X202524998Y-118300000D01*
D12*
X197485000Y-119380000D03*
D13*
X197525000Y-118800000D02*
X197485000Y-119380000D01*
D14*
X171929800Y-124290549D03*
X170957784Y-121943895D03*
X169985768Y-119597241D03*
X169013752Y-117250587D03*
X168041736Y-114903933D03*
X167069720Y-112557279D03*
X166097704Y-110210625D03*
X165125688Y-107863971D03*
X164153672Y-105517317D03*
X163181656Y-103170663D03*
X162209640Y-100824009D03*
X161237624Y-98477355D03*
X147157700Y-104309451D03*
X148129716Y-106656105D03*
X149101732Y-109002759D03*
X150073748Y-111349413D03*
X151045764Y-113696067D03*
X152017780Y-116042721D03*
X152989796Y-118389375D03*
X153961812Y-120736029D03*
X154933828Y-123082683D03*
X155905844Y-125429337D03*
X156877860Y-127775991D03*
G04 #@! TA.AperFunction,ComponentPad*
D11*
G36*
X158895126Y-130555602D02*
G01*
X157416919Y-131167895D01*
X156804626Y-129689688D01*
X158282833Y-129077395D01*
X158895126Y-130555602D01*
G37*
G04 #@! TD.AperFunction*
D12*
X187058090Y-147471194D03*
D13*
X189016776Y-147365128D02*
X187058090Y-147471192D01*
D12*
X182730596Y-144671051D03*
D13*
X183169003Y-144289214D02*
X182730597Y-144671052D01*
D12*
X192714944Y-86785660D03*
D13*
X192608878Y-84826974D02*
X192714942Y-86785660D01*
D12*
X189914801Y-91113154D03*
D13*
X189532964Y-90674747D02*
X189914802Y-91113153D01*
D12*
X164337500Y-71318750D03*
D13*
X162877500Y-70008750D02*
X164337500Y-71318752D01*
D12*
X165417500Y-76358750D03*
D13*
X164837500Y-76318750D02*
X165417500Y-76358750D01*
D12*
X132029410Y-81128806D03*
D13*
X130070724Y-81234872D02*
X132029410Y-81128808D01*
D12*
X136356904Y-83928949D03*
D13*
X135918497Y-84310786D02*
X136356903Y-83928948D01*
D12*
X116562500Y-110300000D03*
D13*
X115252500Y-111760000D02*
X116562502Y-110300000D01*
D12*
X121602500Y-109220000D03*
D13*
X121562500Y-109800000D02*
X121602500Y-109220000D01*
D12*
X126372556Y-141814340D03*
D13*
X126478622Y-143773026D02*
X126372558Y-141814340D01*
D12*
X129172699Y-137486846D03*
D13*
X129554536Y-137925253D02*
X129172698Y-137486847D01*
D12*
X155543750Y-157281250D03*
D13*
X157003750Y-158591250D02*
X155543750Y-157281248D01*
D12*
X154463750Y-152241250D03*
D13*
X155043750Y-152281250D02*
X154463750Y-152241250D01*
D15*
X180806904Y-133975654D02*
X180806904Y-133975654D01*
G04 #@! TA.AperFunction,ComponentPad*
D11*
G36*
X174287379Y-128587500D02*
G01*
X175418750Y-127456129D01*
X176550121Y-128587500D01*
X175418750Y-129718871D01*
X174287379Y-128587500D01*
G37*
G04 #@! TD.AperFunction*
D16*
X188595000Y-114300000D03*
D17*
X180975000Y-114300000D03*
D15*
X180013154Y-93830596D02*
X180013154Y-93830596D01*
G04 #@! TA.AperFunction,ComponentPad*
D11*
G36*
X174625000Y-100350121D02*
G01*
X173493629Y-99218750D01*
X174625000Y-98087379D01*
X175756371Y-99218750D01*
X174625000Y-100350121D01*
G37*
G04 #@! TD.AperFunction*
D16*
X159543750Y-85248750D03*
D17*
X159543750Y-92868750D03*
D15*
X139074346Y-93830596D02*
X139074346Y-93830596D01*
G04 #@! TA.AperFunction,ComponentPad*
D11*
G36*
X145593871Y-99218750D02*
G01*
X144462500Y-100350121D01*
X143331129Y-99218750D01*
X144462500Y-98087379D01*
X145593871Y-99218750D01*
G37*
G04 #@! TD.AperFunction*
D16*
X130492500Y-114300000D03*
D17*
X138112500Y-114300000D03*
D15*
X139074346Y-134769404D02*
X139074346Y-134769404D01*
G04 #@! TA.AperFunction,ComponentPad*
D11*
G36*
X144462500Y-128249879D02*
G01*
X145593871Y-129381250D01*
X144462500Y-130512621D01*
X143331129Y-129381250D01*
X144462500Y-128249879D01*
G37*
G04 #@! TD.AperFunction*
D16*
X159543750Y-143351250D03*
D17*
X159543750Y-135731250D03*
D18*
X155588749Y-151736251D02*
X155043750Y-152281250D01*
X155588749Y-150826249D02*
X155588749Y-151736251D01*
X155575000Y-150812500D02*
X155588749Y-150826249D01*
X159543750Y-146843750D02*
X155575000Y-150812500D01*
X159543750Y-143351250D02*
X159543750Y-146843750D01*
X158493750Y-135731250D02*
X150245765Y-127483265D01*
X150245765Y-114496066D02*
X151045764Y-113696067D01*
X150245765Y-127483265D02*
X150245765Y-114496066D01*
X159543750Y-135731250D02*
X158493750Y-135731250D01*
X139074346Y-134769404D02*
X136525000Y-137318750D01*
X136525000Y-137318750D02*
X131762500Y-137318750D01*
X129992943Y-137486846D02*
X129554536Y-137925253D01*
X131594404Y-137486846D02*
X129992943Y-137486846D01*
X131762500Y-137318750D02*
X131594404Y-137486846D01*
X144462500Y-116960661D02*
X150073748Y-111349413D01*
X144462500Y-129381250D02*
X144462500Y-116960661D01*
X122713750Y-109220000D02*
X121602500Y-109220000D01*
X130492500Y-114300000D02*
X127793750Y-114300000D01*
X127793750Y-114300000D02*
X122713750Y-109220000D01*
X143804491Y-114300000D02*
X149101732Y-109002759D01*
X138112500Y-114300000D02*
X143804491Y-114300000D01*
X136356904Y-91113154D02*
X136356904Y-83928949D01*
X139074346Y-93830596D02*
X136356904Y-91113154D01*
X146998346Y-106656105D02*
X148129716Y-106656105D01*
X144462500Y-104120259D02*
X146998346Y-106656105D01*
X144462500Y-99218750D02*
X144462500Y-104120259D01*
X164292501Y-77483749D02*
X165417500Y-76358750D01*
X159543750Y-85248750D02*
X159543750Y-81756250D01*
X160337500Y-81756250D02*
X164306250Y-77787500D01*
X159543750Y-81756250D02*
X160337500Y-81756250D01*
X164306250Y-77787500D02*
X164292501Y-77773751D01*
X164292501Y-77773751D02*
X164292501Y-77483749D01*
X159543750Y-96783481D02*
X161237624Y-98477355D01*
X159543750Y-92868750D02*
X159543750Y-96783481D01*
X180013154Y-93830596D02*
X182562500Y-91281250D01*
X182562500Y-91281250D02*
X184150000Y-91281250D01*
X184150000Y-91281250D02*
X186531250Y-91281250D01*
X186531250Y-91281250D02*
X187325000Y-91281250D01*
X187325000Y-91281250D02*
X188118750Y-91281250D01*
X188118750Y-91281250D02*
X188912500Y-91281250D01*
X163814899Y-99218750D02*
X162209640Y-100824009D01*
X174625000Y-99218750D02*
X163814899Y-99218750D01*
X196360001Y-118255001D02*
X197485000Y-119380000D01*
X196069999Y-118255001D02*
X196360001Y-118255001D01*
X196056250Y-118268750D02*
X196069999Y-118255001D01*
X192087500Y-114300000D02*
X196056250Y-118268750D01*
X188595000Y-114300000D02*
X192087500Y-114300000D01*
X164313026Y-103170663D02*
X163181656Y-103170663D01*
X168795663Y-103170663D02*
X164313026Y-103170663D01*
X179925000Y-114300000D02*
X168795663Y-103170663D01*
X180975000Y-114300000D02*
X179925000Y-114300000D01*
X182730596Y-143043096D02*
X182730596Y-143850807D01*
X182730596Y-143850807D02*
X183169003Y-144289214D01*
X182562500Y-142875000D02*
X182730596Y-143043096D01*
X182562500Y-135731250D02*
X182562500Y-142875000D01*
X180806904Y-133975654D02*
X182562500Y-135731250D01*
X167429817Y-105517317D02*
X164153672Y-105517317D01*
X177800000Y-115887500D02*
X167429817Y-105517317D01*
X175418750Y-128587500D02*
X177800000Y-126206250D01*
X177800000Y-126206250D02*
X177800000Y-115887500D01*
X147157700Y-103178081D02*
X147157700Y-104309451D01*
X135808829Y-81234872D02*
X147157700Y-92583743D01*
X147157700Y-92583743D02*
X147157700Y-103178081D01*
X130070724Y-81234872D02*
X135808829Y-81234872D01*
X174124855Y-121943895D02*
X174625000Y-121443750D01*
X170957784Y-121943895D02*
X174124855Y-121943895D01*
X167472342Y-125429337D02*
X170957784Y-121943895D01*
X155905844Y-125429337D02*
X167472342Y-125429337D01*
X156065198Y-123082683D02*
X156910381Y-122237500D01*
X154933828Y-123082683D02*
X156065198Y-123082683D01*
X156910381Y-122237500D02*
X164306250Y-122237500D01*
X164306250Y-122237500D02*
X167481250Y-125412500D01*
X171493504Y-119597241D02*
X173166976Y-117923769D01*
X169985768Y-119597241D02*
X171493504Y-119597241D01*
D19*
G36*
X158783751Y-96746149D02*
G01*
X158780074Y-96783481D01*
X158794748Y-96932466D01*
X158838204Y-97075727D01*
X158908776Y-97207757D01*
X158979951Y-97294483D01*
X159003750Y-97323482D01*
X159032748Y-97347280D01*
X159838936Y-98153469D01*
X159802624Y-98336020D01*
X159802624Y-98618690D01*
X159857771Y-98895929D01*
X159965944Y-99157082D01*
X160122987Y-99392114D01*
X160322865Y-99591992D01*
X160557897Y-99749035D01*
X160819050Y-99857208D01*
X161093323Y-99911765D01*
X160937960Y-100144282D01*
X160829787Y-100405435D01*
X160774640Y-100682674D01*
X160774640Y-100965344D01*
X160829787Y-101242583D01*
X160937960Y-101503736D01*
X161095003Y-101738768D01*
X161294881Y-101938646D01*
X161529913Y-102095689D01*
X161791066Y-102203862D01*
X162065339Y-102258419D01*
X161909976Y-102490936D01*
X161801803Y-102752089D01*
X161746656Y-103029328D01*
X161746656Y-103311998D01*
X161801803Y-103589237D01*
X161909976Y-103850390D01*
X162067019Y-104085422D01*
X162266897Y-104285300D01*
X162501929Y-104442343D01*
X162763082Y-104550516D01*
X163037355Y-104605073D01*
X162881992Y-104837590D01*
X162773819Y-105098743D01*
X162718672Y-105375982D01*
X162718672Y-105658652D01*
X162773819Y-105935891D01*
X162881992Y-106197044D01*
X163039035Y-106432076D01*
X163238913Y-106631954D01*
X163473945Y-106788997D01*
X163735098Y-106897170D01*
X164009371Y-106951727D01*
X163854008Y-107184244D01*
X163745835Y-107445397D01*
X163690688Y-107722636D01*
X163690688Y-108005306D01*
X163745835Y-108282545D01*
X163854008Y-108543698D01*
X164011051Y-108778730D01*
X164210929Y-108978608D01*
X164445961Y-109135651D01*
X164707114Y-109243824D01*
X164981387Y-109298381D01*
X164826024Y-109530898D01*
X164717851Y-109792051D01*
X164662704Y-110069290D01*
X164662704Y-110351960D01*
X164717851Y-110629199D01*
X164826024Y-110890352D01*
X164983067Y-111125384D01*
X165182945Y-111325262D01*
X165417977Y-111482305D01*
X165679130Y-111590478D01*
X165953403Y-111645035D01*
X165798040Y-111877552D01*
X165689867Y-112138705D01*
X165634720Y-112415944D01*
X165634720Y-112698614D01*
X165689867Y-112975853D01*
X165798040Y-113237006D01*
X165955083Y-113472038D01*
X166154961Y-113671916D01*
X166389993Y-113828959D01*
X166651146Y-113937132D01*
X166925419Y-113991689D01*
X166770056Y-114224206D01*
X166661883Y-114485359D01*
X166606736Y-114762598D01*
X166606736Y-115045268D01*
X166661883Y-115322507D01*
X166770056Y-115583660D01*
X166927099Y-115818692D01*
X167126977Y-116018570D01*
X167362009Y-116175613D01*
X167623162Y-116283786D01*
X167897435Y-116338343D01*
X167742072Y-116570860D01*
X167633899Y-116832013D01*
X167578752Y-117109252D01*
X167578752Y-117391922D01*
X167633899Y-117669161D01*
X167742072Y-117930314D01*
X167899115Y-118165346D01*
X168098993Y-118365224D01*
X168334025Y-118522267D01*
X168595178Y-118630440D01*
X168869451Y-118684997D01*
X168714088Y-118917514D01*
X168605915Y-119178667D01*
X168550768Y-119455906D01*
X168550768Y-119738576D01*
X168605915Y-120015815D01*
X168714088Y-120276968D01*
X168871131Y-120512000D01*
X169071009Y-120711878D01*
X169306041Y-120868921D01*
X169567194Y-120977094D01*
X169843083Y-121031972D01*
X169799461Y-121085125D01*
X169826689Y-121337917D01*
X170416510Y-121582229D01*
X170764035Y-121929754D01*
X170818626Y-121875163D01*
X171123717Y-121875163D01*
X172186080Y-122315208D01*
X172384084Y-122155711D01*
X172398001Y-121873384D01*
X172356572Y-121593766D01*
X172261388Y-121327603D01*
X172116106Y-121085125D01*
X171950940Y-120902830D01*
X172681031Y-120902830D01*
X172693291Y-121027311D01*
X172729602Y-121147009D01*
X173005576Y-121805244D01*
X173212993Y-121891159D01*
X174127199Y-121512482D01*
X174790933Y-121512482D01*
X175307074Y-122758555D01*
X175514491Y-122844470D01*
X176175076Y-122574172D01*
X176285391Y-122515208D01*
X176382082Y-122435855D01*
X176461434Y-122339163D01*
X176520398Y-122228850D01*
X176556708Y-122109152D01*
X176568969Y-121984670D01*
X176556709Y-121860189D01*
X176520398Y-121740491D01*
X176244424Y-121082256D01*
X176037007Y-120996341D01*
X174790933Y-121512482D01*
X174127199Y-121512482D01*
X174459067Y-121375018D01*
X173942926Y-120128945D01*
X173735509Y-120043030D01*
X173074924Y-120313328D01*
X172964609Y-120372292D01*
X172867918Y-120451645D01*
X172788566Y-120548337D01*
X172729602Y-120658650D01*
X172693292Y-120778348D01*
X172681031Y-120902830D01*
X171950940Y-120902830D01*
X171926311Y-120875648D01*
X171816554Y-120785572D01*
X171563762Y-120812800D01*
X171123717Y-121875163D01*
X170818626Y-121875163D01*
X170943643Y-121750146D01*
X170913188Y-121719691D01*
X171329097Y-120715599D01*
X171169600Y-120517595D01*
X171098323Y-120514082D01*
X171100405Y-120512000D01*
X171203811Y-120357241D01*
X171456182Y-120357241D01*
X171493504Y-120360917D01*
X171530826Y-120357241D01*
X171530837Y-120357241D01*
X171642490Y-120346244D01*
X171785751Y-120302787D01*
X171917780Y-120232215D01*
X172033505Y-120137242D01*
X172057308Y-120108238D01*
X172133803Y-120031743D01*
X174177591Y-120031743D01*
X174693732Y-121277817D01*
X175939805Y-120761676D01*
X176025720Y-120554259D01*
X175755422Y-119893674D01*
X175696458Y-119783359D01*
X175617105Y-119686668D01*
X175520413Y-119607316D01*
X175410100Y-119548352D01*
X175290402Y-119512042D01*
X175165920Y-119499781D01*
X175041439Y-119512041D01*
X174921741Y-119548352D01*
X174263506Y-119824326D01*
X174177591Y-120031743D01*
X172133803Y-120031743D01*
X172675991Y-119489556D01*
X172690213Y-119495447D01*
X173005993Y-119558259D01*
X173327959Y-119558259D01*
X173643739Y-119495447D01*
X173941198Y-119372236D01*
X174208903Y-119193361D01*
X174436568Y-118965696D01*
X174615443Y-118697991D01*
X174738654Y-118400532D01*
X174801466Y-118084752D01*
X174801466Y-117762786D01*
X174738654Y-117447006D01*
X174615443Y-117149547D01*
X174436568Y-116881842D01*
X174208903Y-116654177D01*
X173941198Y-116475302D01*
X173643739Y-116352091D01*
X173327959Y-116289279D01*
X173005993Y-116289279D01*
X172690213Y-116352091D01*
X172392754Y-116475302D01*
X172125049Y-116654177D01*
X171897384Y-116881842D01*
X171718509Y-117149547D01*
X171595298Y-117447006D01*
X171532486Y-117762786D01*
X171532486Y-118084752D01*
X171595298Y-118400532D01*
X171601189Y-118414754D01*
X171193754Y-118822189D01*
X171100405Y-118682482D01*
X170900527Y-118482604D01*
X170665495Y-118325561D01*
X170404342Y-118217388D01*
X170130069Y-118162831D01*
X170285432Y-117930314D01*
X170393605Y-117669161D01*
X170448752Y-117391922D01*
X170448752Y-117109252D01*
X170393605Y-116832013D01*
X170285432Y-116570860D01*
X170128389Y-116335828D01*
X169928511Y-116135950D01*
X169693479Y-115978907D01*
X169432326Y-115870734D01*
X169158053Y-115816177D01*
X169313416Y-115583660D01*
X169421589Y-115322507D01*
X169476736Y-115045268D01*
X169476736Y-114762598D01*
X169421589Y-114485359D01*
X169313416Y-114224206D01*
X169156373Y-113989174D01*
X168956495Y-113789296D01*
X168721463Y-113632253D01*
X168460310Y-113524080D01*
X168186037Y-113469523D01*
X168341400Y-113237006D01*
X168449573Y-112975853D01*
X168504720Y-112698614D01*
X168504720Y-112415944D01*
X168449573Y-112138705D01*
X168341400Y-111877552D01*
X168184357Y-111642520D01*
X167984479Y-111442642D01*
X167749447Y-111285599D01*
X167488294Y-111177426D01*
X167214021Y-111122869D01*
X167369384Y-110890352D01*
X167477557Y-110629199D01*
X167532704Y-110351960D01*
X167532704Y-110069290D01*
X167477557Y-109792051D01*
X167369384Y-109530898D01*
X167212341Y-109295866D01*
X167012463Y-109095988D01*
X166777431Y-108938945D01*
X166516278Y-108830772D01*
X166242005Y-108776215D01*
X166397368Y-108543698D01*
X166505541Y-108282545D01*
X166560688Y-108005306D01*
X166560688Y-107722636D01*
X166505541Y-107445397D01*
X166397368Y-107184244D01*
X166240325Y-106949212D01*
X166040447Y-106749334D01*
X165805415Y-106592291D01*
X165544262Y-106484118D01*
X165269989Y-106429561D01*
X165371715Y-106277317D01*
X167115016Y-106277317D01*
X172613514Y-111775816D01*
X177040001Y-120850114D01*
X177040000Y-125891448D01*
X175898220Y-127033229D01*
X175869935Y-127004944D01*
X175773244Y-126925592D01*
X175662930Y-126866627D01*
X175543232Y-126830317D01*
X175418750Y-126818057D01*
X175294268Y-126830317D01*
X175174570Y-126866627D01*
X175064256Y-126925592D01*
X174967565Y-127004944D01*
X173836194Y-128136315D01*
X173756842Y-128233006D01*
X173697877Y-128343320D01*
X173661567Y-128463018D01*
X173649307Y-128587500D01*
X173661567Y-128711982D01*
X173697877Y-128831680D01*
X173756842Y-128941994D01*
X173836194Y-129038685D01*
X174296378Y-129498869D01*
X160981822Y-135467463D01*
X160981822Y-134931250D01*
X160969562Y-134806768D01*
X160933252Y-134687070D01*
X160874287Y-134576756D01*
X160794935Y-134480065D01*
X160698244Y-134400713D01*
X160587930Y-134341748D01*
X160468232Y-134305438D01*
X160343750Y-134293178D01*
X158743750Y-134293178D01*
X158619268Y-134305438D01*
X158499570Y-134341748D01*
X158389256Y-134400713D01*
X158306187Y-134468885D01*
X154523950Y-130686648D01*
X153246373Y-127634656D01*
X155442860Y-127634656D01*
X155442860Y-127917326D01*
X155498007Y-128194565D01*
X155606180Y-128455718D01*
X155763223Y-128690750D01*
X155963101Y-128890628D01*
X156198133Y-129047671D01*
X156457613Y-129155151D01*
X156450132Y-129159150D01*
X156353441Y-129238503D01*
X156274089Y-129335194D01*
X156215124Y-129445508D01*
X156178814Y-129565206D01*
X156166554Y-129689688D01*
X156178814Y-129814170D01*
X156215124Y-129933867D01*
X156827417Y-131412074D01*
X156886381Y-131522389D01*
X156965734Y-131619080D01*
X157062425Y-131698432D01*
X157172739Y-131757397D01*
X157292437Y-131793707D01*
X157416919Y-131805967D01*
X157541401Y-131793707D01*
X157661098Y-131757397D01*
X159139305Y-131145104D01*
X159249620Y-131086140D01*
X159346311Y-131006787D01*
X159425663Y-130910096D01*
X159484628Y-130799782D01*
X159520938Y-130680084D01*
X159533198Y-130555602D01*
X159520938Y-130431120D01*
X159484628Y-130311423D01*
X158872335Y-128833216D01*
X158813371Y-128722901D01*
X158734018Y-128626210D01*
X158637327Y-128546858D01*
X158527013Y-128487893D01*
X158407315Y-128451583D01*
X158282833Y-128439323D01*
X158158351Y-128451583D01*
X158150233Y-128454046D01*
X158257713Y-128194565D01*
X158312860Y-127917326D01*
X158312860Y-127634656D01*
X158257713Y-127357417D01*
X158149540Y-127096264D01*
X157992497Y-126861232D01*
X157792619Y-126661354D01*
X157557587Y-126504311D01*
X157296434Y-126396138D01*
X157020545Y-126341260D01*
X157064167Y-126288107D01*
X157036939Y-126035315D01*
X156447118Y-125791003D01*
X156099593Y-125443478D01*
X155919985Y-125623086D01*
X155950440Y-125653541D01*
X155534531Y-126657633D01*
X155694028Y-126855637D01*
X155765305Y-126859150D01*
X155763223Y-126861232D01*
X155606180Y-127096264D01*
X155498007Y-127357417D01*
X155442860Y-127634656D01*
X153246373Y-127634656D01*
X152352732Y-125499848D01*
X154465627Y-125499848D01*
X154507056Y-125779466D01*
X154602240Y-126045629D01*
X154747522Y-126288107D01*
X154937317Y-126497584D01*
X155047074Y-126587660D01*
X155299866Y-126560432D01*
X155739911Y-125498069D01*
X154677548Y-125058024D01*
X154479544Y-125217521D01*
X154465627Y-125499848D01*
X152352732Y-125499848D01*
X151855066Y-124310979D01*
X154562515Y-124310979D01*
X154722012Y-124508983D01*
X154795105Y-124512586D01*
X154747521Y-124570567D01*
X154774749Y-124823359D01*
X155364570Y-125067671D01*
X155712095Y-125415196D01*
X155766686Y-125360605D01*
X156071777Y-125360605D01*
X157134140Y-125800650D01*
X157332144Y-125641153D01*
X157346061Y-125358826D01*
X157304632Y-125079208D01*
X157209448Y-124813045D01*
X157064166Y-124570567D01*
X156874371Y-124361090D01*
X156764614Y-124271014D01*
X156511822Y-124298242D01*
X156071777Y-125360605D01*
X155766686Y-125360605D01*
X155891703Y-125235588D01*
X155861248Y-125205133D01*
X156277157Y-124201041D01*
X156235410Y-124149214D01*
X170494800Y-124149214D01*
X170494800Y-124431884D01*
X170549947Y-124709123D01*
X170658120Y-124970276D01*
X170815163Y-125205308D01*
X171015041Y-125405186D01*
X171250073Y-125562229D01*
X171511226Y-125670402D01*
X171788465Y-125725549D01*
X172071135Y-125725549D01*
X172348374Y-125670402D01*
X172609527Y-125562229D01*
X172844559Y-125405186D01*
X173044437Y-125205308D01*
X173201480Y-124970276D01*
X173309653Y-124709123D01*
X173364800Y-124431884D01*
X173364800Y-124149214D01*
X173309653Y-123871975D01*
X173201480Y-123610822D01*
X173044437Y-123375790D01*
X172844559Y-123175912D01*
X172609527Y-123018869D01*
X172348374Y-122910696D01*
X172072485Y-122855818D01*
X172116107Y-122802665D01*
X172088879Y-122549873D01*
X171565884Y-122333241D01*
X173224280Y-122333241D01*
X173494578Y-122993826D01*
X173553542Y-123104141D01*
X173632895Y-123200832D01*
X173729587Y-123280184D01*
X173839900Y-123339148D01*
X173959598Y-123375458D01*
X174084080Y-123387719D01*
X174208561Y-123375459D01*
X174328259Y-123339148D01*
X174986494Y-123063174D01*
X175072409Y-122855757D01*
X174556268Y-121609683D01*
X173310195Y-122125824D01*
X173224280Y-122333241D01*
X171565884Y-122333241D01*
X171499058Y-122305561D01*
X171151533Y-121958036D01*
X170971925Y-122137644D01*
X171002380Y-122168099D01*
X170586471Y-123172191D01*
X170745968Y-123370195D01*
X170817245Y-123373708D01*
X170815163Y-123375790D01*
X170658120Y-123610822D01*
X170549947Y-123871975D01*
X170494800Y-124149214D01*
X156235410Y-124149214D01*
X156117660Y-124003037D01*
X156044567Y-123999434D01*
X156092151Y-123941453D01*
X156064923Y-123688661D01*
X155475102Y-123444349D01*
X155127577Y-123096824D01*
X154947969Y-123276432D01*
X154978424Y-123306887D01*
X154562515Y-124310979D01*
X151855066Y-124310979D01*
X151370411Y-123153194D01*
X153493611Y-123153194D01*
X153535040Y-123432812D01*
X153630224Y-123698975D01*
X153775506Y-123941453D01*
X153965301Y-124150930D01*
X154075058Y-124241006D01*
X154327850Y-124213778D01*
X154767895Y-123151415D01*
X153705532Y-122711370D01*
X153507528Y-122870867D01*
X153493611Y-123153194D01*
X151370411Y-123153194D01*
X151005765Y-122282096D01*
X151005765Y-117060102D01*
X151103021Y-117157358D01*
X151338053Y-117314401D01*
X151599206Y-117422574D01*
X151873479Y-117477131D01*
X151718116Y-117709648D01*
X151609943Y-117970801D01*
X151554796Y-118248040D01*
X151554796Y-118530710D01*
X151609943Y-118807949D01*
X151718116Y-119069102D01*
X151875159Y-119304134D01*
X152075037Y-119504012D01*
X152310069Y-119661055D01*
X152571222Y-119769228D01*
X152845495Y-119823785D01*
X152690132Y-120056302D01*
X152581959Y-120317455D01*
X152526812Y-120594694D01*
X152526812Y-120877364D01*
X152581959Y-121154603D01*
X152690132Y-121415756D01*
X152847175Y-121650788D01*
X153047053Y-121850666D01*
X153282085Y-122007709D01*
X153543238Y-122115882D01*
X153819127Y-122170760D01*
X153775505Y-122223913D01*
X153802733Y-122476705D01*
X154392554Y-122721017D01*
X154740079Y-123068542D01*
X154794670Y-123013951D01*
X155099761Y-123013951D01*
X156162124Y-123453996D01*
X156360128Y-123294499D01*
X156374045Y-123012172D01*
X156332616Y-122732554D01*
X156237432Y-122466391D01*
X156092150Y-122223913D01*
X155902355Y-122014436D01*
X155902319Y-122014406D01*
X169517567Y-122014406D01*
X169558996Y-122294024D01*
X169654180Y-122560187D01*
X169799462Y-122802665D01*
X169989257Y-123012142D01*
X170099014Y-123102218D01*
X170351806Y-123074990D01*
X170791851Y-122012627D01*
X169729488Y-121572582D01*
X169531484Y-121732079D01*
X169517567Y-122014406D01*
X155902319Y-122014406D01*
X155792598Y-121924360D01*
X155539806Y-121951588D01*
X155099761Y-123013951D01*
X154794670Y-123013951D01*
X154919687Y-122888934D01*
X154889232Y-122858479D01*
X155305141Y-121854387D01*
X155145644Y-121656383D01*
X155074367Y-121652870D01*
X155076449Y-121650788D01*
X155233492Y-121415756D01*
X155341665Y-121154603D01*
X155396812Y-120877364D01*
X155396812Y-120594694D01*
X155341665Y-120317455D01*
X155233492Y-120056302D01*
X155076449Y-119821270D01*
X154876571Y-119621392D01*
X154641539Y-119464349D01*
X154380386Y-119356176D01*
X154106113Y-119301619D01*
X154261476Y-119069102D01*
X154369649Y-118807949D01*
X154424796Y-118530710D01*
X154424796Y-118248040D01*
X154369649Y-117970801D01*
X154261476Y-117709648D01*
X154104433Y-117474616D01*
X153904555Y-117274738D01*
X153669523Y-117117695D01*
X153408370Y-117009522D01*
X153134097Y-116954965D01*
X153289460Y-116722448D01*
X153397633Y-116461295D01*
X153452780Y-116184056D01*
X153452780Y-115901386D01*
X153397633Y-115624147D01*
X153289460Y-115362994D01*
X153132417Y-115127962D01*
X152932539Y-114928084D01*
X152697507Y-114771041D01*
X152436354Y-114662868D01*
X152162081Y-114608311D01*
X152317444Y-114375794D01*
X152425617Y-114114641D01*
X152480764Y-113837402D01*
X152480764Y-113554732D01*
X152425617Y-113277493D01*
X152317444Y-113016340D01*
X152160401Y-112781308D01*
X151960523Y-112581430D01*
X151725491Y-112424387D01*
X151464338Y-112316214D01*
X151190065Y-112261657D01*
X151345428Y-112029140D01*
X151453601Y-111767987D01*
X151508748Y-111490748D01*
X151508748Y-111208078D01*
X151453601Y-110930839D01*
X151345428Y-110669686D01*
X151188385Y-110434654D01*
X150988507Y-110234776D01*
X150753475Y-110077733D01*
X150492322Y-109969560D01*
X150218049Y-109915003D01*
X150373412Y-109682486D01*
X150481585Y-109421333D01*
X150536732Y-109144094D01*
X150536732Y-108861424D01*
X150481585Y-108584185D01*
X150373412Y-108323032D01*
X150216369Y-108088000D01*
X150016491Y-107888122D01*
X149781459Y-107731079D01*
X149520306Y-107622906D01*
X149246033Y-107568349D01*
X149401396Y-107335832D01*
X149509569Y-107074679D01*
X149564716Y-106797440D01*
X149564716Y-106514770D01*
X149509569Y-106237531D01*
X149401396Y-105976378D01*
X149244353Y-105741346D01*
X149044475Y-105541468D01*
X148809443Y-105384425D01*
X148548290Y-105276252D01*
X148274017Y-105221695D01*
X148429380Y-104989178D01*
X148537553Y-104728025D01*
X148592700Y-104450786D01*
X148592700Y-104168116D01*
X148537553Y-103890877D01*
X148429380Y-103629724D01*
X148272337Y-103394692D01*
X148072459Y-103194814D01*
X147917700Y-103091408D01*
X147917700Y-101191948D01*
X158783751Y-96594773D01*
X158783751Y-96746149D01*
G37*
X158783751Y-96746149D02*
X158780074Y-96783481D01*
X158794748Y-96932466D01*
X158838204Y-97075727D01*
X158908776Y-97207757D01*
X158979951Y-97294483D01*
X159003750Y-97323482D01*
X159032748Y-97347280D01*
X159838936Y-98153469D01*
X159802624Y-98336020D01*
X159802624Y-98618690D01*
X159857771Y-98895929D01*
X159965944Y-99157082D01*
X160122987Y-99392114D01*
X160322865Y-99591992D01*
X160557897Y-99749035D01*
X160819050Y-99857208D01*
X161093323Y-99911765D01*
X160937960Y-100144282D01*
X160829787Y-100405435D01*
X160774640Y-100682674D01*
X160774640Y-100965344D01*
X160829787Y-101242583D01*
X160937960Y-101503736D01*
X161095003Y-101738768D01*
X161294881Y-101938646D01*
X161529913Y-102095689D01*
X161791066Y-102203862D01*
X162065339Y-102258419D01*
X161909976Y-102490936D01*
X161801803Y-102752089D01*
X161746656Y-103029328D01*
X161746656Y-103311998D01*
X161801803Y-103589237D01*
X161909976Y-103850390D01*
X162067019Y-104085422D01*
X162266897Y-104285300D01*
X162501929Y-104442343D01*
X162763082Y-104550516D01*
X163037355Y-104605073D01*
X162881992Y-104837590D01*
X162773819Y-105098743D01*
X162718672Y-105375982D01*
X162718672Y-105658652D01*
X162773819Y-105935891D01*
X162881992Y-106197044D01*
X163039035Y-106432076D01*
X163238913Y-106631954D01*
X163473945Y-106788997D01*
X163735098Y-106897170D01*
X164009371Y-106951727D01*
X163854008Y-107184244D01*
X163745835Y-107445397D01*
X163690688Y-107722636D01*
X163690688Y-108005306D01*
X163745835Y-108282545D01*
X163854008Y-108543698D01*
X164011051Y-108778730D01*
X164210929Y-108978608D01*
X164445961Y-109135651D01*
X164707114Y-109243824D01*
X164981387Y-109298381D01*
X164826024Y-109530898D01*
X164717851Y-109792051D01*
X164662704Y-110069290D01*
X164662704Y-110351960D01*
X164717851Y-110629199D01*
X164826024Y-110890352D01*
X164983067Y-111125384D01*
X165182945Y-111325262D01*
X165417977Y-111482305D01*
X165679130Y-111590478D01*
X165953403Y-111645035D01*
X165798040Y-111877552D01*
X165689867Y-112138705D01*
X165634720Y-112415944D01*
X165634720Y-112698614D01*
X165689867Y-112975853D01*
X165798040Y-113237006D01*
X165955083Y-113472038D01*
X166154961Y-113671916D01*
X166389993Y-113828959D01*
X166651146Y-113937132D01*
X166925419Y-113991689D01*
X166770056Y-114224206D01*
X166661883Y-114485359D01*
X166606736Y-114762598D01*
X166606736Y-115045268D01*
X166661883Y-115322507D01*
X166770056Y-115583660D01*
X166927099Y-115818692D01*
X167126977Y-116018570D01*
X167362009Y-116175613D01*
X167623162Y-116283786D01*
X167897435Y-116338343D01*
X167742072Y-116570860D01*
X167633899Y-116832013D01*
X167578752Y-117109252D01*
X167578752Y-117391922D01*
X167633899Y-117669161D01*
X167742072Y-117930314D01*
X167899115Y-118165346D01*
X168098993Y-118365224D01*
X168334025Y-118522267D01*
X168595178Y-118630440D01*
X168869451Y-118684997D01*
X168714088Y-118917514D01*
X168605915Y-119178667D01*
X168550768Y-119455906D01*
X168550768Y-119738576D01*
X168605915Y-120015815D01*
X168714088Y-120276968D01*
X168871131Y-120512000D01*
X169071009Y-120711878D01*
X169306041Y-120868921D01*
X169567194Y-120977094D01*
X169843083Y-121031972D01*
X169799461Y-121085125D01*
X169826689Y-121337917D01*
X170416510Y-121582229D01*
X170764035Y-121929754D01*
X170818626Y-121875163D01*
X171123717Y-121875163D01*
X172186080Y-122315208D01*
X172384084Y-122155711D01*
X172398001Y-121873384D01*
X172356572Y-121593766D01*
X172261388Y-121327603D01*
X172116106Y-121085125D01*
X171950940Y-120902830D01*
X172681031Y-120902830D01*
X172693291Y-121027311D01*
X172729602Y-121147009D01*
X173005576Y-121805244D01*
X173212993Y-121891159D01*
X174127199Y-121512482D01*
X174790933Y-121512482D01*
X175307074Y-122758555D01*
X175514491Y-122844470D01*
X176175076Y-122574172D01*
X176285391Y-122515208D01*
X176382082Y-122435855D01*
X176461434Y-122339163D01*
X176520398Y-122228850D01*
X176556708Y-122109152D01*
X176568969Y-121984670D01*
X176556709Y-121860189D01*
X176520398Y-121740491D01*
X176244424Y-121082256D01*
X176037007Y-120996341D01*
X174790933Y-121512482D01*
X174127199Y-121512482D01*
X174459067Y-121375018D01*
X173942926Y-120128945D01*
X173735509Y-120043030D01*
X173074924Y-120313328D01*
X172964609Y-120372292D01*
X172867918Y-120451645D01*
X172788566Y-120548337D01*
X172729602Y-120658650D01*
X172693292Y-120778348D01*
X172681031Y-120902830D01*
X171950940Y-120902830D01*
X171926311Y-120875648D01*
X171816554Y-120785572D01*
X171563762Y-120812800D01*
X171123717Y-121875163D01*
X170818626Y-121875163D01*
X170943643Y-121750146D01*
X170913188Y-121719691D01*
X171329097Y-120715599D01*
X171169600Y-120517595D01*
X171098323Y-120514082D01*
X171100405Y-120512000D01*
X171203811Y-120357241D01*
X171456182Y-120357241D01*
X171493504Y-120360917D01*
X171530826Y-120357241D01*
X171530837Y-120357241D01*
X171642490Y-120346244D01*
X171785751Y-120302787D01*
X171917780Y-120232215D01*
X172033505Y-120137242D01*
X172057308Y-120108238D01*
X172133803Y-120031743D01*
X174177591Y-120031743D01*
X174693732Y-121277817D01*
X175939805Y-120761676D01*
X176025720Y-120554259D01*
X175755422Y-119893674D01*
X175696458Y-119783359D01*
X175617105Y-119686668D01*
X175520413Y-119607316D01*
X175410100Y-119548352D01*
X175290402Y-119512042D01*
X175165920Y-119499781D01*
X175041439Y-119512041D01*
X174921741Y-119548352D01*
X174263506Y-119824326D01*
X174177591Y-120031743D01*
X172133803Y-120031743D01*
X172675991Y-119489556D01*
X172690213Y-119495447D01*
X173005993Y-119558259D01*
X173327959Y-119558259D01*
X173643739Y-119495447D01*
X173941198Y-119372236D01*
X174208903Y-119193361D01*
X174436568Y-118965696D01*
X174615443Y-118697991D01*
X174738654Y-118400532D01*
X174801466Y-118084752D01*
X174801466Y-117762786D01*
X174738654Y-117447006D01*
X174615443Y-117149547D01*
X174436568Y-116881842D01*
X174208903Y-116654177D01*
X173941198Y-116475302D01*
X173643739Y-116352091D01*
X173327959Y-116289279D01*
X173005993Y-116289279D01*
X172690213Y-116352091D01*
X172392754Y-116475302D01*
X172125049Y-116654177D01*
X171897384Y-116881842D01*
X171718509Y-117149547D01*
X171595298Y-117447006D01*
X171532486Y-117762786D01*
X171532486Y-118084752D01*
X171595298Y-118400532D01*
X171601189Y-118414754D01*
X171193754Y-118822189D01*
X171100405Y-118682482D01*
X170900527Y-118482604D01*
X170665495Y-118325561D01*
X170404342Y-118217388D01*
X170130069Y-118162831D01*
X170285432Y-117930314D01*
X170393605Y-117669161D01*
X170448752Y-117391922D01*
X170448752Y-117109252D01*
X170393605Y-116832013D01*
X170285432Y-116570860D01*
X170128389Y-116335828D01*
X169928511Y-116135950D01*
X169693479Y-115978907D01*
X169432326Y-115870734D01*
X169158053Y-115816177D01*
X169313416Y-115583660D01*
X169421589Y-115322507D01*
X169476736Y-115045268D01*
X169476736Y-114762598D01*
X169421589Y-114485359D01*
X169313416Y-114224206D01*
X169156373Y-113989174D01*
X168956495Y-113789296D01*
X168721463Y-113632253D01*
X168460310Y-113524080D01*
X168186037Y-113469523D01*
X168341400Y-113237006D01*
X168449573Y-112975853D01*
X168504720Y-112698614D01*
X168504720Y-112415944D01*
X168449573Y-112138705D01*
X168341400Y-111877552D01*
X168184357Y-111642520D01*
X167984479Y-111442642D01*
X167749447Y-111285599D01*
X167488294Y-111177426D01*
X167214021Y-111122869D01*
X167369384Y-110890352D01*
X167477557Y-110629199D01*
X167532704Y-110351960D01*
X167532704Y-110069290D01*
X167477557Y-109792051D01*
X167369384Y-109530898D01*
X167212341Y-109295866D01*
X167012463Y-109095988D01*
X166777431Y-108938945D01*
X166516278Y-108830772D01*
X166242005Y-108776215D01*
X166397368Y-108543698D01*
X166505541Y-108282545D01*
X166560688Y-108005306D01*
X166560688Y-107722636D01*
X166505541Y-107445397D01*
X166397368Y-107184244D01*
X166240325Y-106949212D01*
X166040447Y-106749334D01*
X165805415Y-106592291D01*
X165544262Y-106484118D01*
X165269989Y-106429561D01*
X165371715Y-106277317D01*
X167115016Y-106277317D01*
X172613514Y-111775816D01*
X177040001Y-120850114D01*
X177040000Y-125891448D01*
X175898220Y-127033229D01*
X175869935Y-127004944D01*
X175773244Y-126925592D01*
X175662930Y-126866627D01*
X175543232Y-126830317D01*
X175418750Y-126818057D01*
X175294268Y-126830317D01*
X175174570Y-126866627D01*
X175064256Y-126925592D01*
X174967565Y-127004944D01*
X173836194Y-128136315D01*
X173756842Y-128233006D01*
X173697877Y-128343320D01*
X173661567Y-128463018D01*
X173649307Y-128587500D01*
X173661567Y-128711982D01*
X173697877Y-128831680D01*
X173756842Y-128941994D01*
X173836194Y-129038685D01*
X174296378Y-129498869D01*
X160981822Y-135467463D01*
X160981822Y-134931250D01*
X160969562Y-134806768D01*
X160933252Y-134687070D01*
X160874287Y-134576756D01*
X160794935Y-134480065D01*
X160698244Y-134400713D01*
X160587930Y-134341748D01*
X160468232Y-134305438D01*
X160343750Y-134293178D01*
X158743750Y-134293178D01*
X158619268Y-134305438D01*
X158499570Y-134341748D01*
X158389256Y-134400713D01*
X158306187Y-134468885D01*
X154523950Y-130686648D01*
X153246373Y-127634656D01*
X155442860Y-127634656D01*
X155442860Y-127917326D01*
X155498007Y-128194565D01*
X155606180Y-128455718D01*
X155763223Y-128690750D01*
X155963101Y-128890628D01*
X156198133Y-129047671D01*
X156457613Y-129155151D01*
X156450132Y-129159150D01*
X156353441Y-129238503D01*
X156274089Y-129335194D01*
X156215124Y-129445508D01*
X156178814Y-129565206D01*
X156166554Y-129689688D01*
X156178814Y-129814170D01*
X156215124Y-129933867D01*
X156827417Y-131412074D01*
X156886381Y-131522389D01*
X156965734Y-131619080D01*
X157062425Y-131698432D01*
X157172739Y-131757397D01*
X157292437Y-131793707D01*
X157416919Y-131805967D01*
X157541401Y-131793707D01*
X157661098Y-131757397D01*
X159139305Y-131145104D01*
X159249620Y-131086140D01*
X159346311Y-131006787D01*
X159425663Y-130910096D01*
X159484628Y-130799782D01*
X159520938Y-130680084D01*
X159533198Y-130555602D01*
X159520938Y-130431120D01*
X159484628Y-130311423D01*
X158872335Y-128833216D01*
X158813371Y-128722901D01*
X158734018Y-128626210D01*
X158637327Y-128546858D01*
X158527013Y-128487893D01*
X158407315Y-128451583D01*
X158282833Y-128439323D01*
X158158351Y-128451583D01*
X158150233Y-128454046D01*
X158257713Y-128194565D01*
X158312860Y-127917326D01*
X158312860Y-127634656D01*
X158257713Y-127357417D01*
X158149540Y-127096264D01*
X157992497Y-126861232D01*
X157792619Y-126661354D01*
X157557587Y-126504311D01*
X157296434Y-126396138D01*
X157020545Y-126341260D01*
X157064167Y-126288107D01*
X157036939Y-126035315D01*
X156447118Y-125791003D01*
X156099593Y-125443478D01*
X155919985Y-125623086D01*
X155950440Y-125653541D01*
X155534531Y-126657633D01*
X155694028Y-126855637D01*
X155765305Y-126859150D01*
X155763223Y-126861232D01*
X155606180Y-127096264D01*
X155498007Y-127357417D01*
X155442860Y-127634656D01*
X153246373Y-127634656D01*
X152352732Y-125499848D01*
X154465627Y-125499848D01*
X154507056Y-125779466D01*
X154602240Y-126045629D01*
X154747522Y-126288107D01*
X154937317Y-126497584D01*
X155047074Y-126587660D01*
X155299866Y-126560432D01*
X155739911Y-125498069D01*
X154677548Y-125058024D01*
X154479544Y-125217521D01*
X154465627Y-125499848D01*
X152352732Y-125499848D01*
X151855066Y-124310979D01*
X154562515Y-124310979D01*
X154722012Y-124508983D01*
X154795105Y-124512586D01*
X154747521Y-124570567D01*
X154774749Y-124823359D01*
X155364570Y-125067671D01*
X155712095Y-125415196D01*
X155766686Y-125360605D01*
X156071777Y-125360605D01*
X157134140Y-125800650D01*
X157332144Y-125641153D01*
X157346061Y-125358826D01*
X157304632Y-125079208D01*
X157209448Y-124813045D01*
X157064166Y-124570567D01*
X156874371Y-124361090D01*
X156764614Y-124271014D01*
X156511822Y-124298242D01*
X156071777Y-125360605D01*
X155766686Y-125360605D01*
X155891703Y-125235588D01*
X155861248Y-125205133D01*
X156277157Y-124201041D01*
X156235410Y-124149214D01*
X170494800Y-124149214D01*
X170494800Y-124431884D01*
X170549947Y-124709123D01*
X170658120Y-124970276D01*
X170815163Y-125205308D01*
X171015041Y-125405186D01*
X171250073Y-125562229D01*
X171511226Y-125670402D01*
X171788465Y-125725549D01*
X172071135Y-125725549D01*
X172348374Y-125670402D01*
X172609527Y-125562229D01*
X172844559Y-125405186D01*
X173044437Y-125205308D01*
X173201480Y-124970276D01*
X173309653Y-124709123D01*
X173364800Y-124431884D01*
X173364800Y-124149214D01*
X173309653Y-123871975D01*
X173201480Y-123610822D01*
X173044437Y-123375790D01*
X172844559Y-123175912D01*
X172609527Y-123018869D01*
X172348374Y-122910696D01*
X172072485Y-122855818D01*
X172116107Y-122802665D01*
X172088879Y-122549873D01*
X171565884Y-122333241D01*
X173224280Y-122333241D01*
X173494578Y-122993826D01*
X173553542Y-123104141D01*
X173632895Y-123200832D01*
X173729587Y-123280184D01*
X173839900Y-123339148D01*
X173959598Y-123375458D01*
X174084080Y-123387719D01*
X174208561Y-123375459D01*
X174328259Y-123339148D01*
X174986494Y-123063174D01*
X175072409Y-122855757D01*
X174556268Y-121609683D01*
X173310195Y-122125824D01*
X173224280Y-122333241D01*
X171565884Y-122333241D01*
X171499058Y-122305561D01*
X171151533Y-121958036D01*
X170971925Y-122137644D01*
X171002380Y-122168099D01*
X170586471Y-123172191D01*
X170745968Y-123370195D01*
X170817245Y-123373708D01*
X170815163Y-123375790D01*
X170658120Y-123610822D01*
X170549947Y-123871975D01*
X170494800Y-124149214D01*
X156235410Y-124149214D01*
X156117660Y-124003037D01*
X156044567Y-123999434D01*
X156092151Y-123941453D01*
X156064923Y-123688661D01*
X155475102Y-123444349D01*
X155127577Y-123096824D01*
X154947969Y-123276432D01*
X154978424Y-123306887D01*
X154562515Y-124310979D01*
X151855066Y-124310979D01*
X151370411Y-123153194D01*
X153493611Y-123153194D01*
X153535040Y-123432812D01*
X153630224Y-123698975D01*
X153775506Y-123941453D01*
X153965301Y-124150930D01*
X154075058Y-124241006D01*
X154327850Y-124213778D01*
X154767895Y-123151415D01*
X153705532Y-122711370D01*
X153507528Y-122870867D01*
X153493611Y-123153194D01*
X151370411Y-123153194D01*
X151005765Y-122282096D01*
X151005765Y-117060102D01*
X151103021Y-117157358D01*
X151338053Y-117314401D01*
X151599206Y-117422574D01*
X151873479Y-117477131D01*
X151718116Y-117709648D01*
X151609943Y-117970801D01*
X151554796Y-118248040D01*
X151554796Y-118530710D01*
X151609943Y-118807949D01*
X151718116Y-119069102D01*
X151875159Y-119304134D01*
X152075037Y-119504012D01*
X152310069Y-119661055D01*
X152571222Y-119769228D01*
X152845495Y-119823785D01*
X152690132Y-120056302D01*
X152581959Y-120317455D01*
X152526812Y-120594694D01*
X152526812Y-120877364D01*
X152581959Y-121154603D01*
X152690132Y-121415756D01*
X152847175Y-121650788D01*
X153047053Y-121850666D01*
X153282085Y-122007709D01*
X153543238Y-122115882D01*
X153819127Y-122170760D01*
X153775505Y-122223913D01*
X153802733Y-122476705D01*
X154392554Y-122721017D01*
X154740079Y-123068542D01*
X154794670Y-123013951D01*
X155099761Y-123013951D01*
X156162124Y-123453996D01*
X156360128Y-123294499D01*
X156374045Y-123012172D01*
X156332616Y-122732554D01*
X156237432Y-122466391D01*
X156092150Y-122223913D01*
X155902355Y-122014436D01*
X155902319Y-122014406D01*
X169517567Y-122014406D01*
X169558996Y-122294024D01*
X169654180Y-122560187D01*
X169799462Y-122802665D01*
X169989257Y-123012142D01*
X170099014Y-123102218D01*
X170351806Y-123074990D01*
X170791851Y-122012627D01*
X169729488Y-121572582D01*
X169531484Y-121732079D01*
X169517567Y-122014406D01*
X155902319Y-122014406D01*
X155792598Y-121924360D01*
X155539806Y-121951588D01*
X155099761Y-123013951D01*
X154794670Y-123013951D01*
X154919687Y-122888934D01*
X154889232Y-122858479D01*
X155305141Y-121854387D01*
X155145644Y-121656383D01*
X155074367Y-121652870D01*
X155076449Y-121650788D01*
X155233492Y-121415756D01*
X155341665Y-121154603D01*
X155396812Y-120877364D01*
X155396812Y-120594694D01*
X155341665Y-120317455D01*
X155233492Y-120056302D01*
X155076449Y-119821270D01*
X154876571Y-119621392D01*
X154641539Y-119464349D01*
X154380386Y-119356176D01*
X154106113Y-119301619D01*
X154261476Y-119069102D01*
X154369649Y-118807949D01*
X154424796Y-118530710D01*
X154424796Y-118248040D01*
X154369649Y-117970801D01*
X154261476Y-117709648D01*
X154104433Y-117474616D01*
X153904555Y-117274738D01*
X153669523Y-117117695D01*
X153408370Y-117009522D01*
X153134097Y-116954965D01*
X153289460Y-116722448D01*
X153397633Y-116461295D01*
X153452780Y-116184056D01*
X153452780Y-115901386D01*
X153397633Y-115624147D01*
X153289460Y-115362994D01*
X153132417Y-115127962D01*
X152932539Y-114928084D01*
X152697507Y-114771041D01*
X152436354Y-114662868D01*
X152162081Y-114608311D01*
X152317444Y-114375794D01*
X152425617Y-114114641D01*
X152480764Y-113837402D01*
X152480764Y-113554732D01*
X152425617Y-113277493D01*
X152317444Y-113016340D01*
X152160401Y-112781308D01*
X151960523Y-112581430D01*
X151725491Y-112424387D01*
X151464338Y-112316214D01*
X151190065Y-112261657D01*
X151345428Y-112029140D01*
X151453601Y-111767987D01*
X151508748Y-111490748D01*
X151508748Y-111208078D01*
X151453601Y-110930839D01*
X151345428Y-110669686D01*
X151188385Y-110434654D01*
X150988507Y-110234776D01*
X150753475Y-110077733D01*
X150492322Y-109969560D01*
X150218049Y-109915003D01*
X150373412Y-109682486D01*
X150481585Y-109421333D01*
X150536732Y-109144094D01*
X150536732Y-108861424D01*
X150481585Y-108584185D01*
X150373412Y-108323032D01*
X150216369Y-108088000D01*
X150016491Y-107888122D01*
X149781459Y-107731079D01*
X149520306Y-107622906D01*
X149246033Y-107568349D01*
X149401396Y-107335832D01*
X149509569Y-107074679D01*
X149564716Y-106797440D01*
X149564716Y-106514770D01*
X149509569Y-106237531D01*
X149401396Y-105976378D01*
X149244353Y-105741346D01*
X149044475Y-105541468D01*
X148809443Y-105384425D01*
X148548290Y-105276252D01*
X148274017Y-105221695D01*
X148429380Y-104989178D01*
X148537553Y-104728025D01*
X148592700Y-104450786D01*
X148592700Y-104168116D01*
X148537553Y-103890877D01*
X148429380Y-103629724D01*
X148272337Y-103394692D01*
X148072459Y-103194814D01*
X147917700Y-103091408D01*
X147917700Y-101191948D01*
X158783751Y-96594773D01*
X158783751Y-96746149D01*
M02*
