G04 #@! TF.GenerationSoftware,KiCad,Pcbnew,(5.1.5)-3*
G04 #@! TF.CreationDate,2020-04-20T09:44:32-04:00*
G04 #@! TF.ProjectId,OctoPad,4f63746f-5061-4642-9e6b-696361645f70,rev?*
G04 #@! TF.SameCoordinates,Original*
G04 #@! TF.FileFunction,Legend,Top*
G04 #@! TF.FilePolarity,Positive*
%FSLAX46Y46*%
G04 Gerber Fmt 4.6, Leading zero omitted, Abs format (unit mm)*
G04 Created by KiCad (PCBNEW (5.1.5)-3) date 2020-04-20 09:44:32*
%MOMM*%
%LPD*%
G04 APERTURE LIST*
%ADD10C,0.300000*%
%ADD11C,0.120000*%
%ADD12C,0.150000*%
G04 APERTURE END LIST*
D10*
X182303427Y-104729060D02*
X181852809Y-104761085D01*
X181666157Y-104683771D01*
X181424836Y-104474474D01*
X181260829Y-104078526D01*
X181283474Y-103759891D01*
X181360788Y-103573239D01*
X181570084Y-103331918D01*
X182625946Y-102894566D01*
X183773997Y-105666205D01*
X182850117Y-106048888D01*
X182531483Y-106026243D01*
X182344831Y-105948930D01*
X182103510Y-105739633D01*
X181994172Y-105475668D01*
X182016816Y-105157033D01*
X182094130Y-104970381D01*
X182303427Y-104729060D01*
X183227306Y-104346377D01*
X179458359Y-104206623D02*
X179776994Y-104229268D01*
X179963646Y-104306582D01*
X180204967Y-104515878D01*
X180532981Y-105307775D01*
X180510337Y-105626410D01*
X180433023Y-105813062D01*
X180223726Y-106054383D01*
X179827778Y-106218390D01*
X179509143Y-106195745D01*
X179322491Y-106118431D01*
X179081171Y-105909135D01*
X178753156Y-105117238D01*
X178775801Y-104798603D01*
X178853115Y-104611952D01*
X179062411Y-104370631D01*
X179458359Y-104206623D01*
X176158790Y-105573350D02*
X176760149Y-107025161D01*
X177001470Y-107234457D01*
X177320105Y-107257102D01*
X177848036Y-107038426D01*
X178057333Y-106797105D01*
X176213459Y-105705333D02*
X176422755Y-105464012D01*
X177082669Y-105190667D01*
X177401304Y-105213311D01*
X177642625Y-105422608D01*
X177751963Y-105686573D01*
X177729318Y-106005208D01*
X177520022Y-106246529D01*
X176860108Y-106519874D01*
X176650811Y-106761195D01*
X174838962Y-106120041D02*
X175604329Y-107967800D01*
X175385652Y-107439869D02*
X175363008Y-107758503D01*
X175285694Y-107945155D01*
X175076397Y-108186476D01*
X174812432Y-108295814D01*
X171935340Y-107322760D02*
X173083391Y-110094399D01*
X171990009Y-107454743D02*
X172199306Y-107213422D01*
X172727237Y-106994746D01*
X173045872Y-107017390D01*
X173232524Y-107094704D01*
X173473845Y-107304001D01*
X173801859Y-108095897D01*
X173779214Y-108414532D01*
X173701901Y-108601184D01*
X173492604Y-108842505D01*
X172964673Y-109061181D01*
X172646038Y-109038536D01*
X178823447Y-101371529D02*
X179206131Y-102295409D01*
X179096792Y-102031443D02*
X179085470Y-102190760D01*
X179046813Y-102284086D01*
X178942165Y-102404747D01*
X178810182Y-102459416D01*
X177464962Y-102011546D02*
X177569611Y-101890885D01*
X177833576Y-101781547D01*
X177992894Y-101792869D01*
X178113554Y-101897518D01*
X178332230Y-102425449D01*
X178320908Y-102584766D01*
X178216260Y-102705427D01*
X177952294Y-102814765D01*
X177792977Y-102803442D01*
X177672316Y-102698794D01*
X177617647Y-102566811D01*
X178222892Y-102161483D01*
X177292380Y-103088110D02*
X176579740Y-102300903D01*
X176632466Y-103361455D01*
X176307199Y-103882754D02*
X176268542Y-103976080D01*
X176163894Y-104096740D01*
X175833937Y-104233413D01*
X175674620Y-104222091D01*
X175581294Y-104183434D01*
X175460633Y-104078786D01*
X175405964Y-103946803D01*
X175389952Y-103721494D01*
X175853834Y-102601583D01*
X174995946Y-102956932D01*
X174456693Y-103334926D02*
X174363367Y-103296269D01*
X174402024Y-103202943D01*
X174495350Y-103241600D01*
X174456693Y-103334926D01*
X174402024Y-103202943D01*
X174052169Y-104971445D02*
X173920186Y-105026115D01*
X173760869Y-105014792D01*
X173667543Y-104976135D01*
X173546883Y-104871487D01*
X173371553Y-104634856D01*
X173234881Y-104304899D01*
X173191534Y-104013599D01*
X173202856Y-103854282D01*
X173241513Y-103760956D01*
X173346161Y-103640295D01*
X173478144Y-103585626D01*
X173637461Y-103596948D01*
X173730787Y-103635605D01*
X173851448Y-103740254D01*
X174026777Y-103976885D01*
X174163450Y-104306842D01*
X174206797Y-104598142D01*
X174195474Y-104757459D01*
X174156818Y-104850785D01*
X174052169Y-104971445D01*
X187482488Y-108812821D02*
X186954556Y-109031498D01*
X186635922Y-109008853D01*
X186262618Y-108854226D01*
X185911959Y-108380963D01*
X185529276Y-107457084D01*
X185442582Y-106874484D01*
X185597210Y-106501180D01*
X185806506Y-106259859D01*
X186334437Y-106041183D01*
X186653072Y-106063828D01*
X187026376Y-106218455D01*
X187377035Y-106691717D01*
X187759718Y-107615597D01*
X187846412Y-108198197D01*
X187691784Y-108571501D01*
X187482488Y-108812821D01*
X182825571Y-107649230D02*
X183034868Y-107407909D01*
X183562799Y-107189233D01*
X183881433Y-107211878D01*
X184068085Y-107289192D01*
X184309406Y-107498488D01*
X184637421Y-108290385D01*
X184614776Y-108609019D01*
X184537462Y-108795671D01*
X184328166Y-109036992D01*
X183800234Y-109255668D01*
X183481600Y-109233024D01*
X182744372Y-109693021D02*
X181688510Y-110130373D01*
X182731107Y-110780908D02*
X181747064Y-108405217D01*
X181505743Y-108195921D01*
X181187109Y-108173276D01*
X180923143Y-108282614D01*
X179603315Y-108829305D02*
X179921950Y-108851950D01*
X180108602Y-108929263D01*
X180349922Y-109138560D01*
X180677937Y-109930457D01*
X180655292Y-110249091D01*
X180577978Y-110435743D01*
X180368682Y-110677064D01*
X179972734Y-110841071D01*
X179654099Y-110818427D01*
X179467447Y-110741113D01*
X179226126Y-110531816D01*
X178898112Y-109739920D01*
X178920756Y-109421285D01*
X178998070Y-109234633D01*
X179207367Y-108993312D01*
X179603315Y-108829305D01*
D11*
X161925000Y-114300000D02*
G75*
G03X161925000Y-114300000I-2381250J0D01*
G01*
X189716692Y-114300000D02*
G75*
G03X189716692Y-114300000I-30172942J0D01*
G01*
D12*
X173589135Y-124977868D02*
X161924944Y-96818020D01*
X168895827Y-126921900D02*
X173589135Y-124977868D01*
X169867842Y-129268554D02*
X168895827Y-126921900D01*
X162827880Y-132184602D02*
X169867842Y-129268554D01*
X161855864Y-129837948D02*
X162827880Y-132184602D01*
X157162556Y-131781980D02*
X161855864Y-129837948D01*
X145498365Y-103622132D02*
X157162556Y-131781980D01*
X161924944Y-96818020D02*
X145498365Y-103622132D01*
D11*
X177829984Y-129414815D02*
X176246065Y-130998734D01*
X177999690Y-129584521D02*
X176415771Y-131168440D01*
X177914837Y-129499668D02*
X176330918Y-131083587D01*
X180071513Y-133240263D02*
X179611893Y-132780643D01*
X176154141Y-129322891D02*
X176613760Y-129782510D01*
X180403853Y-131988684D02*
X177405720Y-128990551D01*
X178819934Y-133572603D02*
X180403853Y-131988684D01*
X175821801Y-130574470D02*
X178819934Y-133572603D01*
X177405720Y-128990551D02*
X175821801Y-130574470D01*
X183265000Y-113180000D02*
X183265000Y-115420000D01*
X183505000Y-113180000D02*
X183505000Y-115420000D01*
X183385000Y-113180000D02*
X183385000Y-115420000D01*
X187555000Y-114300000D02*
X186905000Y-114300000D01*
X182015000Y-114300000D02*
X182665000Y-114300000D01*
X186905000Y-113180000D02*
X182665000Y-113180000D01*
X186905000Y-115420000D02*
X186905000Y-113180000D01*
X182665000Y-115420000D02*
X186905000Y-115420000D01*
X182665000Y-113180000D02*
X182665000Y-115420000D01*
X175452315Y-96807516D02*
X177036234Y-98391435D01*
X175622021Y-96637810D02*
X177205940Y-98221729D01*
X175537168Y-96722663D02*
X177121087Y-98306582D01*
X179277763Y-94565987D02*
X178818143Y-95025607D01*
X175360391Y-98483359D02*
X175820010Y-98023740D01*
X178026184Y-94233647D02*
X175028051Y-97231780D01*
X179610103Y-95817566D02*
X178026184Y-94233647D01*
X176611970Y-98815699D02*
X179610103Y-95817566D01*
X175028051Y-97231780D02*
X176611970Y-98815699D01*
X158423750Y-90578750D02*
X160663750Y-90578750D01*
X158423750Y-90338750D02*
X160663750Y-90338750D01*
X158423750Y-90458750D02*
X160663750Y-90458750D01*
X159543750Y-86288750D02*
X159543750Y-86938750D01*
X159543750Y-91828750D02*
X159543750Y-91178750D01*
X158423750Y-86938750D02*
X158423750Y-91178750D01*
X160663750Y-86938750D02*
X158423750Y-86938750D01*
X160663750Y-91178750D02*
X160663750Y-86938750D01*
X158423750Y-91178750D02*
X160663750Y-91178750D01*
X142051266Y-98391435D02*
X143635185Y-96807516D01*
X141881560Y-98221729D02*
X143465479Y-96637810D01*
X141966413Y-98306582D02*
X143550332Y-96722663D01*
X139809737Y-94565987D02*
X140269357Y-95025607D01*
X143727109Y-98483359D02*
X143267490Y-98023740D01*
X139477397Y-95817566D02*
X142475530Y-98815699D01*
X141061316Y-94233647D02*
X139477397Y-95817566D01*
X144059449Y-97231780D02*
X141061316Y-94233647D01*
X142475530Y-98815699D02*
X144059449Y-97231780D01*
X135822500Y-115420000D02*
X135822500Y-113180000D01*
X135582500Y-115420000D02*
X135582500Y-113180000D01*
X135702500Y-115420000D02*
X135702500Y-113180000D01*
X131532500Y-114300000D02*
X132182500Y-114300000D01*
X137072500Y-114300000D02*
X136422500Y-114300000D01*
X132182500Y-115420000D02*
X136422500Y-115420000D01*
X132182500Y-113180000D02*
X132182500Y-115420000D01*
X136422500Y-113180000D02*
X132182500Y-113180000D01*
X136422500Y-115420000D02*
X136422500Y-113180000D01*
X143635185Y-131792484D02*
X142051266Y-130208565D01*
X143465479Y-131962190D02*
X141881560Y-130378271D01*
X143550332Y-131877337D02*
X141966413Y-130293418D01*
X139809737Y-134034013D02*
X140269357Y-133574393D01*
X143727109Y-130116641D02*
X143267490Y-130576260D01*
X141061316Y-134366353D02*
X144059449Y-131368220D01*
X139477397Y-132782434D02*
X141061316Y-134366353D01*
X142475530Y-129784301D02*
X139477397Y-132782434D01*
X144059449Y-131368220D02*
X142475530Y-129784301D01*
X160663750Y-138021250D02*
X158423750Y-138021250D01*
X160663750Y-138261250D02*
X158423750Y-138261250D01*
X160663750Y-138141250D02*
X158423750Y-138141250D01*
X159543750Y-142311250D02*
X159543750Y-141661250D01*
X159543750Y-136771250D02*
X159543750Y-137421250D01*
X160663750Y-141661250D02*
X160663750Y-137421250D01*
X158423750Y-141661250D02*
X160663750Y-141661250D01*
X158423750Y-137421250D02*
X158423750Y-141661250D01*
X160663750Y-137421250D02*
X158423750Y-137421250D01*
D12*
X175174971Y-117739813D02*
X175790891Y-117484691D01*
X175614914Y-117557583D02*
X175721125Y-117565131D01*
X175783343Y-117590902D01*
X175863783Y-117660668D01*
X175900229Y-117748657D01*
X175601649Y-118645470D02*
X175521209Y-118575704D01*
X175448317Y-118399727D01*
X175455865Y-118293516D01*
X175525630Y-118213075D01*
X175877584Y-118067291D01*
X175983796Y-118074839D01*
X176064236Y-118144605D01*
X176137128Y-118320582D01*
X176129580Y-118426794D01*
X176059815Y-118507234D01*
X175971826Y-118543680D01*
X175701607Y-118140183D01*
X175765656Y-119041418D02*
X175758108Y-119147630D01*
X175831000Y-119323607D01*
X175911440Y-119393372D01*
X176017652Y-119400920D01*
X176061646Y-119382697D01*
X176131412Y-119302257D01*
X176138960Y-119196046D01*
X176084291Y-119064063D01*
X176091839Y-118957851D01*
X176161605Y-118877411D01*
X176205599Y-118859188D01*
X176311810Y-118866736D01*
X176392251Y-118936502D01*
X176446920Y-119068484D01*
X176439372Y-119174696D01*
X176239455Y-120185269D02*
X176159014Y-120115503D01*
X176086122Y-119939526D01*
X176093671Y-119833315D01*
X176163436Y-119752875D01*
X176515390Y-119607090D01*
X176621602Y-119614639D01*
X176702042Y-119684404D01*
X176774934Y-119860381D01*
X176767386Y-119966593D01*
X176697620Y-120047033D01*
X176609632Y-120083479D01*
X176339413Y-119679982D01*
X176938941Y-120256330D02*
X177084725Y-120608284D01*
X177301570Y-120260751D02*
X176509673Y-120588766D01*
X176439908Y-120669206D01*
X176432360Y-120775417D01*
X176468806Y-120863406D01*
X177751956Y-131560469D02*
X178459062Y-130853362D01*
X178627421Y-131021721D01*
X178694765Y-131156408D01*
X178694765Y-131291095D01*
X178661093Y-131392110D01*
X178560078Y-131560469D01*
X178459062Y-131661484D01*
X178290704Y-131762500D01*
X178189688Y-131796171D01*
X178055001Y-131796171D01*
X177920314Y-131728828D01*
X177751956Y-131560469D01*
X178964139Y-131964530D02*
X178930467Y-131863515D01*
X178930467Y-131796171D01*
X178964139Y-131695156D01*
X178997811Y-131661484D01*
X179098826Y-131627812D01*
X179166169Y-131627812D01*
X179267185Y-131661484D01*
X179401872Y-131796171D01*
X179435543Y-131897187D01*
X179435543Y-131964530D01*
X179401872Y-132065545D01*
X179368200Y-132099217D01*
X179267185Y-132132889D01*
X179199841Y-132132889D01*
X179098826Y-132099217D01*
X178964139Y-131964530D01*
X178863124Y-131930858D01*
X178795780Y-131930858D01*
X178694765Y-131964530D01*
X178560078Y-132099217D01*
X178526406Y-132200232D01*
X178526406Y-132267576D01*
X178560078Y-132368591D01*
X178694765Y-132503278D01*
X178795780Y-132536950D01*
X178863124Y-132536950D01*
X178964139Y-132503278D01*
X179098826Y-132368591D01*
X179132498Y-132267576D01*
X179132498Y-132200232D01*
X179098826Y-132099217D01*
X184205654Y-114752380D02*
X184205654Y-113752380D01*
X184443750Y-113752380D01*
X184586607Y-113800000D01*
X184681845Y-113895238D01*
X184729464Y-113990476D01*
X184777083Y-114180952D01*
X184777083Y-114323809D01*
X184729464Y-114514285D01*
X184681845Y-114609523D01*
X184586607Y-114704761D01*
X184443750Y-114752380D01*
X184205654Y-114752380D01*
X185110416Y-113752380D02*
X185777083Y-113752380D01*
X185348511Y-114752380D01*
X177597969Y-96885543D02*
X176890862Y-96178437D01*
X177059221Y-96010078D01*
X177193908Y-95942734D01*
X177328595Y-95942734D01*
X177429610Y-95976406D01*
X177597969Y-96077421D01*
X177698984Y-96178437D01*
X177800000Y-96346795D01*
X177833671Y-96447811D01*
X177833671Y-96582498D01*
X177766328Y-96717185D01*
X177597969Y-96885543D01*
X177901015Y-95168284D02*
X177766328Y-95302971D01*
X177732656Y-95403986D01*
X177732656Y-95471330D01*
X177766328Y-95639688D01*
X177867343Y-95808047D01*
X178136717Y-96077421D01*
X178237732Y-96111093D01*
X178305076Y-96111093D01*
X178406091Y-96077421D01*
X178540778Y-95942734D01*
X178574450Y-95841719D01*
X178574450Y-95774375D01*
X178540778Y-95673360D01*
X178372419Y-95505001D01*
X178271404Y-95471330D01*
X178204061Y-95471330D01*
X178103045Y-95505001D01*
X177968358Y-95639688D01*
X177934687Y-95740704D01*
X177934687Y-95808047D01*
X177968358Y-95909062D01*
X159996130Y-89796845D02*
X158996130Y-89796845D01*
X158996130Y-89558750D01*
X159043750Y-89415892D01*
X159138988Y-89320654D01*
X159234226Y-89273035D01*
X159424702Y-89225416D01*
X159567559Y-89225416D01*
X159758035Y-89273035D01*
X159853273Y-89320654D01*
X159948511Y-89415892D01*
X159996130Y-89558750D01*
X159996130Y-89796845D01*
X158996130Y-88320654D02*
X158996130Y-88796845D01*
X159472321Y-88844464D01*
X159424702Y-88796845D01*
X159377083Y-88701607D01*
X159377083Y-88463511D01*
X159424702Y-88368273D01*
X159472321Y-88320654D01*
X159567559Y-88273035D01*
X159805654Y-88273035D01*
X159900892Y-88320654D01*
X159948511Y-88368273D01*
X159996130Y-88463511D01*
X159996130Y-88701607D01*
X159948511Y-88796845D01*
X159900892Y-88844464D01*
X140445706Y-95841719D02*
X141152812Y-95134612D01*
X141321171Y-95302971D01*
X141388515Y-95437658D01*
X141388515Y-95572345D01*
X141354843Y-95673360D01*
X141253828Y-95841719D01*
X141152812Y-95942734D01*
X140984454Y-96043750D01*
X140883438Y-96077421D01*
X140748751Y-96077421D01*
X140614064Y-96010078D01*
X140445706Y-95841719D01*
X141927263Y-96380467D02*
X141455858Y-96851872D01*
X142028278Y-95942734D02*
X141354843Y-96279452D01*
X141792576Y-96717185D01*
X133405654Y-114752380D02*
X133405654Y-113752380D01*
X133643750Y-113752380D01*
X133786607Y-113800000D01*
X133881845Y-113895238D01*
X133929464Y-113990476D01*
X133977083Y-114180952D01*
X133977083Y-114323809D01*
X133929464Y-114514285D01*
X133881845Y-114609523D01*
X133786607Y-114704761D01*
X133643750Y-114752380D01*
X133405654Y-114752380D01*
X134310416Y-113752380D02*
X134929464Y-113752380D01*
X134596130Y-114133333D01*
X134738988Y-114133333D01*
X134834226Y-114180952D01*
X134881845Y-114228571D01*
X134929464Y-114323809D01*
X134929464Y-114561904D01*
X134881845Y-114657142D01*
X134834226Y-114704761D01*
X134738988Y-114752380D01*
X134453273Y-114752380D01*
X134358035Y-114704761D01*
X134310416Y-114657142D01*
X141085469Y-133398043D02*
X140378362Y-132690937D01*
X140546721Y-132522578D01*
X140681408Y-132455234D01*
X140816095Y-132455234D01*
X140917110Y-132488906D01*
X141085469Y-132589921D01*
X141186484Y-132690937D01*
X141287500Y-132859295D01*
X141321171Y-132960311D01*
X141321171Y-133094998D01*
X141253828Y-133229685D01*
X141085469Y-133398043D01*
X141119141Y-132084845D02*
X141119141Y-132017501D01*
X141152812Y-131916486D01*
X141321171Y-131748127D01*
X141422187Y-131714456D01*
X141489530Y-131714456D01*
X141590545Y-131748127D01*
X141657889Y-131815471D01*
X141725232Y-131950158D01*
X141725232Y-132758280D01*
X142162965Y-132320547D01*
X159996130Y-140438095D02*
X158996130Y-140438095D01*
X158996130Y-140200000D01*
X159043750Y-140057142D01*
X159138988Y-139961904D01*
X159234226Y-139914285D01*
X159424702Y-139866666D01*
X159567559Y-139866666D01*
X159758035Y-139914285D01*
X159853273Y-139961904D01*
X159948511Y-140057142D01*
X159996130Y-140200000D01*
X159996130Y-140438095D01*
X159996130Y-138914285D02*
X159996130Y-139485714D01*
X159996130Y-139200000D02*
X158996130Y-139200000D01*
X159138988Y-139295238D01*
X159234226Y-139390476D01*
X159281845Y-139485714D01*
M02*
