M48
; DRILL file {KiCad (5.1.5)-3} date 4/20/2020 9:44:30 AM
; FORMAT={-:-/ absolute / inch / decimal}
; #@! TF.CreationDate,2020-04-20T09:44:30-04:00
; #@! TF.GenerationSoftware,Kicad,Pcbnew,(5.1.5)-3
; #@! TF.FileFunction,NonPlated,1,2,NPTH
FMAT,2
INCH
T1C0.0689
T2C0.0866
T3C0.1570
%
G90
G05
T1
X7.2648Y-5.4836
X7.5477Y-5.7664
X6.2812Y-5.8937
X6.2812Y-6.2938
X7.2648Y-3.5164
X7.5477Y-3.2336
X7.675Y-4.5
X8.075Y-4.5
X5.0148Y-5.7664
X5.2977Y-5.4836
X5.0148Y-3.2336
X5.2977Y-3.5164
X6.3125Y-2.7062
X6.3125Y-3.1062
X4.4875Y-4.5
X4.8875Y-4.5
T2
X7.875Y-5.1562
X4.6875Y-3.8438
X6.9375Y-2.875
X5.625Y-6.0938
T3
X5.1562Y-3.375
X6.3125Y-2.9062
X4.6875Y-4.5
X7.4062Y-3.375
X7.875Y-4.5
X5.1562Y-5.625
X7.4062Y-5.625
X6.2812Y-6.0938
T0
M30
