M48
; DRILL file {KiCad (5.1.5)-3} date 4/20/2020 9:44:30 AM
; FORMAT={-:-/ absolute / inch / decimal}
; #@! TF.CreationDate,2020-04-20T09:44:30-04:00
; #@! TF.GenerationSoftware,Kicad,Pcbnew,(5.1.5)-3
; #@! TF.FileFunction,Plated,1,2,PTH
FMAT,2
INCH
T1C0.0315
T2C0.0315
T3C0.0433
T4C0.0579
%
G90
G05
T1
X6.2812Y-5.6437
X5.1375Y-4.5
X6.2812Y-3.3562
X6.2812Y-3.6562
X6.9062Y-5.0625
X7.1184Y-5.2746
X5.4754Y-5.3059
X5.6875Y-5.0938
X7.125Y-4.5
X7.425Y-4.5
X6.875Y-3.9062
X7.0871Y-3.6941
X5.4754Y-3.6941
X5.6875Y-3.9062
X6.2812Y-5.3438
X5.4375Y-4.5
T2
X6.8176Y-4.6427
X6.875Y-4.7812
T3
X5.7936Y-4.1067
X5.8319Y-4.1991
X5.8701Y-4.2914
X5.9084Y-4.3838
X5.9467Y-4.4762
X5.985Y-4.5686
X6.0232Y-4.661
X6.0615Y-4.7534
X6.0998Y-4.8458
X6.138Y-4.9382
X6.1763Y-5.0306
X6.2146Y-5.1229
X6.3479Y-3.8771
X6.3862Y-3.9694
X6.4245Y-4.0618
X6.4627Y-4.1542
X6.501Y-4.2466
X6.5393Y-4.339
X6.5775Y-4.4314
X6.6158Y-4.5238
X6.6541Y-4.6162
X6.6924Y-4.7086
X6.7306Y-4.8009
X6.7689Y-4.8933
T4
X4.9753Y-5.5832
X4.9795Y-5.6604
X5.0855Y-5.4129
X5.1006Y-5.4301
X7.1941Y-5.6957
X7.2114Y-5.6807
X7.3645Y-5.806
X7.4416Y-5.8018
X5.1209Y-3.1982
X5.198Y-3.194
X5.3511Y-3.3193
X5.3684Y-3.3043
X6.4125Y-2.7563
X6.47Y-2.8078
X6.4897Y-3.0047
X6.5125Y-3.0063
X4.5375Y-4.4
X4.5891Y-4.3425
X4.7859Y-4.3228
X4.7875Y-4.3
X6.0812Y-5.9937
X6.1041Y-5.9953
X6.1238Y-6.1922
X6.1812Y-6.2437
X7.4619Y-3.5699
X7.477Y-3.5871
X7.583Y-3.3396
X7.5872Y-3.4168
X7.775Y-4.7
X7.7766Y-4.6772
X7.9734Y-4.6575
X8.025Y-4.6
T0
M30
