G04 #@! TF.GenerationSoftware,KiCad,Pcbnew,(5.1.5)-3*
G04 #@! TF.CreationDate,2020-04-20T09:44:32-04:00*
G04 #@! TF.ProjectId,OctoPad,4f63746f-5061-4642-9e6b-696361645f70,rev?*
G04 #@! TF.SameCoordinates,Original*
G04 #@! TF.FileFunction,Soldermask,Top*
G04 #@! TF.FilePolarity,Negative*
%FSLAX46Y46*%
G04 Gerber Fmt 4.6, Leading zero omitted, Abs format (unit mm)*
G04 Created by KiCad (PCBNEW (5.1.5)-3) date 2020-04-20 09:44:32*
%MOMM*%
%LPD*%
G04 APERTURE LIST*
%ADD10C,0.100000*%
G04 APERTURE END LIST*
D10*
G36*
X159813854Y-158970835D02*
G01*
X159982376Y-159040639D01*
X160134041Y-159141978D01*
X160263022Y-159270959D01*
X160364361Y-159422624D01*
X160434165Y-159591146D01*
X160469750Y-159770047D01*
X160469750Y-159952453D01*
X160434165Y-160131354D01*
X160364361Y-160299876D01*
X160263022Y-160451541D01*
X160134041Y-160580522D01*
X159982376Y-160681861D01*
X159813854Y-160751665D01*
X159634953Y-160787250D01*
X159452547Y-160787250D01*
X159273646Y-160751665D01*
X159105124Y-160681861D01*
X158953459Y-160580522D01*
X158824478Y-160451541D01*
X158723139Y-160299876D01*
X158653335Y-160131354D01*
X158617750Y-159952453D01*
X158617750Y-159770047D01*
X158653335Y-159591146D01*
X158723139Y-159422624D01*
X158824478Y-159270959D01*
X158953459Y-159141978D01*
X159105124Y-159040639D01*
X159273646Y-158970835D01*
X159452547Y-158935250D01*
X159634953Y-158935250D01*
X159813854Y-158970835D01*
G37*
G36*
X160140224Y-152814934D02*
G01*
X160358224Y-152905233D01*
X160512373Y-152969083D01*
X160847298Y-153192873D01*
X161132127Y-153477702D01*
X161355917Y-153812627D01*
X161355917Y-153812628D01*
X161510066Y-154184776D01*
X161588650Y-154579844D01*
X161588650Y-154982656D01*
X161510066Y-155377724D01*
X161453217Y-155514969D01*
X161355917Y-155749873D01*
X161132127Y-156084798D01*
X160847298Y-156369627D01*
X160512373Y-156593417D01*
X160358224Y-156657267D01*
X160140224Y-156747566D01*
X159745156Y-156826150D01*
X159342344Y-156826150D01*
X158947276Y-156747566D01*
X158729276Y-156657267D01*
X158575127Y-156593417D01*
X158240202Y-156369627D01*
X157955373Y-156084798D01*
X157731583Y-155749873D01*
X157634283Y-155514969D01*
X157577434Y-155377724D01*
X157498850Y-154982656D01*
X157498850Y-154579844D01*
X157577434Y-154184776D01*
X157731583Y-153812628D01*
X157731583Y-153812627D01*
X157955373Y-153477702D01*
X158240202Y-153192873D01*
X158575127Y-152969083D01*
X158729276Y-152905233D01*
X158947276Y-152814934D01*
X159342344Y-152736350D01*
X159745156Y-152736350D01*
X160140224Y-152814934D01*
G37*
G36*
X143099549Y-153652366D02*
G01*
X143210734Y-153674482D01*
X143420203Y-153761247D01*
X143608720Y-153887210D01*
X143769040Y-154047530D01*
X143895003Y-154236047D01*
X143981768Y-154445516D01*
X144026000Y-154667886D01*
X144026000Y-154894614D01*
X143981768Y-155116984D01*
X143895003Y-155326453D01*
X143769040Y-155514970D01*
X143608720Y-155675290D01*
X143420203Y-155801253D01*
X143210734Y-155888018D01*
X143099549Y-155910134D01*
X142988365Y-155932250D01*
X142761635Y-155932250D01*
X142650451Y-155910134D01*
X142539266Y-155888018D01*
X142329797Y-155801253D01*
X142141280Y-155675290D01*
X141980960Y-155514970D01*
X141854997Y-155326453D01*
X141768232Y-155116984D01*
X141724000Y-154894614D01*
X141724000Y-154667886D01*
X141768232Y-154445516D01*
X141854997Y-154236047D01*
X141980960Y-154047530D01*
X142141280Y-153887210D01*
X142329797Y-153761247D01*
X142539266Y-153674482D01*
X142650451Y-153652366D01*
X142761635Y-153630250D01*
X142988365Y-153630250D01*
X143099549Y-153652366D01*
G37*
G36*
X159813854Y-148810835D02*
G01*
X159982376Y-148880639D01*
X160134041Y-148981978D01*
X160263022Y-149110959D01*
X160364361Y-149262624D01*
X160434165Y-149431146D01*
X160469750Y-149610047D01*
X160469750Y-149792453D01*
X160434165Y-149971354D01*
X160364361Y-150139876D01*
X160263022Y-150291541D01*
X160134041Y-150420522D01*
X159982376Y-150521861D01*
X159813854Y-150591665D01*
X159634953Y-150627250D01*
X159452547Y-150627250D01*
X159273646Y-150591665D01*
X159105124Y-150521861D01*
X158953459Y-150420522D01*
X158824478Y-150291541D01*
X158723139Y-150139876D01*
X158653335Y-149971354D01*
X158617750Y-149792453D01*
X158617750Y-149610047D01*
X158653335Y-149431146D01*
X158723139Y-149262624D01*
X158824478Y-149110959D01*
X158953459Y-148981978D01*
X159105124Y-148880639D01*
X159273646Y-148810835D01*
X159452547Y-148775250D01*
X159634953Y-148775250D01*
X159813854Y-148810835D01*
G37*
G36*
X127646752Y-145576687D02*
G01*
X127815274Y-145646491D01*
X127966939Y-145747830D01*
X128095920Y-145876811D01*
X128197259Y-146028476D01*
X128267063Y-146196998D01*
X128302648Y-146375899D01*
X128302648Y-146558305D01*
X128267063Y-146737206D01*
X128197259Y-146905728D01*
X128095920Y-147057393D01*
X127966939Y-147186374D01*
X127815274Y-147287713D01*
X127646752Y-147357517D01*
X127467851Y-147393102D01*
X127285445Y-147393102D01*
X127106544Y-147357517D01*
X126938022Y-147287713D01*
X126786357Y-147186374D01*
X126657376Y-147057393D01*
X126556037Y-146905728D01*
X126486233Y-146737206D01*
X126450648Y-146558305D01*
X126450648Y-146375899D01*
X126486233Y-146196998D01*
X126556037Y-146028476D01*
X126657376Y-145876811D01*
X126786357Y-145747830D01*
X126938022Y-145646491D01*
X127106544Y-145576687D01*
X127285445Y-145541102D01*
X127467851Y-145541102D01*
X127646752Y-145576687D01*
G37*
G36*
X191980956Y-145576687D02*
G01*
X192149478Y-145646491D01*
X192301143Y-145747830D01*
X192430124Y-145876811D01*
X192531463Y-146028476D01*
X192601267Y-146196998D01*
X192636852Y-146375899D01*
X192636852Y-146558305D01*
X192601267Y-146737206D01*
X192531463Y-146905728D01*
X192430124Y-147057393D01*
X192301143Y-147186374D01*
X192149478Y-147287713D01*
X191980956Y-147357517D01*
X191802055Y-147393102D01*
X191619649Y-147393102D01*
X191440748Y-147357517D01*
X191272226Y-147287713D01*
X191120561Y-147186374D01*
X190991580Y-147057393D01*
X190890241Y-146905728D01*
X190820437Y-146737206D01*
X190784852Y-146558305D01*
X190784852Y-146375899D01*
X190820437Y-146196998D01*
X190890241Y-146028476D01*
X190991580Y-145876811D01*
X191120561Y-145747830D01*
X191272226Y-145646491D01*
X191440748Y-145576687D01*
X191619649Y-145541102D01*
X191802055Y-145541102D01*
X191980956Y-145576687D01*
G37*
G36*
X131565224Y-140908684D02*
G01*
X131783224Y-140998983D01*
X131937373Y-141062833D01*
X132272298Y-141286623D01*
X132557127Y-141571452D01*
X132780917Y-141906377D01*
X132780917Y-141906378D01*
X132935066Y-142278526D01*
X133013650Y-142673594D01*
X133013650Y-143076406D01*
X132935066Y-143471474D01*
X132844767Y-143689474D01*
X132780917Y-143843623D01*
X132557127Y-144178548D01*
X132272298Y-144463377D01*
X131937373Y-144687167D01*
X131783224Y-144751017D01*
X131565224Y-144841316D01*
X131170156Y-144919900D01*
X130767344Y-144919900D01*
X130372276Y-144841316D01*
X130154276Y-144751017D01*
X130000127Y-144687167D01*
X129665202Y-144463377D01*
X129380373Y-144178548D01*
X129156583Y-143843623D01*
X129092733Y-143689474D01*
X129002434Y-143471474D01*
X128923850Y-143076406D01*
X128923850Y-142673594D01*
X129002434Y-142278526D01*
X129156583Y-141906378D01*
X129156583Y-141906377D01*
X129380373Y-141571452D01*
X129665202Y-141286623D01*
X130000127Y-141062833D01*
X130154276Y-140998983D01*
X130372276Y-140908684D01*
X130767344Y-140830100D01*
X131170156Y-140830100D01*
X131565224Y-140908684D01*
G37*
G36*
X188715224Y-140908684D02*
G01*
X188933224Y-140998983D01*
X189087373Y-141062833D01*
X189422298Y-141286623D01*
X189707127Y-141571452D01*
X189930917Y-141906377D01*
X189930917Y-141906378D01*
X190085066Y-142278526D01*
X190163650Y-142673594D01*
X190163650Y-143076406D01*
X190085066Y-143471474D01*
X189994767Y-143689474D01*
X189930917Y-143843623D01*
X189707127Y-144178548D01*
X189422298Y-144463377D01*
X189087373Y-144687167D01*
X188933224Y-144751017D01*
X188715224Y-144841316D01*
X188320156Y-144919900D01*
X187917344Y-144919900D01*
X187522276Y-144841316D01*
X187304276Y-144751017D01*
X187150127Y-144687167D01*
X186815202Y-144463377D01*
X186530373Y-144178548D01*
X186306583Y-143843623D01*
X186242733Y-143689474D01*
X186152434Y-143471474D01*
X186073850Y-143076406D01*
X186073850Y-142673594D01*
X186152434Y-142278526D01*
X186306583Y-141906378D01*
X186306583Y-141906377D01*
X186530373Y-141571452D01*
X186815202Y-141286623D01*
X187150127Y-141062833D01*
X187304276Y-140998983D01*
X187522276Y-140908684D01*
X187917344Y-140830100D01*
X188320156Y-140830100D01*
X188715224Y-140908684D01*
G37*
G36*
X159791978Y-142532953D02*
G01*
X159946850Y-142597103D01*
X160086231Y-142690235D01*
X160204765Y-142808769D01*
X160297897Y-142948150D01*
X160362047Y-143103022D01*
X160394750Y-143267434D01*
X160394750Y-143435066D01*
X160362047Y-143599478D01*
X160297897Y-143754350D01*
X160204765Y-143893731D01*
X160086231Y-144012265D01*
X159946850Y-144105397D01*
X159791978Y-144169547D01*
X159627566Y-144202250D01*
X159459934Y-144202250D01*
X159295522Y-144169547D01*
X159140650Y-144105397D01*
X159001269Y-144012265D01*
X158882735Y-143893731D01*
X158789603Y-143754350D01*
X158725453Y-143599478D01*
X158692750Y-143435066D01*
X158692750Y-143267434D01*
X158725453Y-143103022D01*
X158789603Y-142948150D01*
X158882735Y-142808769D01*
X159001269Y-142690235D01*
X159140650Y-142597103D01*
X159295522Y-142532953D01*
X159459934Y-142500250D01*
X159627566Y-142500250D01*
X159791978Y-142532953D01*
G37*
G36*
X134830956Y-138392483D02*
G01*
X134999478Y-138462287D01*
X135151143Y-138563626D01*
X135280124Y-138692607D01*
X135381463Y-138844272D01*
X135451267Y-139012794D01*
X135486852Y-139191695D01*
X135486852Y-139374101D01*
X135451267Y-139553002D01*
X135381463Y-139721524D01*
X135280124Y-139873189D01*
X135151143Y-140002170D01*
X134999478Y-140103509D01*
X134830956Y-140173313D01*
X134652055Y-140208898D01*
X134469649Y-140208898D01*
X134290748Y-140173313D01*
X134122226Y-140103509D01*
X133970561Y-140002170D01*
X133841580Y-139873189D01*
X133740241Y-139721524D01*
X133670437Y-139553002D01*
X133634852Y-139374101D01*
X133634852Y-139191695D01*
X133670437Y-139012794D01*
X133740241Y-138844272D01*
X133841580Y-138692607D01*
X133970561Y-138563626D01*
X134122226Y-138462287D01*
X134290748Y-138392483D01*
X134469649Y-138356898D01*
X134652055Y-138356898D01*
X134830956Y-138392483D01*
G37*
G36*
X184796752Y-138392483D02*
G01*
X184965274Y-138462287D01*
X185116939Y-138563626D01*
X185245920Y-138692607D01*
X185347259Y-138844272D01*
X185417063Y-139012794D01*
X185452648Y-139191695D01*
X185452648Y-139374101D01*
X185417063Y-139553002D01*
X185347259Y-139721524D01*
X185245920Y-139873189D01*
X185116939Y-140002170D01*
X184965274Y-140103509D01*
X184796752Y-140173313D01*
X184617851Y-140208898D01*
X184435445Y-140208898D01*
X184256544Y-140173313D01*
X184088022Y-140103509D01*
X183936357Y-140002170D01*
X183807376Y-139873189D01*
X183706037Y-139721524D01*
X183636233Y-139553002D01*
X183600648Y-139374101D01*
X183600648Y-139191695D01*
X183636233Y-139012794D01*
X183706037Y-138844272D01*
X183807376Y-138692607D01*
X183936357Y-138563626D01*
X184088022Y-138462287D01*
X184256544Y-138392483D01*
X184435445Y-138356898D01*
X184617851Y-138356898D01*
X184796752Y-138392483D01*
G37*
G36*
X160394750Y-136582250D02*
G01*
X158692750Y-136582250D01*
X158692750Y-134880250D01*
X160394750Y-134880250D01*
X160394750Y-136582250D01*
G37*
G36*
X139322574Y-133951107D02*
G01*
X139477446Y-134015257D01*
X139616827Y-134108389D01*
X139735361Y-134226923D01*
X139828493Y-134366304D01*
X139892643Y-134521176D01*
X139925346Y-134685588D01*
X139925346Y-134853220D01*
X139892643Y-135017632D01*
X139828493Y-135172504D01*
X139735361Y-135311885D01*
X139616827Y-135430419D01*
X139477446Y-135523551D01*
X139322574Y-135587701D01*
X139158162Y-135620404D01*
X138990530Y-135620404D01*
X138826118Y-135587701D01*
X138671246Y-135523551D01*
X138531865Y-135430419D01*
X138413331Y-135311885D01*
X138320199Y-135172504D01*
X138256049Y-135017632D01*
X138223346Y-134853220D01*
X138223346Y-134685588D01*
X138256049Y-134521176D01*
X138320199Y-134366304D01*
X138413331Y-134226923D01*
X138531865Y-134108389D01*
X138671246Y-134015257D01*
X138826118Y-133951107D01*
X138990530Y-133918404D01*
X139158162Y-133918404D01*
X139322574Y-133951107D01*
G37*
G36*
X181055132Y-133157357D02*
G01*
X181210004Y-133221507D01*
X181349385Y-133314639D01*
X181467919Y-133433173D01*
X181561051Y-133572554D01*
X181625201Y-133727426D01*
X181657904Y-133891838D01*
X181657904Y-134059470D01*
X181625201Y-134223882D01*
X181561051Y-134378754D01*
X181467919Y-134518135D01*
X181349385Y-134636669D01*
X181210004Y-134729801D01*
X181055132Y-134793951D01*
X180890720Y-134826654D01*
X180723088Y-134826654D01*
X180558676Y-134793951D01*
X180403804Y-134729801D01*
X180264423Y-134636669D01*
X180145889Y-134518135D01*
X180052757Y-134378754D01*
X179988607Y-134223882D01*
X179955904Y-134059470D01*
X179955904Y-133891838D01*
X179988607Y-133727426D01*
X180052757Y-133572554D01*
X180145889Y-133433173D01*
X180264423Y-133314639D01*
X180403804Y-133221507D01*
X180558676Y-133157357D01*
X180723088Y-133124654D01*
X180890720Y-133124654D01*
X181055132Y-133157357D01*
G37*
G36*
X200249549Y-129839866D02*
G01*
X200360734Y-129861982D01*
X200570203Y-129948747D01*
X200758720Y-130074710D01*
X200919040Y-130235030D01*
X201045003Y-130423547D01*
X201131768Y-130633016D01*
X201176000Y-130855386D01*
X201176000Y-131082114D01*
X201131768Y-131304484D01*
X201045003Y-131513953D01*
X200919040Y-131702470D01*
X200758720Y-131862790D01*
X200570203Y-131988753D01*
X200360734Y-132075518D01*
X200249549Y-132097634D01*
X200138365Y-132119750D01*
X199911635Y-132119750D01*
X199800451Y-132097634D01*
X199689266Y-132075518D01*
X199479797Y-131988753D01*
X199291280Y-131862790D01*
X199130960Y-131702470D01*
X199004997Y-131513953D01*
X198918232Y-131304484D01*
X198874000Y-131082114D01*
X198874000Y-130855386D01*
X198918232Y-130633016D01*
X199004997Y-130423547D01*
X199130960Y-130235030D01*
X199291280Y-130074710D01*
X199479797Y-129948747D01*
X199689266Y-129861982D01*
X199800451Y-129839866D01*
X199911635Y-129817750D01*
X200138365Y-129817750D01*
X200249549Y-129839866D01*
G37*
G36*
X158961761Y-130583203D02*
G01*
X157389318Y-131234530D01*
X156737991Y-129662087D01*
X158310434Y-129010760D01*
X158961761Y-130583203D01*
G37*
G36*
X145665996Y-129381250D02*
G01*
X144462500Y-130584746D01*
X143259004Y-129381250D01*
X144462500Y-128177754D01*
X145665996Y-129381250D01*
G37*
G36*
X176622246Y-128587500D02*
G01*
X175418750Y-129790996D01*
X174215254Y-128587500D01*
X175418750Y-127384004D01*
X176622246Y-128587500D01*
G37*
G36*
X157126088Y-126957694D02*
G01*
X157280960Y-127021844D01*
X157420341Y-127114976D01*
X157538875Y-127233510D01*
X157632007Y-127372891D01*
X157696157Y-127527763D01*
X157728860Y-127692175D01*
X157728860Y-127859807D01*
X157696157Y-128024219D01*
X157632007Y-128179091D01*
X157538875Y-128318472D01*
X157420341Y-128437006D01*
X157280960Y-128530138D01*
X157126088Y-128594288D01*
X156961676Y-128626991D01*
X156794044Y-128626991D01*
X156629632Y-128594288D01*
X156474760Y-128530138D01*
X156335379Y-128437006D01*
X156216845Y-128318472D01*
X156123713Y-128179091D01*
X156059563Y-128024219D01*
X156026860Y-127859807D01*
X156026860Y-127692175D01*
X156059563Y-127527763D01*
X156123713Y-127372891D01*
X156216845Y-127233510D01*
X156335379Y-127114976D01*
X156474760Y-127021844D01*
X156629632Y-126957694D01*
X156794044Y-126924991D01*
X156961676Y-126924991D01*
X157126088Y-126957694D01*
G37*
G36*
X156154072Y-124611040D02*
G01*
X156308944Y-124675190D01*
X156448325Y-124768322D01*
X156566859Y-124886856D01*
X156659991Y-125026237D01*
X156724141Y-125181109D01*
X156756844Y-125345521D01*
X156756844Y-125513153D01*
X156724141Y-125677565D01*
X156659991Y-125832437D01*
X156566859Y-125971818D01*
X156448325Y-126090352D01*
X156308944Y-126183484D01*
X156154072Y-126247634D01*
X155989660Y-126280337D01*
X155822028Y-126280337D01*
X155657616Y-126247634D01*
X155502744Y-126183484D01*
X155363363Y-126090352D01*
X155244829Y-125971818D01*
X155151697Y-125832437D01*
X155087547Y-125677565D01*
X155054844Y-125513153D01*
X155054844Y-125345521D01*
X155087547Y-125181109D01*
X155151697Y-125026237D01*
X155244829Y-124886856D01*
X155363363Y-124768322D01*
X155502744Y-124675190D01*
X155657616Y-124611040D01*
X155822028Y-124578337D01*
X155989660Y-124578337D01*
X156154072Y-124611040D01*
G37*
G36*
X172178028Y-123472252D02*
G01*
X172332900Y-123536402D01*
X172472281Y-123629534D01*
X172590815Y-123748068D01*
X172683947Y-123887449D01*
X172748097Y-124042321D01*
X172780800Y-124206733D01*
X172780800Y-124374365D01*
X172748097Y-124538777D01*
X172683947Y-124693649D01*
X172590815Y-124833030D01*
X172472281Y-124951564D01*
X172332900Y-125044696D01*
X172178028Y-125108846D01*
X172013616Y-125141549D01*
X171845984Y-125141549D01*
X171681572Y-125108846D01*
X171526700Y-125044696D01*
X171387319Y-124951564D01*
X171268785Y-124833030D01*
X171175653Y-124693649D01*
X171111503Y-124538777D01*
X171078800Y-124374365D01*
X171078800Y-124206733D01*
X171111503Y-124042321D01*
X171175653Y-123887449D01*
X171268785Y-123748068D01*
X171387319Y-123629534D01*
X171526700Y-123536402D01*
X171681572Y-123472252D01*
X171845984Y-123439549D01*
X172013616Y-123439549D01*
X172178028Y-123472252D01*
G37*
G36*
X155182056Y-122264386D02*
G01*
X155336928Y-122328536D01*
X155476309Y-122421668D01*
X155594843Y-122540202D01*
X155687975Y-122679583D01*
X155752125Y-122834455D01*
X155784828Y-122998867D01*
X155784828Y-123166499D01*
X155752125Y-123330911D01*
X155687975Y-123485783D01*
X155594843Y-123625164D01*
X155476309Y-123743698D01*
X155336928Y-123836830D01*
X155182056Y-123900980D01*
X155017644Y-123933683D01*
X154850012Y-123933683D01*
X154685600Y-123900980D01*
X154530728Y-123836830D01*
X154391347Y-123743698D01*
X154272813Y-123625164D01*
X154179681Y-123485783D01*
X154115531Y-123330911D01*
X154082828Y-123166499D01*
X154082828Y-122998867D01*
X154115531Y-122834455D01*
X154179681Y-122679583D01*
X154272813Y-122540202D01*
X154391347Y-122421668D01*
X154530728Y-122328536D01*
X154685600Y-122264386D01*
X154850012Y-122231683D01*
X155017644Y-122231683D01*
X155182056Y-122264386D01*
G37*
G36*
X175997531Y-122012271D02*
G01*
X174056479Y-122816281D01*
X173252469Y-120875229D01*
X175193521Y-120071219D01*
X175997531Y-122012271D01*
G37*
G36*
X171206012Y-121125598D02*
G01*
X171360884Y-121189748D01*
X171500265Y-121282880D01*
X171618799Y-121401414D01*
X171711931Y-121540795D01*
X171776081Y-121695667D01*
X171808784Y-121860079D01*
X171808784Y-122027711D01*
X171776081Y-122192123D01*
X171711931Y-122346995D01*
X171618799Y-122486376D01*
X171500265Y-122604910D01*
X171360884Y-122698042D01*
X171206012Y-122762192D01*
X171041600Y-122794895D01*
X170873968Y-122794895D01*
X170709556Y-122762192D01*
X170554684Y-122698042D01*
X170415303Y-122604910D01*
X170296769Y-122486376D01*
X170203637Y-122346995D01*
X170139487Y-122192123D01*
X170106784Y-122027711D01*
X170106784Y-121860079D01*
X170139487Y-121695667D01*
X170203637Y-121540795D01*
X170296769Y-121401414D01*
X170415303Y-121282880D01*
X170554684Y-121189748D01*
X170709556Y-121125598D01*
X170873968Y-121092895D01*
X171041600Y-121092895D01*
X171206012Y-121125598D01*
G37*
G36*
X154210040Y-119917732D02*
G01*
X154364912Y-119981882D01*
X154504293Y-120075014D01*
X154622827Y-120193548D01*
X154715959Y-120332929D01*
X154780109Y-120487801D01*
X154812812Y-120652213D01*
X154812812Y-120819845D01*
X154780109Y-120984257D01*
X154715959Y-121139129D01*
X154622827Y-121278510D01*
X154504293Y-121397044D01*
X154364912Y-121490176D01*
X154210040Y-121554326D01*
X154045628Y-121587029D01*
X153877996Y-121587029D01*
X153713584Y-121554326D01*
X153558712Y-121490176D01*
X153419331Y-121397044D01*
X153300797Y-121278510D01*
X153207665Y-121139129D01*
X153143515Y-120984257D01*
X153110812Y-120819845D01*
X153110812Y-120652213D01*
X153143515Y-120487801D01*
X153207665Y-120332929D01*
X153300797Y-120193548D01*
X153419331Y-120075014D01*
X153558712Y-119981882D01*
X153713584Y-119917732D01*
X153877996Y-119885029D01*
X154045628Y-119885029D01*
X154210040Y-119917732D01*
G37*
G36*
X170233996Y-118778944D02*
G01*
X170388868Y-118843094D01*
X170528249Y-118936226D01*
X170646783Y-119054760D01*
X170739915Y-119194141D01*
X170804065Y-119349013D01*
X170836768Y-119513425D01*
X170836768Y-119681057D01*
X170804065Y-119845469D01*
X170739915Y-120000341D01*
X170646783Y-120139722D01*
X170528249Y-120258256D01*
X170388868Y-120351388D01*
X170233996Y-120415538D01*
X170069584Y-120448241D01*
X169901952Y-120448241D01*
X169737540Y-120415538D01*
X169582668Y-120351388D01*
X169443287Y-120258256D01*
X169324753Y-120139722D01*
X169231621Y-120000341D01*
X169167471Y-119845469D01*
X169134768Y-119681057D01*
X169134768Y-119513425D01*
X169167471Y-119349013D01*
X169231621Y-119194141D01*
X169324753Y-119054760D01*
X169443287Y-118936226D01*
X169582668Y-118843094D01*
X169737540Y-118778944D01*
X169901952Y-118746241D01*
X170069584Y-118746241D01*
X170233996Y-118778944D01*
G37*
G36*
X153238024Y-117571078D02*
G01*
X153392896Y-117635228D01*
X153532277Y-117728360D01*
X153650811Y-117846894D01*
X153743943Y-117986275D01*
X153808093Y-118141147D01*
X153840796Y-118305559D01*
X153840796Y-118473191D01*
X153808093Y-118637603D01*
X153743943Y-118792475D01*
X153650811Y-118931856D01*
X153532277Y-119050390D01*
X153392896Y-119143522D01*
X153238024Y-119207672D01*
X153073612Y-119240375D01*
X152905980Y-119240375D01*
X152741568Y-119207672D01*
X152586696Y-119143522D01*
X152447315Y-119050390D01*
X152328781Y-118931856D01*
X152235649Y-118792475D01*
X152171499Y-118637603D01*
X152138796Y-118473191D01*
X152138796Y-118305559D01*
X152171499Y-118141147D01*
X152235649Y-117986275D01*
X152328781Y-117846894D01*
X152447315Y-117728360D01*
X152586696Y-117635228D01*
X152741568Y-117571078D01*
X152905980Y-117538375D01*
X153073612Y-117538375D01*
X153238024Y-117571078D01*
G37*
G36*
X173473392Y-116913648D02*
G01*
X173664568Y-116992836D01*
X173664570Y-116992837D01*
X173836624Y-117107800D01*
X173982945Y-117254121D01*
X174097909Y-117426177D01*
X174177097Y-117617353D01*
X174217466Y-117820303D01*
X174217466Y-118027235D01*
X174177097Y-118230185D01*
X174097909Y-118421361D01*
X174097908Y-118421363D01*
X173982945Y-118593417D01*
X173836624Y-118739738D01*
X173664570Y-118854701D01*
X173664569Y-118854702D01*
X173664568Y-118854702D01*
X173473392Y-118933890D01*
X173270442Y-118974259D01*
X173063510Y-118974259D01*
X172860560Y-118933890D01*
X172669384Y-118854702D01*
X172669383Y-118854702D01*
X172669382Y-118854701D01*
X172497328Y-118739738D01*
X172351007Y-118593417D01*
X172236044Y-118421363D01*
X172236043Y-118421361D01*
X172156855Y-118230185D01*
X172116486Y-118027235D01*
X172116486Y-117820303D01*
X172156855Y-117617353D01*
X172236043Y-117426177D01*
X172351007Y-117254121D01*
X172497328Y-117107800D01*
X172669382Y-116992837D01*
X172669384Y-116992836D01*
X172860560Y-116913648D01*
X173063510Y-116873279D01*
X173270442Y-116873279D01*
X173473392Y-116913648D01*
G37*
G36*
X169261980Y-116432290D02*
G01*
X169416852Y-116496440D01*
X169556233Y-116589572D01*
X169674767Y-116708106D01*
X169767899Y-116847487D01*
X169832049Y-117002359D01*
X169864752Y-117166771D01*
X169864752Y-117334403D01*
X169832049Y-117498815D01*
X169767899Y-117653687D01*
X169674767Y-117793068D01*
X169556233Y-117911602D01*
X169416852Y-118004734D01*
X169261980Y-118068884D01*
X169097568Y-118101587D01*
X168929936Y-118101587D01*
X168765524Y-118068884D01*
X168610652Y-118004734D01*
X168471271Y-117911602D01*
X168352737Y-117793068D01*
X168259605Y-117653687D01*
X168195455Y-117498815D01*
X168162752Y-117334403D01*
X168162752Y-117166771D01*
X168195455Y-117002359D01*
X168259605Y-116847487D01*
X168352737Y-116708106D01*
X168471271Y-116589572D01*
X168610652Y-116496440D01*
X168765524Y-116432290D01*
X168929936Y-116399587D01*
X169097568Y-116399587D01*
X169261980Y-116432290D01*
G37*
G36*
X152266008Y-115224424D02*
G01*
X152420880Y-115288574D01*
X152560261Y-115381706D01*
X152678795Y-115500240D01*
X152771927Y-115639621D01*
X152836077Y-115794493D01*
X152868780Y-115958905D01*
X152868780Y-116126537D01*
X152836077Y-116290949D01*
X152771927Y-116445821D01*
X152678795Y-116585202D01*
X152560261Y-116703736D01*
X152420880Y-116796868D01*
X152266008Y-116861018D01*
X152101596Y-116893721D01*
X151933964Y-116893721D01*
X151769552Y-116861018D01*
X151614680Y-116796868D01*
X151475299Y-116703736D01*
X151356765Y-116585202D01*
X151263633Y-116445821D01*
X151199483Y-116290949D01*
X151166780Y-116126537D01*
X151166780Y-115958905D01*
X151199483Y-115794493D01*
X151263633Y-115639621D01*
X151356765Y-115500240D01*
X151475299Y-115381706D01*
X151614680Y-115288574D01*
X151769552Y-115224424D01*
X151933964Y-115191721D01*
X152101596Y-115191721D01*
X152266008Y-115224424D01*
G37*
G36*
X119658974Y-112333684D02*
G01*
X119876974Y-112423983D01*
X120031123Y-112487833D01*
X120366048Y-112711623D01*
X120650877Y-112996452D01*
X120874667Y-113331377D01*
X120907062Y-113409586D01*
X121028816Y-113703526D01*
X121107400Y-114098594D01*
X121107400Y-114501406D01*
X121028816Y-114896474D01*
X120963505Y-115054148D01*
X120874667Y-115268623D01*
X120650877Y-115603548D01*
X120366048Y-115888377D01*
X120031123Y-116112167D01*
X119876974Y-116176017D01*
X119658974Y-116266316D01*
X119263906Y-116344900D01*
X118861094Y-116344900D01*
X118466026Y-116266316D01*
X118248026Y-116176017D01*
X118093877Y-116112167D01*
X117758952Y-115888377D01*
X117474123Y-115603548D01*
X117250333Y-115268623D01*
X117161495Y-115054148D01*
X117096184Y-114896474D01*
X117017600Y-114501406D01*
X117017600Y-114098594D01*
X117096184Y-113703526D01*
X117217938Y-113409586D01*
X117250333Y-113331377D01*
X117474123Y-112996452D01*
X117758952Y-112711623D01*
X118093877Y-112487833D01*
X118248026Y-112423983D01*
X118466026Y-112333684D01*
X118861094Y-112255100D01*
X119263906Y-112255100D01*
X119658974Y-112333684D01*
G37*
G36*
X200621474Y-112333684D02*
G01*
X200839474Y-112423983D01*
X200993623Y-112487833D01*
X201328548Y-112711623D01*
X201613377Y-112996452D01*
X201837167Y-113331377D01*
X201869562Y-113409586D01*
X201991316Y-113703526D01*
X202069900Y-114098594D01*
X202069900Y-114501406D01*
X201991316Y-114896474D01*
X201926005Y-115054148D01*
X201837167Y-115268623D01*
X201613377Y-115603548D01*
X201328548Y-115888377D01*
X200993623Y-116112167D01*
X200839474Y-116176017D01*
X200621474Y-116266316D01*
X200226406Y-116344900D01*
X199823594Y-116344900D01*
X199428526Y-116266316D01*
X199210526Y-116176017D01*
X199056377Y-116112167D01*
X198721452Y-115888377D01*
X198436623Y-115603548D01*
X198212833Y-115268623D01*
X198123995Y-115054148D01*
X198058684Y-114896474D01*
X197980100Y-114501406D01*
X197980100Y-114098594D01*
X198058684Y-113703526D01*
X198180438Y-113409586D01*
X198212833Y-113331377D01*
X198436623Y-112996452D01*
X198721452Y-112711623D01*
X199056377Y-112487833D01*
X199210526Y-112423983D01*
X199428526Y-112333684D01*
X199823594Y-112255100D01*
X200226406Y-112255100D01*
X200621474Y-112333684D01*
G37*
G36*
X168289964Y-114085636D02*
G01*
X168444836Y-114149786D01*
X168584217Y-114242918D01*
X168702751Y-114361452D01*
X168795883Y-114500833D01*
X168860033Y-114655705D01*
X168892736Y-114820117D01*
X168892736Y-114987749D01*
X168860033Y-115152161D01*
X168795883Y-115307033D01*
X168702751Y-115446414D01*
X168584217Y-115564948D01*
X168444836Y-115658080D01*
X168289964Y-115722230D01*
X168125552Y-115754933D01*
X167957920Y-115754933D01*
X167793508Y-115722230D01*
X167638636Y-115658080D01*
X167499255Y-115564948D01*
X167380721Y-115446414D01*
X167287589Y-115307033D01*
X167223439Y-115152161D01*
X167190736Y-114987749D01*
X167190736Y-114820117D01*
X167223439Y-114655705D01*
X167287589Y-114500833D01*
X167380721Y-114361452D01*
X167499255Y-114242918D01*
X167638636Y-114149786D01*
X167793508Y-114085636D01*
X167957920Y-114052933D01*
X168125552Y-114052933D01*
X168289964Y-114085636D01*
G37*
G36*
X114252604Y-113409585D02*
G01*
X114421126Y-113479389D01*
X114572791Y-113580728D01*
X114701772Y-113709709D01*
X114803111Y-113861374D01*
X114872915Y-114029896D01*
X114908500Y-114208797D01*
X114908500Y-114391203D01*
X114872915Y-114570104D01*
X114803111Y-114738626D01*
X114701772Y-114890291D01*
X114572791Y-115019272D01*
X114421126Y-115120611D01*
X114252604Y-115190415D01*
X114073703Y-115226000D01*
X113891297Y-115226000D01*
X113712396Y-115190415D01*
X113543874Y-115120611D01*
X113392209Y-115019272D01*
X113263228Y-114890291D01*
X113161889Y-114738626D01*
X113092085Y-114570104D01*
X113056500Y-114391203D01*
X113056500Y-114208797D01*
X113092085Y-114029896D01*
X113161889Y-113861374D01*
X113263228Y-113709709D01*
X113392209Y-113580728D01*
X113543874Y-113479389D01*
X113712396Y-113409585D01*
X113891297Y-113374000D01*
X114073703Y-113374000D01*
X114252604Y-113409585D01*
G37*
G36*
X124412604Y-113409585D02*
G01*
X124581126Y-113479389D01*
X124732791Y-113580728D01*
X124861772Y-113709709D01*
X124963111Y-113861374D01*
X125032915Y-114029896D01*
X125068500Y-114208797D01*
X125068500Y-114391203D01*
X125032915Y-114570104D01*
X124963111Y-114738626D01*
X124861772Y-114890291D01*
X124732791Y-115019272D01*
X124581126Y-115120611D01*
X124412604Y-115190415D01*
X124233703Y-115226000D01*
X124051297Y-115226000D01*
X123872396Y-115190415D01*
X123703874Y-115120611D01*
X123552209Y-115019272D01*
X123423228Y-114890291D01*
X123321889Y-114738626D01*
X123252085Y-114570104D01*
X123216500Y-114391203D01*
X123216500Y-114208797D01*
X123252085Y-114029896D01*
X123321889Y-113861374D01*
X123423228Y-113709709D01*
X123552209Y-113580728D01*
X123703874Y-113479389D01*
X123872396Y-113409585D01*
X124051297Y-113374000D01*
X124233703Y-113374000D01*
X124412604Y-113409585D01*
G37*
G36*
X205375104Y-113409585D02*
G01*
X205543626Y-113479389D01*
X205695291Y-113580728D01*
X205824272Y-113709709D01*
X205925611Y-113861374D01*
X205995415Y-114029896D01*
X206031000Y-114208797D01*
X206031000Y-114391203D01*
X205995415Y-114570104D01*
X205925611Y-114738626D01*
X205824272Y-114890291D01*
X205695291Y-115019272D01*
X205543626Y-115120611D01*
X205375104Y-115190415D01*
X205196203Y-115226000D01*
X205013797Y-115226000D01*
X204834896Y-115190415D01*
X204666374Y-115120611D01*
X204514709Y-115019272D01*
X204385728Y-114890291D01*
X204284389Y-114738626D01*
X204214585Y-114570104D01*
X204179000Y-114391203D01*
X204179000Y-114208797D01*
X204214585Y-114029896D01*
X204284389Y-113861374D01*
X204385728Y-113709709D01*
X204514709Y-113580728D01*
X204666374Y-113479389D01*
X204834896Y-113409585D01*
X205013797Y-113374000D01*
X205196203Y-113374000D01*
X205375104Y-113409585D01*
G37*
G36*
X195215104Y-113409585D02*
G01*
X195383626Y-113479389D01*
X195535291Y-113580728D01*
X195664272Y-113709709D01*
X195765611Y-113861374D01*
X195835415Y-114029896D01*
X195871000Y-114208797D01*
X195871000Y-114391203D01*
X195835415Y-114570104D01*
X195765611Y-114738626D01*
X195664272Y-114890291D01*
X195535291Y-115019272D01*
X195383626Y-115120611D01*
X195215104Y-115190415D01*
X195036203Y-115226000D01*
X194853797Y-115226000D01*
X194674896Y-115190415D01*
X194506374Y-115120611D01*
X194354709Y-115019272D01*
X194225728Y-114890291D01*
X194124389Y-114738626D01*
X194054585Y-114570104D01*
X194019000Y-114391203D01*
X194019000Y-114208797D01*
X194054585Y-114029896D01*
X194124389Y-113861374D01*
X194225728Y-113709709D01*
X194354709Y-113580728D01*
X194506374Y-113479389D01*
X194674896Y-113409585D01*
X194853797Y-113374000D01*
X195036203Y-113374000D01*
X195215104Y-113409585D01*
G37*
G36*
X188843228Y-113481703D02*
G01*
X188998100Y-113545853D01*
X189137481Y-113638985D01*
X189256015Y-113757519D01*
X189349147Y-113896900D01*
X189413297Y-114051772D01*
X189446000Y-114216184D01*
X189446000Y-114383816D01*
X189413297Y-114548228D01*
X189349147Y-114703100D01*
X189256015Y-114842481D01*
X189137481Y-114961015D01*
X188998100Y-115054147D01*
X188843228Y-115118297D01*
X188678816Y-115151000D01*
X188511184Y-115151000D01*
X188346772Y-115118297D01*
X188191900Y-115054147D01*
X188052519Y-114961015D01*
X187933985Y-114842481D01*
X187840853Y-114703100D01*
X187776703Y-114548228D01*
X187744000Y-114383816D01*
X187744000Y-114216184D01*
X187776703Y-114051772D01*
X187840853Y-113896900D01*
X187933985Y-113757519D01*
X188052519Y-113638985D01*
X188191900Y-113545853D01*
X188346772Y-113481703D01*
X188511184Y-113449000D01*
X188678816Y-113449000D01*
X188843228Y-113481703D01*
G37*
G36*
X181826000Y-115151000D02*
G01*
X180124000Y-115151000D01*
X180124000Y-113449000D01*
X181826000Y-113449000D01*
X181826000Y-115151000D01*
G37*
G36*
X138963500Y-115151000D02*
G01*
X137261500Y-115151000D01*
X137261500Y-113449000D01*
X138963500Y-113449000D01*
X138963500Y-115151000D01*
G37*
G36*
X130740728Y-113481703D02*
G01*
X130895600Y-113545853D01*
X131034981Y-113638985D01*
X131153515Y-113757519D01*
X131246647Y-113896900D01*
X131310797Y-114051772D01*
X131343500Y-114216184D01*
X131343500Y-114383816D01*
X131310797Y-114548228D01*
X131246647Y-114703100D01*
X131153515Y-114842481D01*
X131034981Y-114961015D01*
X130895600Y-115054147D01*
X130740728Y-115118297D01*
X130576316Y-115151000D01*
X130408684Y-115151000D01*
X130244272Y-115118297D01*
X130089400Y-115054147D01*
X129950019Y-114961015D01*
X129831485Y-114842481D01*
X129738353Y-114703100D01*
X129674203Y-114548228D01*
X129641500Y-114383816D01*
X129641500Y-114216184D01*
X129674203Y-114051772D01*
X129738353Y-113896900D01*
X129831485Y-113757519D01*
X129950019Y-113638985D01*
X130089400Y-113545853D01*
X130244272Y-113481703D01*
X130408684Y-113449000D01*
X130576316Y-113449000D01*
X130740728Y-113481703D01*
G37*
G36*
X151293992Y-112877770D02*
G01*
X151448864Y-112941920D01*
X151588245Y-113035052D01*
X151706779Y-113153586D01*
X151799911Y-113292967D01*
X151864061Y-113447839D01*
X151896764Y-113612251D01*
X151896764Y-113779883D01*
X151864061Y-113944295D01*
X151799911Y-114099167D01*
X151706779Y-114238548D01*
X151588245Y-114357082D01*
X151448864Y-114450214D01*
X151293992Y-114514364D01*
X151129580Y-114547067D01*
X150961948Y-114547067D01*
X150797536Y-114514364D01*
X150642664Y-114450214D01*
X150503283Y-114357082D01*
X150384749Y-114238548D01*
X150291617Y-114099167D01*
X150227467Y-113944295D01*
X150194764Y-113779883D01*
X150194764Y-113612251D01*
X150227467Y-113447839D01*
X150291617Y-113292967D01*
X150384749Y-113153586D01*
X150503283Y-113035052D01*
X150642664Y-112941920D01*
X150797536Y-112877770D01*
X150961948Y-112845067D01*
X151129580Y-112845067D01*
X151293992Y-112877770D01*
G37*
G36*
X167317948Y-111738982D02*
G01*
X167472820Y-111803132D01*
X167612201Y-111896264D01*
X167730735Y-112014798D01*
X167823867Y-112154179D01*
X167888017Y-112309051D01*
X167920720Y-112473463D01*
X167920720Y-112641095D01*
X167888017Y-112805507D01*
X167823867Y-112960379D01*
X167730735Y-113099760D01*
X167612201Y-113218294D01*
X167472820Y-113311426D01*
X167317948Y-113375576D01*
X167153536Y-113408279D01*
X166985904Y-113408279D01*
X166821492Y-113375576D01*
X166666620Y-113311426D01*
X166527239Y-113218294D01*
X166408705Y-113099760D01*
X166315573Y-112960379D01*
X166251423Y-112805507D01*
X166218720Y-112641095D01*
X166218720Y-112473463D01*
X166251423Y-112309051D01*
X166315573Y-112154179D01*
X166408705Y-112014798D01*
X166527239Y-111896264D01*
X166666620Y-111803132D01*
X166821492Y-111738982D01*
X166985904Y-111706279D01*
X167153536Y-111706279D01*
X167317948Y-111738982D01*
G37*
G36*
X150321976Y-110531116D02*
G01*
X150476848Y-110595266D01*
X150616229Y-110688398D01*
X150734763Y-110806932D01*
X150827895Y-110946313D01*
X150892045Y-111101185D01*
X150924748Y-111265597D01*
X150924748Y-111433229D01*
X150892045Y-111597641D01*
X150827895Y-111752513D01*
X150734763Y-111891894D01*
X150616229Y-112010428D01*
X150476848Y-112103560D01*
X150321976Y-112167710D01*
X150157564Y-112200413D01*
X149989932Y-112200413D01*
X149825520Y-112167710D01*
X149670648Y-112103560D01*
X149531267Y-112010428D01*
X149412733Y-111891894D01*
X149319601Y-111752513D01*
X149255451Y-111597641D01*
X149222748Y-111433229D01*
X149222748Y-111265597D01*
X149255451Y-111101185D01*
X149319601Y-110946313D01*
X149412733Y-110806932D01*
X149531267Y-110688398D01*
X149670648Y-110595266D01*
X149825520Y-110531116D01*
X149989932Y-110498413D01*
X150157564Y-110498413D01*
X150321976Y-110531116D01*
G37*
G36*
X166345932Y-109392328D02*
G01*
X166500804Y-109456478D01*
X166640185Y-109549610D01*
X166758719Y-109668144D01*
X166851851Y-109807525D01*
X166916001Y-109962397D01*
X166948704Y-110126809D01*
X166948704Y-110294441D01*
X166916001Y-110458853D01*
X166851851Y-110613725D01*
X166758719Y-110753106D01*
X166640185Y-110871640D01*
X166500804Y-110964772D01*
X166345932Y-111028922D01*
X166181520Y-111061625D01*
X166013888Y-111061625D01*
X165849476Y-111028922D01*
X165694604Y-110964772D01*
X165555223Y-110871640D01*
X165436689Y-110753106D01*
X165343557Y-110613725D01*
X165279407Y-110458853D01*
X165246704Y-110294441D01*
X165246704Y-110126809D01*
X165279407Y-109962397D01*
X165343557Y-109807525D01*
X165436689Y-109668144D01*
X165555223Y-109549610D01*
X165694604Y-109456478D01*
X165849476Y-109392328D01*
X166013888Y-109359625D01*
X166181520Y-109359625D01*
X166345932Y-109392328D01*
G37*
G36*
X149349960Y-108184462D02*
G01*
X149504832Y-108248612D01*
X149644213Y-108341744D01*
X149762747Y-108460278D01*
X149855879Y-108599659D01*
X149920029Y-108754531D01*
X149952732Y-108918943D01*
X149952732Y-109086575D01*
X149920029Y-109250987D01*
X149855879Y-109405859D01*
X149762747Y-109545240D01*
X149644213Y-109663774D01*
X149504832Y-109756906D01*
X149349960Y-109821056D01*
X149185548Y-109853759D01*
X149017916Y-109853759D01*
X148853504Y-109821056D01*
X148698632Y-109756906D01*
X148559251Y-109663774D01*
X148440717Y-109545240D01*
X148347585Y-109405859D01*
X148283435Y-109250987D01*
X148250732Y-109086575D01*
X148250732Y-108918943D01*
X148283435Y-108754531D01*
X148347585Y-108599659D01*
X148440717Y-108460278D01*
X148559251Y-108341744D01*
X148698632Y-108248612D01*
X148853504Y-108184462D01*
X149017916Y-108151759D01*
X149185548Y-108151759D01*
X149349960Y-108184462D01*
G37*
G36*
X165373916Y-107045674D02*
G01*
X165528788Y-107109824D01*
X165668169Y-107202956D01*
X165786703Y-107321490D01*
X165879835Y-107460871D01*
X165943985Y-107615743D01*
X165976688Y-107780155D01*
X165976688Y-107947787D01*
X165943985Y-108112199D01*
X165879835Y-108267071D01*
X165786703Y-108406452D01*
X165668169Y-108524986D01*
X165528788Y-108618118D01*
X165373916Y-108682268D01*
X165209504Y-108714971D01*
X165041872Y-108714971D01*
X164877460Y-108682268D01*
X164722588Y-108618118D01*
X164583207Y-108524986D01*
X164464673Y-108406452D01*
X164371541Y-108267071D01*
X164307391Y-108112199D01*
X164274688Y-107947787D01*
X164274688Y-107780155D01*
X164307391Y-107615743D01*
X164371541Y-107460871D01*
X164464673Y-107321490D01*
X164583207Y-107202956D01*
X164722588Y-107109824D01*
X164877460Y-107045674D01*
X165041872Y-107012971D01*
X165209504Y-107012971D01*
X165373916Y-107045674D01*
G37*
G36*
X148377944Y-105837808D02*
G01*
X148532816Y-105901958D01*
X148672197Y-105995090D01*
X148790731Y-106113624D01*
X148883863Y-106253005D01*
X148948013Y-106407877D01*
X148980716Y-106572289D01*
X148980716Y-106739921D01*
X148948013Y-106904333D01*
X148883863Y-107059205D01*
X148790731Y-107198586D01*
X148672197Y-107317120D01*
X148532816Y-107410252D01*
X148377944Y-107474402D01*
X148213532Y-107507105D01*
X148045900Y-107507105D01*
X147881488Y-107474402D01*
X147726616Y-107410252D01*
X147587235Y-107317120D01*
X147468701Y-107198586D01*
X147375569Y-107059205D01*
X147311419Y-106904333D01*
X147278716Y-106739921D01*
X147278716Y-106572289D01*
X147311419Y-106407877D01*
X147375569Y-106253005D01*
X147468701Y-106113624D01*
X147587235Y-105995090D01*
X147726616Y-105901958D01*
X147881488Y-105837808D01*
X148045900Y-105805105D01*
X148213532Y-105805105D01*
X148377944Y-105837808D01*
G37*
G36*
X164401900Y-104699020D02*
G01*
X164556772Y-104763170D01*
X164696153Y-104856302D01*
X164814687Y-104974836D01*
X164907819Y-105114217D01*
X164971969Y-105269089D01*
X165004672Y-105433501D01*
X165004672Y-105601133D01*
X164971969Y-105765545D01*
X164907819Y-105920417D01*
X164814687Y-106059798D01*
X164696153Y-106178332D01*
X164556772Y-106271464D01*
X164401900Y-106335614D01*
X164237488Y-106368317D01*
X164069856Y-106368317D01*
X163905444Y-106335614D01*
X163750572Y-106271464D01*
X163611191Y-106178332D01*
X163492657Y-106059798D01*
X163399525Y-105920417D01*
X163335375Y-105765545D01*
X163302672Y-105601133D01*
X163302672Y-105433501D01*
X163335375Y-105269089D01*
X163399525Y-105114217D01*
X163492657Y-104974836D01*
X163611191Y-104856302D01*
X163750572Y-104763170D01*
X163905444Y-104699020D01*
X164069856Y-104666317D01*
X164237488Y-104666317D01*
X164401900Y-104699020D01*
G37*
G36*
X147405928Y-103491154D02*
G01*
X147560800Y-103555304D01*
X147700181Y-103648436D01*
X147818715Y-103766970D01*
X147911847Y-103906351D01*
X147975997Y-104061223D01*
X148008700Y-104225635D01*
X148008700Y-104393267D01*
X147975997Y-104557679D01*
X147911847Y-104712551D01*
X147818715Y-104851932D01*
X147700181Y-104970466D01*
X147560800Y-105063598D01*
X147405928Y-105127748D01*
X147241516Y-105160451D01*
X147073884Y-105160451D01*
X146909472Y-105127748D01*
X146754600Y-105063598D01*
X146615219Y-104970466D01*
X146496685Y-104851932D01*
X146403553Y-104712551D01*
X146339403Y-104557679D01*
X146306700Y-104393267D01*
X146306700Y-104225635D01*
X146339403Y-104061223D01*
X146403553Y-103906351D01*
X146496685Y-103766970D01*
X146615219Y-103648436D01*
X146754600Y-103555304D01*
X146909472Y-103491154D01*
X147073884Y-103458451D01*
X147241516Y-103458451D01*
X147405928Y-103491154D01*
G37*
G36*
X163429884Y-102352366D02*
G01*
X163584756Y-102416516D01*
X163724137Y-102509648D01*
X163842671Y-102628182D01*
X163935803Y-102767563D01*
X163999953Y-102922435D01*
X164032656Y-103086847D01*
X164032656Y-103254479D01*
X163999953Y-103418891D01*
X163935803Y-103573763D01*
X163842671Y-103713144D01*
X163724137Y-103831678D01*
X163584756Y-103924810D01*
X163429884Y-103988960D01*
X163265472Y-104021663D01*
X163097840Y-104021663D01*
X162933428Y-103988960D01*
X162778556Y-103924810D01*
X162639175Y-103831678D01*
X162520641Y-103713144D01*
X162427509Y-103573763D01*
X162363359Y-103418891D01*
X162330656Y-103254479D01*
X162330656Y-103086847D01*
X162363359Y-102922435D01*
X162427509Y-102767563D01*
X162520641Y-102628182D01*
X162639175Y-102509648D01*
X162778556Y-102416516D01*
X162933428Y-102352366D01*
X163097840Y-102319663D01*
X163265472Y-102319663D01*
X163429884Y-102352366D01*
G37*
G36*
X162457868Y-100005712D02*
G01*
X162612740Y-100069862D01*
X162752121Y-100162994D01*
X162870655Y-100281528D01*
X162963787Y-100420909D01*
X163027937Y-100575781D01*
X163060640Y-100740193D01*
X163060640Y-100907825D01*
X163027937Y-101072237D01*
X162963787Y-101227109D01*
X162870655Y-101366490D01*
X162752121Y-101485024D01*
X162612740Y-101578156D01*
X162457868Y-101642306D01*
X162293456Y-101675009D01*
X162125824Y-101675009D01*
X161961412Y-101642306D01*
X161806540Y-101578156D01*
X161667159Y-101485024D01*
X161548625Y-101366490D01*
X161455493Y-101227109D01*
X161391343Y-101072237D01*
X161358640Y-100907825D01*
X161358640Y-100740193D01*
X161391343Y-100575781D01*
X161455493Y-100420909D01*
X161548625Y-100281528D01*
X161667159Y-100162994D01*
X161806540Y-100069862D01*
X161961412Y-100005712D01*
X162125824Y-99973009D01*
X162293456Y-99973009D01*
X162457868Y-100005712D01*
G37*
G36*
X145665996Y-99218750D02*
G01*
X144462500Y-100422246D01*
X143259004Y-99218750D01*
X144462500Y-98015254D01*
X145665996Y-99218750D01*
G37*
G36*
X175828496Y-99218750D02*
G01*
X174625000Y-100422246D01*
X173421504Y-99218750D01*
X174625000Y-98015254D01*
X175828496Y-99218750D01*
G37*
G36*
X161485852Y-97659058D02*
G01*
X161640724Y-97723208D01*
X161780105Y-97816340D01*
X161898639Y-97934874D01*
X161991771Y-98074255D01*
X162055921Y-98229127D01*
X162088624Y-98393539D01*
X162088624Y-98561171D01*
X162055921Y-98725583D01*
X161991771Y-98880455D01*
X161898639Y-99019836D01*
X161780105Y-99138370D01*
X161640724Y-99231502D01*
X161485852Y-99295652D01*
X161321440Y-99328355D01*
X161153808Y-99328355D01*
X160989396Y-99295652D01*
X160834524Y-99231502D01*
X160695143Y-99138370D01*
X160576609Y-99019836D01*
X160483477Y-98880455D01*
X160419327Y-98725583D01*
X160386624Y-98561171D01*
X160386624Y-98393539D01*
X160419327Y-98229127D01*
X160483477Y-98074255D01*
X160576609Y-97934874D01*
X160695143Y-97816340D01*
X160834524Y-97723208D01*
X160989396Y-97659058D01*
X161153808Y-97626355D01*
X161321440Y-97626355D01*
X161485852Y-97659058D01*
G37*
G36*
X119287049Y-96502366D02*
G01*
X119398234Y-96524482D01*
X119607703Y-96611247D01*
X119796220Y-96737210D01*
X119956540Y-96897530D01*
X120082503Y-97086047D01*
X120169268Y-97295516D01*
X120213500Y-97517886D01*
X120213500Y-97744614D01*
X120169268Y-97966984D01*
X120082503Y-98176453D01*
X119956540Y-98364970D01*
X119796220Y-98525290D01*
X119607703Y-98651253D01*
X119398234Y-98738018D01*
X119287049Y-98760134D01*
X119175865Y-98782250D01*
X118949135Y-98782250D01*
X118837951Y-98760134D01*
X118726766Y-98738018D01*
X118517297Y-98651253D01*
X118328780Y-98525290D01*
X118168460Y-98364970D01*
X118042497Y-98176453D01*
X117955732Y-97966984D01*
X117911500Y-97744614D01*
X117911500Y-97517886D01*
X117955732Y-97295516D01*
X118042497Y-97086047D01*
X118168460Y-96897530D01*
X118328780Y-96737210D01*
X118517297Y-96611247D01*
X118726766Y-96524482D01*
X118837951Y-96502366D01*
X118949135Y-96480250D01*
X119175865Y-96480250D01*
X119287049Y-96502366D01*
G37*
G36*
X180261382Y-93012299D02*
G01*
X180416254Y-93076449D01*
X180555635Y-93169581D01*
X180674169Y-93288115D01*
X180767301Y-93427496D01*
X180831451Y-93582368D01*
X180864154Y-93746780D01*
X180864154Y-93914412D01*
X180831451Y-94078824D01*
X180767301Y-94233696D01*
X180674169Y-94373077D01*
X180555635Y-94491611D01*
X180416254Y-94584743D01*
X180261382Y-94648893D01*
X180096970Y-94681596D01*
X179929338Y-94681596D01*
X179764926Y-94648893D01*
X179610054Y-94584743D01*
X179470673Y-94491611D01*
X179352139Y-94373077D01*
X179259007Y-94233696D01*
X179194857Y-94078824D01*
X179162154Y-93914412D01*
X179162154Y-93746780D01*
X179194857Y-93582368D01*
X179259007Y-93427496D01*
X179352139Y-93288115D01*
X179470673Y-93169581D01*
X179610054Y-93076449D01*
X179764926Y-93012299D01*
X179929338Y-92979596D01*
X180096970Y-92979596D01*
X180261382Y-93012299D01*
G37*
G36*
X139322574Y-93012299D02*
G01*
X139477446Y-93076449D01*
X139616827Y-93169581D01*
X139735361Y-93288115D01*
X139828493Y-93427496D01*
X139892643Y-93582368D01*
X139925346Y-93746780D01*
X139925346Y-93914412D01*
X139892643Y-94078824D01*
X139828493Y-94233696D01*
X139735361Y-94373077D01*
X139616827Y-94491611D01*
X139477446Y-94584743D01*
X139322574Y-94648893D01*
X139158162Y-94681596D01*
X138990530Y-94681596D01*
X138826118Y-94648893D01*
X138671246Y-94584743D01*
X138531865Y-94491611D01*
X138413331Y-94373077D01*
X138320199Y-94233696D01*
X138256049Y-94078824D01*
X138223346Y-93914412D01*
X138223346Y-93746780D01*
X138256049Y-93582368D01*
X138320199Y-93427496D01*
X138413331Y-93288115D01*
X138531865Y-93169581D01*
X138671246Y-93076449D01*
X138826118Y-93012299D01*
X138990530Y-92979596D01*
X139158162Y-92979596D01*
X139322574Y-93012299D01*
G37*
G36*
X160394750Y-93719750D02*
G01*
X158692750Y-93719750D01*
X158692750Y-92017750D01*
X160394750Y-92017750D01*
X160394750Y-93719750D01*
G37*
G36*
X134830956Y-88426687D02*
G01*
X134999478Y-88496491D01*
X135151143Y-88597830D01*
X135280124Y-88726811D01*
X135381463Y-88878476D01*
X135451267Y-89046998D01*
X135486852Y-89225899D01*
X135486852Y-89408305D01*
X135451267Y-89587206D01*
X135381463Y-89755728D01*
X135280124Y-89907393D01*
X135151143Y-90036374D01*
X134999478Y-90137713D01*
X134830956Y-90207517D01*
X134652055Y-90243102D01*
X134469649Y-90243102D01*
X134290748Y-90207517D01*
X134122226Y-90137713D01*
X133970561Y-90036374D01*
X133841580Y-89907393D01*
X133740241Y-89755728D01*
X133670437Y-89587206D01*
X133634852Y-89408305D01*
X133634852Y-89225899D01*
X133670437Y-89046998D01*
X133740241Y-88878476D01*
X133841580Y-88726811D01*
X133970561Y-88597830D01*
X134122226Y-88496491D01*
X134290748Y-88426687D01*
X134469649Y-88391102D01*
X134652055Y-88391102D01*
X134830956Y-88426687D01*
G37*
G36*
X184796752Y-88426687D02*
G01*
X184965274Y-88496491D01*
X185116939Y-88597830D01*
X185245920Y-88726811D01*
X185347259Y-88878476D01*
X185417063Y-89046998D01*
X185452648Y-89225899D01*
X185452648Y-89408305D01*
X185417063Y-89587206D01*
X185347259Y-89755728D01*
X185245920Y-89907393D01*
X185116939Y-90036374D01*
X184965274Y-90137713D01*
X184796752Y-90207517D01*
X184617851Y-90243102D01*
X184435445Y-90243102D01*
X184256544Y-90207517D01*
X184088022Y-90137713D01*
X183936357Y-90036374D01*
X183807376Y-89907393D01*
X183706037Y-89755728D01*
X183636233Y-89587206D01*
X183600648Y-89408305D01*
X183600648Y-89225899D01*
X183636233Y-89046998D01*
X183706037Y-88878476D01*
X183807376Y-88726811D01*
X183936357Y-88597830D01*
X184088022Y-88496491D01*
X184256544Y-88426687D01*
X184435445Y-88391102D01*
X184617851Y-88391102D01*
X184796752Y-88426687D01*
G37*
G36*
X131565224Y-83758684D02*
G01*
X131783224Y-83848983D01*
X131937373Y-83912833D01*
X132272298Y-84136623D01*
X132557127Y-84421452D01*
X132780917Y-84756377D01*
X132780917Y-84756378D01*
X132935066Y-85128526D01*
X133013650Y-85523594D01*
X133013650Y-85926406D01*
X132935066Y-86321474D01*
X132844767Y-86539474D01*
X132780917Y-86693623D01*
X132557127Y-87028548D01*
X132272298Y-87313377D01*
X131937373Y-87537167D01*
X131783224Y-87601017D01*
X131565224Y-87691316D01*
X131170156Y-87769900D01*
X130767344Y-87769900D01*
X130372276Y-87691316D01*
X130154276Y-87601017D01*
X130000127Y-87537167D01*
X129665202Y-87313377D01*
X129380373Y-87028548D01*
X129156583Y-86693623D01*
X129092733Y-86539474D01*
X129002434Y-86321474D01*
X128923850Y-85926406D01*
X128923850Y-85523594D01*
X129002434Y-85128526D01*
X129156583Y-84756378D01*
X129156583Y-84756377D01*
X129380373Y-84421452D01*
X129665202Y-84136623D01*
X130000127Y-83912833D01*
X130154276Y-83848983D01*
X130372276Y-83758684D01*
X130767344Y-83680100D01*
X131170156Y-83680100D01*
X131565224Y-83758684D01*
G37*
G36*
X188715224Y-83758684D02*
G01*
X188933224Y-83848983D01*
X189087373Y-83912833D01*
X189422298Y-84136623D01*
X189707127Y-84421452D01*
X189930917Y-84756377D01*
X189930917Y-84756378D01*
X190085066Y-85128526D01*
X190163650Y-85523594D01*
X190163650Y-85926406D01*
X190085066Y-86321474D01*
X189994767Y-86539474D01*
X189930917Y-86693623D01*
X189707127Y-87028548D01*
X189422298Y-87313377D01*
X189087373Y-87537167D01*
X188933224Y-87601017D01*
X188715224Y-87691316D01*
X188320156Y-87769900D01*
X187917344Y-87769900D01*
X187522276Y-87691316D01*
X187304276Y-87601017D01*
X187150127Y-87537167D01*
X186815202Y-87313377D01*
X186530373Y-87028548D01*
X186306583Y-86693623D01*
X186242733Y-86539474D01*
X186152434Y-86321474D01*
X186073850Y-85926406D01*
X186073850Y-85523594D01*
X186152434Y-85128526D01*
X186306583Y-84756378D01*
X186306583Y-84756377D01*
X186530373Y-84421452D01*
X186815202Y-84136623D01*
X187150127Y-83912833D01*
X187304276Y-83848983D01*
X187522276Y-83758684D01*
X187917344Y-83680100D01*
X188320156Y-83680100D01*
X188715224Y-83758684D01*
G37*
G36*
X159791978Y-84430453D02*
G01*
X159946850Y-84494603D01*
X160086231Y-84587735D01*
X160204765Y-84706269D01*
X160297897Y-84845650D01*
X160362047Y-85000522D01*
X160394750Y-85164934D01*
X160394750Y-85332566D01*
X160362047Y-85496978D01*
X160297897Y-85651850D01*
X160204765Y-85791231D01*
X160086231Y-85909765D01*
X159946850Y-86002897D01*
X159791978Y-86067047D01*
X159627566Y-86099750D01*
X159459934Y-86099750D01*
X159295522Y-86067047D01*
X159140650Y-86002897D01*
X159001269Y-85909765D01*
X158882735Y-85791231D01*
X158789603Y-85651850D01*
X158725453Y-85496978D01*
X158692750Y-85332566D01*
X158692750Y-85164934D01*
X158725453Y-85000522D01*
X158789603Y-84845650D01*
X158882735Y-84706269D01*
X159001269Y-84587735D01*
X159140650Y-84494603D01*
X159295522Y-84430453D01*
X159459934Y-84397750D01*
X159627566Y-84397750D01*
X159791978Y-84430453D01*
G37*
G36*
X191980956Y-81242483D02*
G01*
X192149478Y-81312287D01*
X192301143Y-81413626D01*
X192430124Y-81542607D01*
X192531463Y-81694272D01*
X192601267Y-81862794D01*
X192636852Y-82041695D01*
X192636852Y-82224101D01*
X192601267Y-82403002D01*
X192531463Y-82571524D01*
X192430124Y-82723189D01*
X192301143Y-82852170D01*
X192149478Y-82953509D01*
X191980956Y-83023313D01*
X191802055Y-83058898D01*
X191619649Y-83058898D01*
X191440748Y-83023313D01*
X191272226Y-82953509D01*
X191120561Y-82852170D01*
X190991580Y-82723189D01*
X190890241Y-82571524D01*
X190820437Y-82403002D01*
X190784852Y-82224101D01*
X190784852Y-82041695D01*
X190820437Y-81862794D01*
X190890241Y-81694272D01*
X190991580Y-81542607D01*
X191120561Y-81413626D01*
X191272226Y-81312287D01*
X191440748Y-81242483D01*
X191619649Y-81206898D01*
X191802055Y-81206898D01*
X191980956Y-81242483D01*
G37*
G36*
X127646752Y-81242483D02*
G01*
X127815274Y-81312287D01*
X127966939Y-81413626D01*
X128095920Y-81542607D01*
X128197259Y-81694272D01*
X128267063Y-81862794D01*
X128302648Y-82041695D01*
X128302648Y-82224101D01*
X128267063Y-82403002D01*
X128197259Y-82571524D01*
X128095920Y-82723189D01*
X127966939Y-82852170D01*
X127815274Y-82953509D01*
X127646752Y-83023313D01*
X127467851Y-83058898D01*
X127285445Y-83058898D01*
X127106544Y-83023313D01*
X126938022Y-82953509D01*
X126786357Y-82852170D01*
X126657376Y-82723189D01*
X126556037Y-82571524D01*
X126486233Y-82403002D01*
X126450648Y-82224101D01*
X126450648Y-82041695D01*
X126486233Y-81862794D01*
X126556037Y-81694272D01*
X126657376Y-81542607D01*
X126786357Y-81413626D01*
X126938022Y-81312287D01*
X127106544Y-81242483D01*
X127285445Y-81206898D01*
X127467851Y-81206898D01*
X127646752Y-81242483D01*
G37*
G36*
X160607604Y-78008335D02*
G01*
X160776126Y-78078139D01*
X160927791Y-78179478D01*
X161056772Y-78308459D01*
X161158111Y-78460124D01*
X161227915Y-78628646D01*
X161263500Y-78807547D01*
X161263500Y-78989953D01*
X161227915Y-79168854D01*
X161158111Y-79337376D01*
X161056772Y-79489041D01*
X160927791Y-79618022D01*
X160776126Y-79719361D01*
X160607604Y-79789165D01*
X160428703Y-79824750D01*
X160246297Y-79824750D01*
X160067396Y-79789165D01*
X159898874Y-79719361D01*
X159747209Y-79618022D01*
X159618228Y-79489041D01*
X159516889Y-79337376D01*
X159447085Y-79168854D01*
X159411500Y-78989953D01*
X159411500Y-78807547D01*
X159447085Y-78628646D01*
X159516889Y-78460124D01*
X159618228Y-78308459D01*
X159747209Y-78179478D01*
X159898874Y-78078139D01*
X160067396Y-78008335D01*
X160246297Y-77972750D01*
X160428703Y-77972750D01*
X160607604Y-78008335D01*
G37*
G36*
X160933974Y-71852434D02*
G01*
X161092824Y-71918232D01*
X161306123Y-72006583D01*
X161641048Y-72230373D01*
X161925877Y-72515202D01*
X162149667Y-72850127D01*
X162213517Y-73004276D01*
X162303816Y-73222276D01*
X162382400Y-73617344D01*
X162382400Y-74020156D01*
X162303816Y-74415224D01*
X162213517Y-74633224D01*
X162149667Y-74787373D01*
X161925877Y-75122298D01*
X161641048Y-75407127D01*
X161306123Y-75630917D01*
X161151974Y-75694767D01*
X160933974Y-75785066D01*
X160538906Y-75863650D01*
X160136094Y-75863650D01*
X159741026Y-75785066D01*
X159523026Y-75694767D01*
X159368877Y-75630917D01*
X159033952Y-75407127D01*
X158749123Y-75122298D01*
X158525333Y-74787373D01*
X158461483Y-74633224D01*
X158371184Y-74415224D01*
X158292600Y-74020156D01*
X158292600Y-73617344D01*
X158371184Y-73222276D01*
X158461483Y-73004276D01*
X158525333Y-72850127D01*
X158749123Y-72515202D01*
X159033952Y-72230373D01*
X159368877Y-72006583D01*
X159582176Y-71918232D01*
X159741026Y-71852434D01*
X160136094Y-71773850D01*
X160538906Y-71773850D01*
X160933974Y-71852434D01*
G37*
G36*
X176437049Y-71896116D02*
G01*
X176548234Y-71918232D01*
X176757703Y-72004997D01*
X176946220Y-72130960D01*
X177106540Y-72291280D01*
X177232503Y-72479797D01*
X177319268Y-72689266D01*
X177363500Y-72911636D01*
X177363500Y-73138364D01*
X177319268Y-73360734D01*
X177232503Y-73570203D01*
X177106540Y-73758720D01*
X176946220Y-73919040D01*
X176757703Y-74045003D01*
X176548234Y-74131768D01*
X176437049Y-74153884D01*
X176325865Y-74176000D01*
X176099135Y-74176000D01*
X175987951Y-74153884D01*
X175876766Y-74131768D01*
X175667297Y-74045003D01*
X175478780Y-73919040D01*
X175318460Y-73758720D01*
X175192497Y-73570203D01*
X175105732Y-73360734D01*
X175061500Y-73138364D01*
X175061500Y-72911636D01*
X175105732Y-72689266D01*
X175192497Y-72479797D01*
X175318460Y-72291280D01*
X175478780Y-72130960D01*
X175667297Y-72004997D01*
X175876766Y-71918232D01*
X175987951Y-71896116D01*
X176099135Y-71874000D01*
X176325865Y-71874000D01*
X176437049Y-71896116D01*
G37*
G36*
X160607604Y-67848335D02*
G01*
X160776126Y-67918139D01*
X160927791Y-68019478D01*
X161056772Y-68148459D01*
X161158111Y-68300124D01*
X161227915Y-68468646D01*
X161263500Y-68647547D01*
X161263500Y-68829953D01*
X161227915Y-69008854D01*
X161158111Y-69177376D01*
X161056772Y-69329041D01*
X160927791Y-69458022D01*
X160776126Y-69559361D01*
X160607604Y-69629165D01*
X160428703Y-69664750D01*
X160246297Y-69664750D01*
X160067396Y-69629165D01*
X159898874Y-69559361D01*
X159747209Y-69458022D01*
X159618228Y-69329041D01*
X159516889Y-69177376D01*
X159447085Y-69008854D01*
X159411500Y-68829953D01*
X159411500Y-68647547D01*
X159447085Y-68468646D01*
X159516889Y-68300124D01*
X159618228Y-68148459D01*
X159747209Y-68019478D01*
X159898874Y-67918139D01*
X160067396Y-67848335D01*
X160246297Y-67812750D01*
X160428703Y-67812750D01*
X160607604Y-67848335D01*
G37*
M02*
