M48
; DRILL file {KiCad (5.1.5)-3} date 4/4/2020 2:42:30 PM
; FORMAT={-:-/ absolute / inch / decimal}
; #@! TF.CreationDate,2020-04-04T14:42:30-04:00
; #@! TF.GenerationSoftware,Kicad,Pcbnew,(5.1.5)-3
; #@! TF.FileFunction,NonPlated,1,2,NPTH
FMAT,2
INCH
T1C0.0689
T2C0.0866
T3C0.1570
%
G90
G05
T1
X4.7977Y-6.2977
X8.5938Y-4.3
X6.0812Y-2.1875
X3.9688Y-4.3
X3.9688Y-4.7
X7.7961Y-2.7336
X8.0789Y-3.0164
X7.7648Y-6.2664
X8.0477Y-5.9836
X4.5148Y-6.0148
X8.5938Y-4.7
X6.05Y-6.8125
X6.45Y-6.8125
X6.4813Y-2.1875
X4.5148Y-2.9852
X4.7977Y-2.7023
T2
X5.3438Y-2.1562
X13.0625Y-6.8438
X3.9375Y-5.4375
X7.2188Y-6.8438
X14.4688Y-3.5625
X8.625Y-3.5625
X11.1875Y-2.1562
X9.7812Y-5.4375
T3
X6.2812Y-2.1875
X4.6562Y-2.8438
X3.9688Y-4.5
X7.9375Y-2.875
X7.9062Y-6.125
X4.6562Y-6.1562
X8.5938Y-4.5
X6.25Y-6.8125
T0
M30
