G04 #@! TF.GenerationSoftware,KiCad,Pcbnew,(5.1.5)-3*
G04 #@! TF.CreationDate,2020-04-04T14:42:27-04:00*
G04 #@! TF.ProjectId,OctoPad,4f63746f-5061-4642-9e6b-696361645f70,rev?*
G04 #@! TF.SameCoordinates,Original*
G04 #@! TF.FileFunction,Soldermask,Top*
G04 #@! TF.FilePolarity,Negative*
%FSLAX46Y46*%
G04 Gerber Fmt 4.6, Leading zero omitted, Abs format (unit mm)*
G04 Created by KiCad (PCBNEW (5.1.5)-3) date 2020-04-04 14:42:27*
%MOMM*%
%LPD*%
G04 APERTURE LIST*
%ADD10C,0.100000*%
G04 APERTURE END LIST*
D10*
G36*
X159346474Y-171071184D02*
G01*
X159564474Y-171161483D01*
X159718623Y-171225333D01*
X160053548Y-171449123D01*
X160338377Y-171733952D01*
X160562167Y-172068877D01*
X160594562Y-172147086D01*
X160716316Y-172441026D01*
X160794900Y-172836094D01*
X160794900Y-173238906D01*
X160716316Y-173633974D01*
X160665451Y-173756772D01*
X160562167Y-174006123D01*
X160338377Y-174341048D01*
X160053548Y-174625877D01*
X159718623Y-174849667D01*
X159564474Y-174913517D01*
X159346474Y-175003816D01*
X158951406Y-175082400D01*
X158548594Y-175082400D01*
X158153526Y-175003816D01*
X157935526Y-174913517D01*
X157781377Y-174849667D01*
X157446452Y-174625877D01*
X157161623Y-174341048D01*
X156937833Y-174006123D01*
X156834549Y-173756772D01*
X156783684Y-173633974D01*
X156705100Y-173238906D01*
X156705100Y-172836094D01*
X156783684Y-172441026D01*
X156905438Y-172147086D01*
X156937833Y-172068877D01*
X157161623Y-171733952D01*
X157446452Y-171449123D01*
X157781377Y-171225333D01*
X157935526Y-171161483D01*
X158153526Y-171071184D01*
X158548594Y-170992600D01*
X158951406Y-170992600D01*
X159346474Y-171071184D01*
G37*
G36*
X332012049Y-172702366D02*
G01*
X332123234Y-172724482D01*
X332332703Y-172811247D01*
X332521220Y-172937210D01*
X332681540Y-173097530D01*
X332776004Y-173238906D01*
X332807504Y-173286049D01*
X332894268Y-173495517D01*
X332938500Y-173717885D01*
X332938500Y-173944615D01*
X332926265Y-174006122D01*
X332894268Y-174166984D01*
X332807503Y-174376453D01*
X332681540Y-174564970D01*
X332521220Y-174725290D01*
X332332703Y-174851253D01*
X332123234Y-174938018D01*
X332012049Y-174960134D01*
X331900865Y-174982250D01*
X331674135Y-174982250D01*
X331562951Y-174960134D01*
X331451766Y-174938018D01*
X331242297Y-174851253D01*
X331053780Y-174725290D01*
X330893460Y-174564970D01*
X330767497Y-174376453D01*
X330680732Y-174166984D01*
X330648735Y-174006122D01*
X330636500Y-173944615D01*
X330636500Y-173717885D01*
X330680732Y-173495517D01*
X330767496Y-173286049D01*
X330798996Y-173238906D01*
X330893460Y-173097530D01*
X331053780Y-172937210D01*
X331242297Y-172811247D01*
X331451766Y-172724482D01*
X331562951Y-172702366D01*
X331674135Y-172680250D01*
X331900865Y-172680250D01*
X332012049Y-172702366D01*
G37*
G36*
X183580799Y-172702366D02*
G01*
X183691984Y-172724482D01*
X183901453Y-172811247D01*
X184089970Y-172937210D01*
X184250290Y-173097530D01*
X184344754Y-173238906D01*
X184376254Y-173286049D01*
X184463018Y-173495517D01*
X184507250Y-173717885D01*
X184507250Y-173944615D01*
X184495015Y-174006122D01*
X184463018Y-174166984D01*
X184376253Y-174376453D01*
X184250290Y-174564970D01*
X184089970Y-174725290D01*
X183901453Y-174851253D01*
X183691984Y-174938018D01*
X183580799Y-174960134D01*
X183469615Y-174982250D01*
X183242885Y-174982250D01*
X183131701Y-174960134D01*
X183020516Y-174938018D01*
X182811047Y-174851253D01*
X182622530Y-174725290D01*
X182462210Y-174564970D01*
X182336247Y-174376453D01*
X182249482Y-174166984D01*
X182217485Y-174006122D01*
X182205250Y-173944615D01*
X182205250Y-173717885D01*
X182249482Y-173495517D01*
X182336246Y-173286049D01*
X182367746Y-173238906D01*
X182462210Y-173097530D01*
X182622530Y-172937210D01*
X182811047Y-172811247D01*
X183020516Y-172724482D01*
X183131701Y-172702366D01*
X183242885Y-172680250D01*
X183469615Y-172680250D01*
X183580799Y-172702366D01*
G37*
G36*
X153940104Y-172147085D02*
G01*
X154108626Y-172216889D01*
X154260291Y-172318228D01*
X154389272Y-172447209D01*
X154490611Y-172598874D01*
X154560415Y-172767396D01*
X154596000Y-172946297D01*
X154596000Y-173128703D01*
X154560415Y-173307604D01*
X154490611Y-173476126D01*
X154389272Y-173627791D01*
X154260291Y-173756772D01*
X154108626Y-173858111D01*
X153940104Y-173927915D01*
X153761203Y-173963500D01*
X153578797Y-173963500D01*
X153399896Y-173927915D01*
X153231374Y-173858111D01*
X153079709Y-173756772D01*
X152950728Y-173627791D01*
X152849389Y-173476126D01*
X152779585Y-173307604D01*
X152744000Y-173128703D01*
X152744000Y-172946297D01*
X152779585Y-172767396D01*
X152849389Y-172598874D01*
X152950728Y-172447209D01*
X153079709Y-172318228D01*
X153231374Y-172216889D01*
X153399896Y-172147085D01*
X153578797Y-172111500D01*
X153761203Y-172111500D01*
X153940104Y-172147085D01*
G37*
G36*
X164100104Y-172147085D02*
G01*
X164268626Y-172216889D01*
X164420291Y-172318228D01*
X164549272Y-172447209D01*
X164650611Y-172598874D01*
X164720415Y-172767396D01*
X164756000Y-172946297D01*
X164756000Y-173128703D01*
X164720415Y-173307604D01*
X164650611Y-173476126D01*
X164549272Y-173627791D01*
X164420291Y-173756772D01*
X164268626Y-173858111D01*
X164100104Y-173927915D01*
X163921203Y-173963500D01*
X163738797Y-173963500D01*
X163559896Y-173927915D01*
X163391374Y-173858111D01*
X163239709Y-173756772D01*
X163110728Y-173627791D01*
X163009389Y-173476126D01*
X162939585Y-173307604D01*
X162904000Y-173128703D01*
X162904000Y-172946297D01*
X162939585Y-172767396D01*
X163009389Y-172598874D01*
X163110728Y-172447209D01*
X163239709Y-172318228D01*
X163391374Y-172216889D01*
X163559896Y-172147085D01*
X163738797Y-172111500D01*
X163921203Y-172111500D01*
X164100104Y-172147085D01*
G37*
G36*
X122130956Y-159070437D02*
G01*
X122299478Y-159140241D01*
X122451143Y-159241580D01*
X122580124Y-159370561D01*
X122681463Y-159522226D01*
X122751267Y-159690748D01*
X122786852Y-159869649D01*
X122786852Y-160052055D01*
X122751267Y-160230956D01*
X122681463Y-160399478D01*
X122580124Y-160551143D01*
X122451143Y-160680124D01*
X122299478Y-160781463D01*
X122130956Y-160851267D01*
X121952055Y-160886852D01*
X121769649Y-160886852D01*
X121590748Y-160851267D01*
X121422226Y-160781463D01*
X121270561Y-160680124D01*
X121141580Y-160551143D01*
X121040241Y-160399478D01*
X120970437Y-160230956D01*
X120934852Y-160052055D01*
X120934852Y-159869649D01*
X120970437Y-159690748D01*
X121040241Y-159522226D01*
X121141580Y-159370561D01*
X121270561Y-159241580D01*
X121422226Y-159140241D01*
X121590748Y-159070437D01*
X121769649Y-159034852D01*
X121952055Y-159034852D01*
X122130956Y-159070437D01*
G37*
G36*
X197496752Y-158276687D02*
G01*
X197665274Y-158346491D01*
X197816939Y-158447830D01*
X197945920Y-158576811D01*
X198047259Y-158728476D01*
X198117063Y-158896998D01*
X198152648Y-159075899D01*
X198152648Y-159258305D01*
X198117063Y-159437206D01*
X198047259Y-159605728D01*
X197945920Y-159757393D01*
X197816939Y-159886374D01*
X197665274Y-159987713D01*
X197496752Y-160057517D01*
X197317851Y-160093102D01*
X197135445Y-160093102D01*
X196956544Y-160057517D01*
X196788022Y-159987713D01*
X196636357Y-159886374D01*
X196507376Y-159757393D01*
X196406037Y-159605728D01*
X196336233Y-159437206D01*
X196300648Y-159258305D01*
X196300648Y-159075899D01*
X196336233Y-158896998D01*
X196406037Y-158728476D01*
X196507376Y-158576811D01*
X196636357Y-158447830D01*
X196788022Y-158346491D01*
X196956544Y-158276687D01*
X197135445Y-158241102D01*
X197317851Y-158241102D01*
X197496752Y-158276687D01*
G37*
G36*
X118865224Y-154402434D02*
G01*
X119072510Y-154488295D01*
X119237373Y-154556583D01*
X119572298Y-154780373D01*
X119857127Y-155065202D01*
X120080917Y-155400127D01*
X120080917Y-155400128D01*
X120235066Y-155772276D01*
X120313650Y-156167344D01*
X120313650Y-156570156D01*
X120235066Y-156965224D01*
X120152988Y-157163377D01*
X120080917Y-157337373D01*
X119857127Y-157672298D01*
X119572298Y-157957127D01*
X119237373Y-158180917D01*
X119092073Y-158241102D01*
X118865224Y-158335066D01*
X118470156Y-158413650D01*
X118067344Y-158413650D01*
X117672276Y-158335066D01*
X117445427Y-158241102D01*
X117300127Y-158180917D01*
X116965202Y-157957127D01*
X116680373Y-157672298D01*
X116456583Y-157337373D01*
X116384512Y-157163377D01*
X116302434Y-156965224D01*
X116223850Y-156570156D01*
X116223850Y-156167344D01*
X116302434Y-155772276D01*
X116456583Y-155400128D01*
X116456583Y-155400127D01*
X116680373Y-155065202D01*
X116965202Y-154780373D01*
X117300127Y-154556583D01*
X117464990Y-154488295D01*
X117672276Y-154402434D01*
X118067344Y-154323850D01*
X118470156Y-154323850D01*
X118865224Y-154402434D01*
G37*
G36*
X201415224Y-153608684D02*
G01*
X201556163Y-153667063D01*
X201787373Y-153762833D01*
X202122298Y-153986623D01*
X202407127Y-154271452D01*
X202630917Y-154606377D01*
X202630917Y-154606378D01*
X202785066Y-154978526D01*
X202863650Y-155373594D01*
X202863650Y-155776406D01*
X202785066Y-156171474D01*
X202694767Y-156389474D01*
X202630917Y-156543623D01*
X202407127Y-156878548D01*
X202122298Y-157163377D01*
X201787373Y-157387167D01*
X201633224Y-157451017D01*
X201415224Y-157541316D01*
X201020156Y-157619900D01*
X200617344Y-157619900D01*
X200222276Y-157541316D01*
X200004276Y-157451017D01*
X199850127Y-157387167D01*
X199515202Y-157163377D01*
X199230373Y-156878548D01*
X199006583Y-156543623D01*
X198942733Y-156389474D01*
X198852434Y-156171474D01*
X198773850Y-155776406D01*
X198773850Y-155373594D01*
X198852434Y-154978526D01*
X199006583Y-154606378D01*
X199006583Y-154606377D01*
X199230373Y-154271452D01*
X199515202Y-153986623D01*
X199850127Y-153762833D01*
X200081337Y-153667063D01*
X200222276Y-153608684D01*
X200617344Y-153530100D01*
X201020156Y-153530100D01*
X201415224Y-153608684D01*
G37*
G36*
X159791978Y-152851703D02*
G01*
X159946850Y-152915853D01*
X160086231Y-153008985D01*
X160204765Y-153127519D01*
X160297897Y-153266900D01*
X160362047Y-153421772D01*
X160394750Y-153586184D01*
X160394750Y-153753816D01*
X160362047Y-153918228D01*
X160297897Y-154073100D01*
X160204765Y-154212481D01*
X160086231Y-154331015D01*
X159946850Y-154424147D01*
X159791978Y-154488297D01*
X159627566Y-154521000D01*
X159459934Y-154521000D01*
X159295522Y-154488297D01*
X159140650Y-154424147D01*
X159001269Y-154331015D01*
X158882735Y-154212481D01*
X158789603Y-154073100D01*
X158725453Y-153918228D01*
X158692750Y-153753816D01*
X158692750Y-153586184D01*
X158725453Y-153421772D01*
X158789603Y-153266900D01*
X158882735Y-153127519D01*
X159001269Y-153008985D01*
X159140650Y-152915853D01*
X159295522Y-152851703D01*
X159459934Y-152819000D01*
X159627566Y-152819000D01*
X159791978Y-152851703D01*
G37*
G36*
X114946752Y-151886233D02*
G01*
X115115274Y-151956037D01*
X115266939Y-152057376D01*
X115395920Y-152186357D01*
X115497259Y-152338022D01*
X115567063Y-152506544D01*
X115602648Y-152685445D01*
X115602648Y-152867851D01*
X115567063Y-153046752D01*
X115497259Y-153215274D01*
X115395920Y-153366939D01*
X115266939Y-153495920D01*
X115115274Y-153597259D01*
X114946752Y-153667063D01*
X114767851Y-153702648D01*
X114585445Y-153702648D01*
X114406544Y-153667063D01*
X114238022Y-153597259D01*
X114086357Y-153495920D01*
X113957376Y-153366939D01*
X113856037Y-153215274D01*
X113786233Y-153046752D01*
X113750648Y-152867851D01*
X113750648Y-152685445D01*
X113786233Y-152506544D01*
X113856037Y-152338022D01*
X113957376Y-152186357D01*
X114086357Y-152057376D01*
X114238022Y-151956037D01*
X114406544Y-151886233D01*
X114585445Y-151850648D01*
X114767851Y-151850648D01*
X114946752Y-151886233D01*
G37*
G36*
X204680956Y-151092483D02*
G01*
X204849478Y-151162287D01*
X205001143Y-151263626D01*
X205130124Y-151392607D01*
X205231463Y-151544272D01*
X205301267Y-151712794D01*
X205336852Y-151891695D01*
X205336852Y-152074101D01*
X205301267Y-152253002D01*
X205231463Y-152421524D01*
X205130124Y-152573189D01*
X205001143Y-152702170D01*
X204849478Y-152803509D01*
X204680956Y-152873313D01*
X204502055Y-152908898D01*
X204319649Y-152908898D01*
X204140748Y-152873313D01*
X203972226Y-152803509D01*
X203820561Y-152702170D01*
X203691580Y-152573189D01*
X203590241Y-152421524D01*
X203520437Y-152253002D01*
X203484852Y-152074101D01*
X203484852Y-151891695D01*
X203520437Y-151712794D01*
X203590241Y-151544272D01*
X203691580Y-151392607D01*
X203820561Y-151263626D01*
X203972226Y-151162287D01*
X204140748Y-151092483D01*
X204319649Y-151056898D01*
X204502055Y-151056898D01*
X204680956Y-151092483D01*
G37*
G36*
X160394750Y-146901000D02*
G01*
X158692750Y-146901000D01*
X158692750Y-145199000D01*
X160394750Y-145199000D01*
X160394750Y-146901000D01*
G37*
G36*
X131385074Y-141888607D02*
G01*
X131539946Y-141952757D01*
X131679327Y-142045889D01*
X131797861Y-142164423D01*
X131890993Y-142303804D01*
X131955143Y-142458676D01*
X131987846Y-142623088D01*
X131987846Y-142790720D01*
X131955143Y-142955132D01*
X131890993Y-143110004D01*
X131797861Y-143249385D01*
X131679327Y-143367919D01*
X131539946Y-143461051D01*
X131385074Y-143525201D01*
X131220662Y-143557904D01*
X131053030Y-143557904D01*
X130888618Y-143525201D01*
X130733746Y-143461051D01*
X130594365Y-143367919D01*
X130475831Y-143249385D01*
X130382699Y-143110004D01*
X130318549Y-142955132D01*
X130285846Y-142790720D01*
X130285846Y-142623088D01*
X130318549Y-142458676D01*
X130382699Y-142303804D01*
X130475831Y-142164423D01*
X130594365Y-142045889D01*
X130733746Y-141952757D01*
X130888618Y-141888607D01*
X131053030Y-141855904D01*
X131220662Y-141855904D01*
X131385074Y-141888607D01*
G37*
G36*
X187573228Y-141262953D02*
G01*
X187728100Y-141327103D01*
X187867481Y-141420235D01*
X187986015Y-141538769D01*
X188079147Y-141678150D01*
X188143297Y-141833022D01*
X188176000Y-141997434D01*
X188176000Y-142165066D01*
X188143297Y-142329478D01*
X188079147Y-142484350D01*
X187986015Y-142623731D01*
X187867481Y-142742265D01*
X187728100Y-142835397D01*
X187573228Y-142899547D01*
X187408816Y-142932250D01*
X187241184Y-142932250D01*
X187076772Y-142899547D01*
X186921900Y-142835397D01*
X186782519Y-142742265D01*
X186663985Y-142623731D01*
X186570853Y-142484350D01*
X186506703Y-142329478D01*
X186474000Y-142165066D01*
X186474000Y-141997434D01*
X186506703Y-141833022D01*
X186570853Y-141678150D01*
X186663985Y-141538769D01*
X186782519Y-141420235D01*
X186921900Y-141327103D01*
X187076772Y-141262953D01*
X187241184Y-141230250D01*
X187408816Y-141230250D01*
X187573228Y-141262953D01*
G37*
G36*
X248668299Y-136983616D02*
G01*
X248779484Y-137005732D01*
X248988953Y-137092497D01*
X249177470Y-137218460D01*
X249337790Y-137378780D01*
X249463753Y-137567297D01*
X249550518Y-137776766D01*
X249594750Y-137999136D01*
X249594750Y-138225864D01*
X249550518Y-138448234D01*
X249463753Y-138657703D01*
X249337790Y-138846220D01*
X249177470Y-139006540D01*
X248988953Y-139132503D01*
X248779484Y-139219268D01*
X248668299Y-139241384D01*
X248557115Y-139263500D01*
X248330385Y-139263500D01*
X248219201Y-139241384D01*
X248108016Y-139219268D01*
X247898547Y-139132503D01*
X247710030Y-139006540D01*
X247549710Y-138846220D01*
X247423747Y-138657703D01*
X247336982Y-138448234D01*
X247292750Y-138225864D01*
X247292750Y-137999136D01*
X247336982Y-137776766D01*
X247423747Y-137567297D01*
X247549710Y-137378780D01*
X247710030Y-137218460D01*
X247898547Y-137092497D01*
X248108016Y-137005732D01*
X248219201Y-136983616D01*
X248330385Y-136961500D01*
X248557115Y-136961500D01*
X248668299Y-136983616D01*
G37*
G36*
X100237049Y-136983616D02*
G01*
X100348234Y-137005732D01*
X100557703Y-137092497D01*
X100746220Y-137218460D01*
X100906540Y-137378780D01*
X101032503Y-137567297D01*
X101119268Y-137776766D01*
X101163500Y-137999136D01*
X101163500Y-138225864D01*
X101119268Y-138448234D01*
X101032503Y-138657703D01*
X100906540Y-138846220D01*
X100746220Y-139006540D01*
X100557703Y-139132503D01*
X100348234Y-139219268D01*
X100237049Y-139241384D01*
X100125865Y-139263500D01*
X99899135Y-139263500D01*
X99787951Y-139241384D01*
X99676766Y-139219268D01*
X99467297Y-139132503D01*
X99278780Y-139006540D01*
X99118460Y-138846220D01*
X98992497Y-138657703D01*
X98905732Y-138448234D01*
X98861500Y-138225864D01*
X98861500Y-137999136D01*
X98905732Y-137776766D01*
X98992497Y-137567297D01*
X99118460Y-137378780D01*
X99278780Y-137218460D01*
X99467297Y-137092497D01*
X99676766Y-137005732D01*
X99787951Y-136983616D01*
X99899135Y-136961500D01*
X100125865Y-136961500D01*
X100237049Y-136983616D01*
G37*
G36*
X137728496Y-137318750D02*
G01*
X136525000Y-138522246D01*
X135321504Y-137318750D01*
X136525000Y-136115254D01*
X137728496Y-137318750D01*
G37*
G36*
X183140342Y-136693096D02*
G01*
X181936846Y-137896592D01*
X180733350Y-136693096D01*
X181936846Y-135489600D01*
X183140342Y-136693096D01*
G37*
G36*
X218551354Y-118489585D02*
G01*
X218719876Y-118559389D01*
X218871541Y-118660728D01*
X219000522Y-118789709D01*
X219101861Y-118941374D01*
X219171665Y-119109896D01*
X219207250Y-119288797D01*
X219207250Y-119471203D01*
X219171665Y-119650104D01*
X219101861Y-119818626D01*
X219000522Y-119970291D01*
X218871541Y-120099272D01*
X218719876Y-120200611D01*
X218551354Y-120270415D01*
X218372453Y-120306000D01*
X218190047Y-120306000D01*
X218011146Y-120270415D01*
X217842624Y-120200611D01*
X217690959Y-120099272D01*
X217561978Y-119970291D01*
X217460639Y-119818626D01*
X217390835Y-119650104D01*
X217355250Y-119471203D01*
X217355250Y-119288797D01*
X217390835Y-119109896D01*
X217460639Y-118941374D01*
X217561978Y-118789709D01*
X217690959Y-118660728D01*
X217842624Y-118559389D01*
X218011146Y-118489585D01*
X218190047Y-118454000D01*
X218372453Y-118454000D01*
X218551354Y-118489585D01*
G37*
G36*
X101076354Y-118489585D02*
G01*
X101244876Y-118559389D01*
X101396541Y-118660728D01*
X101525522Y-118789709D01*
X101626861Y-118941374D01*
X101696665Y-119109896D01*
X101732250Y-119288797D01*
X101732250Y-119471203D01*
X101696665Y-119650104D01*
X101626861Y-119818626D01*
X101525522Y-119970291D01*
X101396541Y-120099272D01*
X101244876Y-120200611D01*
X101076354Y-120270415D01*
X100897453Y-120306000D01*
X100715047Y-120306000D01*
X100536146Y-120270415D01*
X100367624Y-120200611D01*
X100215959Y-120099272D01*
X100086978Y-119970291D01*
X99985639Y-119818626D01*
X99915835Y-119650104D01*
X99880250Y-119471203D01*
X99880250Y-119288797D01*
X99915835Y-119109896D01*
X99985639Y-118941374D01*
X100086978Y-118789709D01*
X100215959Y-118660728D01*
X100367624Y-118559389D01*
X100536146Y-118489585D01*
X100715047Y-118454000D01*
X100897453Y-118454000D01*
X101076354Y-118489585D01*
G37*
G36*
X101402724Y-112333684D02*
G01*
X101620724Y-112423983D01*
X101774873Y-112487833D01*
X102109798Y-112711623D01*
X102394627Y-112996452D01*
X102618417Y-113331377D01*
X102618417Y-113331378D01*
X102772566Y-113703526D01*
X102851150Y-114098594D01*
X102851150Y-114501406D01*
X102772566Y-114896474D01*
X102707255Y-115054148D01*
X102618417Y-115268623D01*
X102394627Y-115603548D01*
X102109798Y-115888377D01*
X101774873Y-116112167D01*
X101620724Y-116176017D01*
X101402724Y-116266316D01*
X101007656Y-116344900D01*
X100604844Y-116344900D01*
X100209776Y-116266316D01*
X99991776Y-116176017D01*
X99837627Y-116112167D01*
X99502702Y-115888377D01*
X99217873Y-115603548D01*
X98994083Y-115268623D01*
X98905245Y-115054148D01*
X98839934Y-114896474D01*
X98761350Y-114501406D01*
X98761350Y-114098594D01*
X98839934Y-113703526D01*
X98994083Y-113331378D01*
X98994083Y-113331377D01*
X99217873Y-112996452D01*
X99502702Y-112711623D01*
X99837627Y-112487833D01*
X99991776Y-112423983D01*
X100209776Y-112333684D01*
X100604844Y-112255100D01*
X101007656Y-112255100D01*
X101402724Y-112333684D01*
G37*
G36*
X218877724Y-112333684D02*
G01*
X219095724Y-112423983D01*
X219249873Y-112487833D01*
X219584798Y-112711623D01*
X219869627Y-112996452D01*
X220093417Y-113331377D01*
X220093417Y-113331378D01*
X220247566Y-113703526D01*
X220326150Y-114098594D01*
X220326150Y-114501406D01*
X220247566Y-114896474D01*
X220182255Y-115054148D01*
X220093417Y-115268623D01*
X219869627Y-115603548D01*
X219584798Y-115888377D01*
X219249873Y-116112167D01*
X219095724Y-116176017D01*
X218877724Y-116266316D01*
X218482656Y-116344900D01*
X218079844Y-116344900D01*
X217684776Y-116266316D01*
X217466776Y-116176017D01*
X217312627Y-116112167D01*
X216977702Y-115888377D01*
X216692873Y-115603548D01*
X216469083Y-115268623D01*
X216380245Y-115054148D01*
X216314934Y-114896474D01*
X216236350Y-114501406D01*
X216236350Y-114098594D01*
X216314934Y-113703526D01*
X216469083Y-113331378D01*
X216469083Y-113331377D01*
X216692873Y-112996452D01*
X216977702Y-112711623D01*
X217312627Y-112487833D01*
X217466776Y-112423983D01*
X217684776Y-112333684D01*
X218079844Y-112255100D01*
X218482656Y-112255100D01*
X218877724Y-112333684D01*
G37*
G36*
X120421978Y-113481703D02*
G01*
X120576850Y-113545853D01*
X120716231Y-113638985D01*
X120834765Y-113757519D01*
X120927897Y-113896900D01*
X120992047Y-114051772D01*
X121024750Y-114216184D01*
X121024750Y-114383816D01*
X120992047Y-114548228D01*
X120927897Y-114703100D01*
X120834765Y-114842481D01*
X120716231Y-114961015D01*
X120576850Y-115054147D01*
X120421978Y-115118297D01*
X120257566Y-115151000D01*
X120089934Y-115151000D01*
X119925522Y-115118297D01*
X119770650Y-115054147D01*
X119631269Y-114961015D01*
X119512735Y-114842481D01*
X119419603Y-114703100D01*
X119355453Y-114548228D01*
X119322750Y-114383816D01*
X119322750Y-114216184D01*
X119355453Y-114051772D01*
X119419603Y-113896900D01*
X119512735Y-113757519D01*
X119631269Y-113638985D01*
X119770650Y-113545853D01*
X119925522Y-113481703D01*
X120089934Y-113449000D01*
X120257566Y-113449000D01*
X120421978Y-113481703D01*
G37*
G36*
X192462250Y-115151000D02*
G01*
X190760250Y-115151000D01*
X190760250Y-113449000D01*
X192462250Y-113449000D01*
X192462250Y-115151000D01*
G37*
G36*
X199479478Y-113481703D02*
G01*
X199634350Y-113545853D01*
X199773731Y-113638985D01*
X199892265Y-113757519D01*
X199985397Y-113896900D01*
X200049547Y-114051772D01*
X200082250Y-114216184D01*
X200082250Y-114383816D01*
X200049547Y-114548228D01*
X199985397Y-114703100D01*
X199892265Y-114842481D01*
X199773731Y-114961015D01*
X199634350Y-115054147D01*
X199479478Y-115118297D01*
X199315066Y-115151000D01*
X199147434Y-115151000D01*
X198983022Y-115118297D01*
X198828150Y-115054147D01*
X198688769Y-114961015D01*
X198570235Y-114842481D01*
X198477103Y-114703100D01*
X198412953Y-114548228D01*
X198380250Y-114383816D01*
X198380250Y-114216184D01*
X198412953Y-114051772D01*
X198477103Y-113896900D01*
X198570235Y-113757519D01*
X198688769Y-113638985D01*
X198828150Y-113545853D01*
X198983022Y-113481703D01*
X199147434Y-113449000D01*
X199315066Y-113449000D01*
X199479478Y-113481703D01*
G37*
G36*
X128644750Y-115151000D02*
G01*
X126942750Y-115151000D01*
X126942750Y-113449000D01*
X128644750Y-113449000D01*
X128644750Y-115151000D01*
G37*
G36*
X101076354Y-108329585D02*
G01*
X101244876Y-108399389D01*
X101396541Y-108500728D01*
X101525522Y-108629709D01*
X101626861Y-108781374D01*
X101696665Y-108949896D01*
X101732250Y-109128797D01*
X101732250Y-109311203D01*
X101696665Y-109490104D01*
X101626861Y-109658626D01*
X101525522Y-109810291D01*
X101396541Y-109939272D01*
X101244876Y-110040611D01*
X101076354Y-110110415D01*
X100897453Y-110146000D01*
X100715047Y-110146000D01*
X100536146Y-110110415D01*
X100367624Y-110040611D01*
X100215959Y-109939272D01*
X100086978Y-109810291D01*
X99985639Y-109658626D01*
X99915835Y-109490104D01*
X99880250Y-109311203D01*
X99880250Y-109128797D01*
X99915835Y-108949896D01*
X99985639Y-108781374D01*
X100086978Y-108629709D01*
X100215959Y-108500728D01*
X100367624Y-108399389D01*
X100536146Y-108329585D01*
X100715047Y-108294000D01*
X100897453Y-108294000D01*
X101076354Y-108329585D01*
G37*
G36*
X218551354Y-108329585D02*
G01*
X218719876Y-108399389D01*
X218871541Y-108500728D01*
X219000522Y-108629709D01*
X219101861Y-108781374D01*
X219171665Y-108949896D01*
X219207250Y-109128797D01*
X219207250Y-109311203D01*
X219171665Y-109490104D01*
X219101861Y-109658626D01*
X219000522Y-109810291D01*
X218871541Y-109939272D01*
X218719876Y-110040611D01*
X218551354Y-110110415D01*
X218372453Y-110146000D01*
X218190047Y-110146000D01*
X218011146Y-110110415D01*
X217842624Y-110040611D01*
X217690959Y-109939272D01*
X217561978Y-109810291D01*
X217460639Y-109658626D01*
X217390835Y-109490104D01*
X217355250Y-109311203D01*
X217355250Y-109128797D01*
X217390835Y-108949896D01*
X217460639Y-108781374D01*
X217561978Y-108629709D01*
X217690959Y-108500728D01*
X217842624Y-108399389D01*
X218011146Y-108329585D01*
X218190047Y-108294000D01*
X218372453Y-108294000D01*
X218551354Y-108329585D01*
G37*
G36*
X120570027Y-106024003D02*
G01*
X120724899Y-106088153D01*
X120864280Y-106181285D01*
X120982814Y-106299819D01*
X121075946Y-106439200D01*
X121140096Y-106594072D01*
X121172799Y-106758484D01*
X121172799Y-106926116D01*
X121140096Y-107090528D01*
X121075946Y-107245400D01*
X120982814Y-107384781D01*
X120864280Y-107503315D01*
X120724899Y-107596447D01*
X120570027Y-107660597D01*
X120405615Y-107693300D01*
X120237983Y-107693300D01*
X120073571Y-107660597D01*
X119918699Y-107596447D01*
X119779318Y-107503315D01*
X119660784Y-107384781D01*
X119567652Y-107245400D01*
X119503502Y-107090528D01*
X119470799Y-106926116D01*
X119470799Y-106758484D01*
X119503502Y-106594072D01*
X119567652Y-106439200D01*
X119660784Y-106299819D01*
X119779318Y-106181285D01*
X119918699Y-106088153D01*
X120073571Y-106024003D01*
X120237983Y-105991300D01*
X120405615Y-105991300D01*
X120570027Y-106024003D01*
G37*
G36*
X118223373Y-105051987D02*
G01*
X118378245Y-105116137D01*
X118517626Y-105209269D01*
X118636160Y-105327803D01*
X118729292Y-105467184D01*
X118793442Y-105622056D01*
X118826145Y-105786468D01*
X118826145Y-105954100D01*
X118793442Y-106118512D01*
X118729292Y-106273384D01*
X118636160Y-106412765D01*
X118517626Y-106531299D01*
X118378245Y-106624431D01*
X118223373Y-106688581D01*
X118058961Y-106721284D01*
X117891329Y-106721284D01*
X117726917Y-106688581D01*
X117572045Y-106624431D01*
X117432664Y-106531299D01*
X117314130Y-106412765D01*
X117220998Y-106273384D01*
X117156848Y-106118512D01*
X117124145Y-105954100D01*
X117124145Y-105786468D01*
X117156848Y-105622056D01*
X117220998Y-105467184D01*
X117314130Y-105327803D01*
X117432664Y-105209269D01*
X117572045Y-105116137D01*
X117726917Y-105051987D01*
X117891329Y-105019284D01*
X118058961Y-105019284D01*
X118223373Y-105051987D01*
G37*
G36*
X115876719Y-104079971D02*
G01*
X116031591Y-104144121D01*
X116170972Y-104237253D01*
X116289506Y-104355787D01*
X116382638Y-104495168D01*
X116446788Y-104650040D01*
X116479491Y-104814452D01*
X116479491Y-104982084D01*
X116446788Y-105146496D01*
X116382638Y-105301368D01*
X116289506Y-105440749D01*
X116170972Y-105559283D01*
X116031591Y-105652415D01*
X115876719Y-105716565D01*
X115712307Y-105749268D01*
X115544675Y-105749268D01*
X115380263Y-105716565D01*
X115225391Y-105652415D01*
X115086010Y-105559283D01*
X114967476Y-105440749D01*
X114874344Y-105301368D01*
X114810194Y-105146496D01*
X114777491Y-104982084D01*
X114777491Y-104814452D01*
X114810194Y-104650040D01*
X114874344Y-104495168D01*
X114967476Y-104355787D01*
X115086010Y-104237253D01*
X115225391Y-104144121D01*
X115380263Y-104079971D01*
X115544675Y-104047268D01*
X115712307Y-104047268D01*
X115876719Y-104079971D01*
G37*
G36*
X113530065Y-103107955D02*
G01*
X113684937Y-103172105D01*
X113824318Y-103265237D01*
X113942852Y-103383771D01*
X114035984Y-103523152D01*
X114100134Y-103678024D01*
X114132837Y-103842436D01*
X114132837Y-104010068D01*
X114100134Y-104174480D01*
X114035984Y-104329352D01*
X113942852Y-104468733D01*
X113824318Y-104587267D01*
X113684937Y-104680399D01*
X113530065Y-104744549D01*
X113365653Y-104777252D01*
X113198021Y-104777252D01*
X113033609Y-104744549D01*
X112878737Y-104680399D01*
X112739356Y-104587267D01*
X112620822Y-104468733D01*
X112527690Y-104329352D01*
X112463540Y-104174480D01*
X112430837Y-104010068D01*
X112430837Y-103842436D01*
X112463540Y-103678024D01*
X112527690Y-103523152D01*
X112620822Y-103383771D01*
X112739356Y-103265237D01*
X112878737Y-103172105D01*
X113033609Y-103107955D01*
X113198021Y-103075252D01*
X113365653Y-103075252D01*
X113530065Y-103107955D01*
G37*
G36*
X111183411Y-102135939D02*
G01*
X111338283Y-102200089D01*
X111477664Y-102293221D01*
X111596198Y-102411755D01*
X111689330Y-102551136D01*
X111753480Y-102706008D01*
X111786183Y-102870420D01*
X111786183Y-103038052D01*
X111753480Y-103202464D01*
X111689330Y-103357336D01*
X111596198Y-103496717D01*
X111477664Y-103615251D01*
X111338283Y-103708383D01*
X111183411Y-103772533D01*
X111018999Y-103805236D01*
X110851367Y-103805236D01*
X110686955Y-103772533D01*
X110532083Y-103708383D01*
X110392702Y-103615251D01*
X110274168Y-103496717D01*
X110181036Y-103357336D01*
X110116886Y-103202464D01*
X110084183Y-103038052D01*
X110084183Y-102870420D01*
X110116886Y-102706008D01*
X110181036Y-102551136D01*
X110274168Y-102411755D01*
X110392702Y-102293221D01*
X110532083Y-102200089D01*
X110686955Y-102135939D01*
X110851367Y-102103236D01*
X111018999Y-102103236D01*
X111183411Y-102135939D01*
G37*
G36*
X108836757Y-101163923D02*
G01*
X108991629Y-101228073D01*
X109131010Y-101321205D01*
X109249544Y-101439739D01*
X109342676Y-101579120D01*
X109406826Y-101733992D01*
X109439529Y-101898404D01*
X109439529Y-102066036D01*
X109406826Y-102230448D01*
X109342676Y-102385320D01*
X109249544Y-102524701D01*
X109131010Y-102643235D01*
X108991629Y-102736367D01*
X108836757Y-102800517D01*
X108672345Y-102833220D01*
X108504713Y-102833220D01*
X108340301Y-102800517D01*
X108185429Y-102736367D01*
X108046048Y-102643235D01*
X107927514Y-102524701D01*
X107834382Y-102385320D01*
X107770232Y-102230448D01*
X107737529Y-102066036D01*
X107737529Y-101898404D01*
X107770232Y-101733992D01*
X107834382Y-101579120D01*
X107927514Y-101439739D01*
X108046048Y-101321205D01*
X108185429Y-101228073D01*
X108340301Y-101163923D01*
X108504713Y-101131220D01*
X108672345Y-101131220D01*
X108836757Y-101163923D01*
G37*
G36*
X106490103Y-100191907D02*
G01*
X106644975Y-100256057D01*
X106784356Y-100349189D01*
X106902890Y-100467723D01*
X106996022Y-100607104D01*
X107060172Y-100761976D01*
X107092875Y-100926388D01*
X107092875Y-101094020D01*
X107060172Y-101258432D01*
X106996022Y-101413304D01*
X106902890Y-101552685D01*
X106784356Y-101671219D01*
X106644975Y-101764351D01*
X106490103Y-101828501D01*
X106325691Y-101861204D01*
X106158059Y-101861204D01*
X105993647Y-101828501D01*
X105838775Y-101764351D01*
X105699394Y-101671219D01*
X105580860Y-101552685D01*
X105487728Y-101413304D01*
X105423578Y-101258432D01*
X105390875Y-101094020D01*
X105390875Y-100926388D01*
X105423578Y-100761976D01*
X105487728Y-100607104D01*
X105580860Y-100467723D01*
X105699394Y-100349189D01*
X105838775Y-100256057D01*
X105993647Y-100191907D01*
X106158059Y-100159204D01*
X106325691Y-100159204D01*
X106490103Y-100191907D01*
G37*
G36*
X104143449Y-99219891D02*
G01*
X104298321Y-99284041D01*
X104437702Y-99377173D01*
X104556236Y-99495707D01*
X104649368Y-99635088D01*
X104713518Y-99789960D01*
X104746221Y-99954372D01*
X104746221Y-100122004D01*
X104713518Y-100286416D01*
X104649368Y-100441288D01*
X104556236Y-100580669D01*
X104437702Y-100699203D01*
X104298321Y-100792335D01*
X104143449Y-100856485D01*
X103979037Y-100889188D01*
X103811405Y-100889188D01*
X103646993Y-100856485D01*
X103492121Y-100792335D01*
X103352740Y-100699203D01*
X103234206Y-100580669D01*
X103141074Y-100441288D01*
X103076924Y-100286416D01*
X103044221Y-100122004D01*
X103044221Y-99954372D01*
X103076924Y-99789960D01*
X103141074Y-99635088D01*
X103234206Y-99495707D01*
X103352740Y-99377173D01*
X103492121Y-99284041D01*
X103646993Y-99219891D01*
X103811405Y-99187188D01*
X103979037Y-99187188D01*
X104143449Y-99219891D01*
G37*
G36*
X101796795Y-98247875D02*
G01*
X101951667Y-98312025D01*
X102091048Y-98405157D01*
X102209582Y-98523691D01*
X102302714Y-98663072D01*
X102366864Y-98817944D01*
X102399567Y-98982356D01*
X102399567Y-99149988D01*
X102366864Y-99314400D01*
X102302714Y-99469272D01*
X102209582Y-99608653D01*
X102091048Y-99727187D01*
X101951667Y-99820319D01*
X101796795Y-99884469D01*
X101632383Y-99917172D01*
X101464751Y-99917172D01*
X101300339Y-99884469D01*
X101145467Y-99820319D01*
X101006086Y-99727187D01*
X100887552Y-99608653D01*
X100794420Y-99469272D01*
X100730270Y-99314400D01*
X100697567Y-99149988D01*
X100697567Y-98982356D01*
X100730270Y-98817944D01*
X100794420Y-98663072D01*
X100887552Y-98523691D01*
X101006086Y-98405157D01*
X101145467Y-98312025D01*
X101300339Y-98247875D01*
X101464751Y-98215172D01*
X101632383Y-98215172D01*
X101796795Y-98247875D01*
G37*
G36*
X99450141Y-97275859D02*
G01*
X99605013Y-97340009D01*
X99744394Y-97433141D01*
X99862928Y-97551675D01*
X99956060Y-97691056D01*
X100020210Y-97845928D01*
X100052913Y-98010340D01*
X100052913Y-98177972D01*
X100020210Y-98342384D01*
X99956060Y-98497256D01*
X99862928Y-98636637D01*
X99744394Y-98755171D01*
X99605013Y-98848303D01*
X99450141Y-98912453D01*
X99285729Y-98945156D01*
X99118097Y-98945156D01*
X98953685Y-98912453D01*
X98798813Y-98848303D01*
X98659432Y-98755171D01*
X98540898Y-98636637D01*
X98447766Y-98497256D01*
X98383616Y-98342384D01*
X98350913Y-98177972D01*
X98350913Y-98010340D01*
X98383616Y-97845928D01*
X98447766Y-97691056D01*
X98540898Y-97551675D01*
X98659432Y-97433141D01*
X98798813Y-97340009D01*
X98953685Y-97275859D01*
X99118097Y-97243156D01*
X99285729Y-97243156D01*
X99450141Y-97275859D01*
G37*
G36*
X97103487Y-96303843D02*
G01*
X97258359Y-96367993D01*
X97397740Y-96461125D01*
X97516274Y-96579659D01*
X97609406Y-96719040D01*
X97673556Y-96873912D01*
X97706259Y-97038324D01*
X97706259Y-97205956D01*
X97673556Y-97370368D01*
X97609406Y-97525240D01*
X97516274Y-97664621D01*
X97397740Y-97783155D01*
X97258359Y-97876287D01*
X97103487Y-97940437D01*
X96939075Y-97973140D01*
X96771443Y-97973140D01*
X96607031Y-97940437D01*
X96452159Y-97876287D01*
X96312778Y-97783155D01*
X96194244Y-97664621D01*
X96101112Y-97525240D01*
X96036962Y-97370368D01*
X96004259Y-97205956D01*
X96004259Y-97038324D01*
X96036962Y-96873912D01*
X96101112Y-96719040D01*
X96194244Y-96579659D01*
X96312778Y-96461125D01*
X96452159Y-96367993D01*
X96607031Y-96303843D01*
X96771443Y-96271140D01*
X96939075Y-96271140D01*
X97103487Y-96303843D01*
G37*
G36*
X94756833Y-95331827D02*
G01*
X94911705Y-95395977D01*
X95051086Y-95489109D01*
X95169620Y-95607643D01*
X95262752Y-95747024D01*
X95326902Y-95901896D01*
X95359605Y-96066308D01*
X95359605Y-96233940D01*
X95326902Y-96398352D01*
X95262752Y-96553224D01*
X95169620Y-96692605D01*
X95051086Y-96811139D01*
X94911705Y-96904271D01*
X94756833Y-96968421D01*
X94592421Y-97001124D01*
X94424789Y-97001124D01*
X94260377Y-96968421D01*
X94105505Y-96904271D01*
X93966124Y-96811139D01*
X93847590Y-96692605D01*
X93754458Y-96553224D01*
X93690308Y-96398352D01*
X93657605Y-96233940D01*
X93657605Y-96066308D01*
X93690308Y-95901896D01*
X93754458Y-95747024D01*
X93847590Y-95607643D01*
X93966124Y-95489109D01*
X94105505Y-95395977D01*
X94260377Y-95331827D01*
X94424789Y-95299124D01*
X94592421Y-95299124D01*
X94756833Y-95331827D01*
G37*
G36*
X126402123Y-91944079D02*
G01*
X126556995Y-92008229D01*
X126696376Y-92101361D01*
X126814910Y-92219895D01*
X126908042Y-92359276D01*
X126972192Y-92514148D01*
X127004895Y-92678560D01*
X127004895Y-92846192D01*
X126972192Y-93010604D01*
X126908042Y-93165476D01*
X126814910Y-93304857D01*
X126696376Y-93423391D01*
X126556995Y-93516523D01*
X126402123Y-93580673D01*
X126237711Y-93613376D01*
X126070079Y-93613376D01*
X125905667Y-93580673D01*
X125750795Y-93516523D01*
X125611414Y-93423391D01*
X125492880Y-93304857D01*
X125399748Y-93165476D01*
X125335598Y-93010604D01*
X125302895Y-92846192D01*
X125302895Y-92678560D01*
X125335598Y-92514148D01*
X125399748Y-92359276D01*
X125492880Y-92219895D01*
X125611414Y-92101361D01*
X125750795Y-92008229D01*
X125905667Y-91944079D01*
X126070079Y-91911376D01*
X126237711Y-91911376D01*
X126402123Y-91944079D01*
G37*
G36*
X124055469Y-90972063D02*
G01*
X124210341Y-91036213D01*
X124349722Y-91129345D01*
X124468256Y-91247879D01*
X124561388Y-91387260D01*
X124625538Y-91542132D01*
X124658241Y-91706544D01*
X124658241Y-91874176D01*
X124625538Y-92038588D01*
X124561388Y-92193460D01*
X124468256Y-92332841D01*
X124349722Y-92451375D01*
X124210341Y-92544507D01*
X124055469Y-92608657D01*
X123891057Y-92641360D01*
X123723425Y-92641360D01*
X123559013Y-92608657D01*
X123404141Y-92544507D01*
X123264760Y-92451375D01*
X123146226Y-92332841D01*
X123053094Y-92193460D01*
X122988944Y-92038588D01*
X122956241Y-91874176D01*
X122956241Y-91706544D01*
X122988944Y-91542132D01*
X123053094Y-91387260D01*
X123146226Y-91247879D01*
X123264760Y-91129345D01*
X123404141Y-91036213D01*
X123559013Y-90972063D01*
X123723425Y-90939360D01*
X123891057Y-90939360D01*
X124055469Y-90972063D01*
G37*
G36*
X183765996Y-91281250D02*
G01*
X182562500Y-92484746D01*
X181359004Y-91281250D01*
X182562500Y-90077754D01*
X183765996Y-91281250D01*
G37*
G36*
X137728496Y-91281250D02*
G01*
X136525000Y-92484746D01*
X135321504Y-91281250D01*
X136525000Y-90077754D01*
X137728496Y-91281250D01*
G37*
G36*
X121708815Y-90000047D02*
G01*
X121863687Y-90064197D01*
X122003068Y-90157329D01*
X122121602Y-90275863D01*
X122214734Y-90415244D01*
X122278884Y-90570116D01*
X122311587Y-90734528D01*
X122311587Y-90902160D01*
X122278884Y-91066572D01*
X122214734Y-91221444D01*
X122121602Y-91360825D01*
X122003068Y-91479359D01*
X121863687Y-91572491D01*
X121708815Y-91636641D01*
X121544403Y-91669344D01*
X121376771Y-91669344D01*
X121212359Y-91636641D01*
X121057487Y-91572491D01*
X120918106Y-91479359D01*
X120799572Y-91360825D01*
X120706440Y-91221444D01*
X120642290Y-91066572D01*
X120609587Y-90902160D01*
X120609587Y-90734528D01*
X120642290Y-90570116D01*
X120706440Y-90415244D01*
X120799572Y-90275863D01*
X120918106Y-90157329D01*
X121057487Y-90064197D01*
X121212359Y-90000047D01*
X121376771Y-89967344D01*
X121544403Y-89967344D01*
X121708815Y-90000047D01*
G37*
G36*
X219299549Y-89358616D02*
G01*
X219410734Y-89380732D01*
X219620203Y-89467497D01*
X219808720Y-89593460D01*
X219969040Y-89753780D01*
X220095003Y-89942297D01*
X220181768Y-90151766D01*
X220226000Y-90374136D01*
X220226000Y-90600864D01*
X220181768Y-90823234D01*
X220095003Y-91032703D01*
X219969040Y-91221220D01*
X219808720Y-91381540D01*
X219620203Y-91507503D01*
X219410734Y-91594268D01*
X219299549Y-91616384D01*
X219188365Y-91638500D01*
X218961635Y-91638500D01*
X218850451Y-91616384D01*
X218739266Y-91594268D01*
X218529797Y-91507503D01*
X218341280Y-91381540D01*
X218180960Y-91221220D01*
X218054997Y-91032703D01*
X217968232Y-90823234D01*
X217924000Y-90600864D01*
X217924000Y-90374136D01*
X217968232Y-90151766D01*
X218054997Y-89942297D01*
X218180960Y-89753780D01*
X218341280Y-89593460D01*
X218529797Y-89467497D01*
X218739266Y-89380732D01*
X218850451Y-89358616D01*
X218961635Y-89336500D01*
X219188365Y-89336500D01*
X219299549Y-89358616D01*
G37*
G36*
X367730799Y-89358616D02*
G01*
X367841984Y-89380732D01*
X368051453Y-89467497D01*
X368239970Y-89593460D01*
X368400290Y-89753780D01*
X368526253Y-89942297D01*
X368613018Y-90151766D01*
X368657250Y-90374136D01*
X368657250Y-90600864D01*
X368613018Y-90823234D01*
X368526253Y-91032703D01*
X368400290Y-91221220D01*
X368239970Y-91381540D01*
X368051453Y-91507503D01*
X367841984Y-91594268D01*
X367730799Y-91616384D01*
X367619615Y-91638500D01*
X367392885Y-91638500D01*
X367281701Y-91616384D01*
X367170516Y-91594268D01*
X366961047Y-91507503D01*
X366772530Y-91381540D01*
X366612210Y-91221220D01*
X366486247Y-91032703D01*
X366399482Y-90823234D01*
X366355250Y-90600864D01*
X366355250Y-90374136D01*
X366399482Y-90151766D01*
X366486247Y-89942297D01*
X366612210Y-89753780D01*
X366772530Y-89593460D01*
X366961047Y-89467497D01*
X367170516Y-89380732D01*
X367281701Y-89358616D01*
X367392885Y-89336500D01*
X367619615Y-89336500D01*
X367730799Y-89358616D01*
G37*
G36*
X119362161Y-89028031D02*
G01*
X119517033Y-89092181D01*
X119656414Y-89185313D01*
X119774948Y-89303847D01*
X119868080Y-89443228D01*
X119932230Y-89598100D01*
X119964933Y-89762512D01*
X119964933Y-89930144D01*
X119932230Y-90094556D01*
X119868080Y-90249428D01*
X119774948Y-90388809D01*
X119656414Y-90507343D01*
X119517033Y-90600475D01*
X119362161Y-90664625D01*
X119197749Y-90697328D01*
X119030117Y-90697328D01*
X118865705Y-90664625D01*
X118710833Y-90600475D01*
X118571452Y-90507343D01*
X118452918Y-90388809D01*
X118359786Y-90249428D01*
X118295636Y-90094556D01*
X118262933Y-89930144D01*
X118262933Y-89762512D01*
X118295636Y-89598100D01*
X118359786Y-89443228D01*
X118452918Y-89303847D01*
X118571452Y-89185313D01*
X118710833Y-89092181D01*
X118865705Y-89028031D01*
X119030117Y-88995328D01*
X119197749Y-88995328D01*
X119362161Y-89028031D01*
G37*
G36*
X117015507Y-88056015D02*
G01*
X117170379Y-88120165D01*
X117309760Y-88213297D01*
X117428294Y-88331831D01*
X117521426Y-88471212D01*
X117585576Y-88626084D01*
X117618279Y-88790496D01*
X117618279Y-88958128D01*
X117585576Y-89122540D01*
X117521426Y-89277412D01*
X117428294Y-89416793D01*
X117309760Y-89535327D01*
X117170379Y-89628459D01*
X117015507Y-89692609D01*
X116851095Y-89725312D01*
X116683463Y-89725312D01*
X116519051Y-89692609D01*
X116364179Y-89628459D01*
X116224798Y-89535327D01*
X116106264Y-89416793D01*
X116013132Y-89277412D01*
X115948982Y-89122540D01*
X115916279Y-88958128D01*
X115916279Y-88790496D01*
X115948982Y-88626084D01*
X116013132Y-88471212D01*
X116106264Y-88331831D01*
X116224798Y-88213297D01*
X116364179Y-88120165D01*
X116519051Y-88056015D01*
X116683463Y-88023312D01*
X116851095Y-88023312D01*
X117015507Y-88056015D01*
G37*
G36*
X114668853Y-87083999D02*
G01*
X114823725Y-87148149D01*
X114963106Y-87241281D01*
X115081640Y-87359815D01*
X115174772Y-87499196D01*
X115238922Y-87654068D01*
X115271625Y-87818480D01*
X115271625Y-87986112D01*
X115238922Y-88150524D01*
X115174772Y-88305396D01*
X115081640Y-88444777D01*
X114963106Y-88563311D01*
X114823725Y-88656443D01*
X114668853Y-88720593D01*
X114504441Y-88753296D01*
X114336809Y-88753296D01*
X114172397Y-88720593D01*
X114017525Y-88656443D01*
X113878144Y-88563311D01*
X113759610Y-88444777D01*
X113666478Y-88305396D01*
X113602328Y-88150524D01*
X113569625Y-87986112D01*
X113569625Y-87818480D01*
X113602328Y-87654068D01*
X113666478Y-87499196D01*
X113759610Y-87359815D01*
X113878144Y-87241281D01*
X114017525Y-87148149D01*
X114172397Y-87083999D01*
X114336809Y-87051296D01*
X114504441Y-87051296D01*
X114668853Y-87083999D01*
G37*
G36*
X112322199Y-86111983D02*
G01*
X112477071Y-86176133D01*
X112616452Y-86269265D01*
X112734986Y-86387799D01*
X112828118Y-86527180D01*
X112892268Y-86682052D01*
X112924971Y-86846464D01*
X112924971Y-87014096D01*
X112892268Y-87178508D01*
X112828118Y-87333380D01*
X112734986Y-87472761D01*
X112616452Y-87591295D01*
X112477071Y-87684427D01*
X112322199Y-87748577D01*
X112157787Y-87781280D01*
X111990155Y-87781280D01*
X111825743Y-87748577D01*
X111670871Y-87684427D01*
X111531490Y-87591295D01*
X111412956Y-87472761D01*
X111319824Y-87333380D01*
X111255674Y-87178508D01*
X111222971Y-87014096D01*
X111222971Y-86846464D01*
X111255674Y-86682052D01*
X111319824Y-86527180D01*
X111412956Y-86387799D01*
X111531490Y-86269265D01*
X111670871Y-86176133D01*
X111825743Y-86111983D01*
X111990155Y-86079280D01*
X112157787Y-86079280D01*
X112322199Y-86111983D01*
G37*
G36*
X109975545Y-85139967D02*
G01*
X110130417Y-85204117D01*
X110269798Y-85297249D01*
X110388332Y-85415783D01*
X110481464Y-85555164D01*
X110545614Y-85710036D01*
X110578317Y-85874448D01*
X110578317Y-86042080D01*
X110545614Y-86206492D01*
X110481464Y-86361364D01*
X110388332Y-86500745D01*
X110269798Y-86619279D01*
X110130417Y-86712411D01*
X109975545Y-86776561D01*
X109811133Y-86809264D01*
X109643501Y-86809264D01*
X109479089Y-86776561D01*
X109324217Y-86712411D01*
X109184836Y-86619279D01*
X109066302Y-86500745D01*
X108973170Y-86361364D01*
X108909020Y-86206492D01*
X108876317Y-86042080D01*
X108876317Y-85874448D01*
X108909020Y-85710036D01*
X108973170Y-85555164D01*
X109066302Y-85415783D01*
X109184836Y-85297249D01*
X109324217Y-85204117D01*
X109479089Y-85139967D01*
X109643501Y-85107264D01*
X109811133Y-85107264D01*
X109975545Y-85139967D01*
G37*
G36*
X188198882Y-85074799D02*
G01*
X188353754Y-85138949D01*
X188493135Y-85232081D01*
X188611669Y-85350615D01*
X188704801Y-85489996D01*
X188768951Y-85644868D01*
X188801654Y-85809280D01*
X188801654Y-85976912D01*
X188768951Y-86141324D01*
X188704801Y-86296196D01*
X188611669Y-86435577D01*
X188493135Y-86554111D01*
X188353754Y-86647243D01*
X188198882Y-86711393D01*
X188034470Y-86744096D01*
X187866838Y-86744096D01*
X187702426Y-86711393D01*
X187547554Y-86647243D01*
X187408173Y-86554111D01*
X187289639Y-86435577D01*
X187196507Y-86296196D01*
X187132357Y-86141324D01*
X187099654Y-85976912D01*
X187099654Y-85809280D01*
X187132357Y-85644868D01*
X187196507Y-85489996D01*
X187289639Y-85350615D01*
X187408173Y-85232081D01*
X187547554Y-85138949D01*
X187702426Y-85074799D01*
X187866838Y-85042096D01*
X188034470Y-85042096D01*
X188198882Y-85074799D01*
G37*
G36*
X131385074Y-85074799D02*
G01*
X131539946Y-85138949D01*
X131679327Y-85232081D01*
X131797861Y-85350615D01*
X131890993Y-85489996D01*
X131955143Y-85644868D01*
X131987846Y-85809280D01*
X131987846Y-85976912D01*
X131955143Y-86141324D01*
X131890993Y-86296196D01*
X131797861Y-86435577D01*
X131679327Y-86554111D01*
X131539946Y-86647243D01*
X131385074Y-86711393D01*
X131220662Y-86744096D01*
X131053030Y-86744096D01*
X130888618Y-86711393D01*
X130733746Y-86647243D01*
X130594365Y-86554111D01*
X130475831Y-86435577D01*
X130382699Y-86296196D01*
X130318549Y-86141324D01*
X130285846Y-85976912D01*
X130285846Y-85809280D01*
X130318549Y-85644868D01*
X130382699Y-85489996D01*
X130475831Y-85350615D01*
X130594365Y-85232081D01*
X130733746Y-85138949D01*
X130888618Y-85074799D01*
X131053030Y-85042096D01*
X131220662Y-85042096D01*
X131385074Y-85074799D01*
G37*
G36*
X107628891Y-84167951D02*
G01*
X107783763Y-84232101D01*
X107923144Y-84325233D01*
X108041678Y-84443767D01*
X108134810Y-84583148D01*
X108198960Y-84738020D01*
X108231663Y-84902432D01*
X108231663Y-85070064D01*
X108198960Y-85234476D01*
X108134810Y-85389348D01*
X108041678Y-85528729D01*
X107923144Y-85647263D01*
X107783763Y-85740395D01*
X107628891Y-85804545D01*
X107464479Y-85837248D01*
X107296847Y-85837248D01*
X107132435Y-85804545D01*
X106977563Y-85740395D01*
X106838182Y-85647263D01*
X106719648Y-85528729D01*
X106626516Y-85389348D01*
X106562366Y-85234476D01*
X106529663Y-85070064D01*
X106529663Y-84902432D01*
X106562366Y-84738020D01*
X106626516Y-84583148D01*
X106719648Y-84443767D01*
X106838182Y-84325233D01*
X106977563Y-84232101D01*
X107132435Y-84167951D01*
X107296847Y-84135248D01*
X107464479Y-84135248D01*
X107628891Y-84167951D01*
G37*
G36*
X105282237Y-83195935D02*
G01*
X105437109Y-83260085D01*
X105576490Y-83353217D01*
X105695024Y-83471751D01*
X105788156Y-83611132D01*
X105852306Y-83766004D01*
X105885009Y-83930416D01*
X105885009Y-84098048D01*
X105852306Y-84262460D01*
X105788156Y-84417332D01*
X105695024Y-84556713D01*
X105576490Y-84675247D01*
X105437109Y-84768379D01*
X105282237Y-84832529D01*
X105117825Y-84865232D01*
X104950193Y-84865232D01*
X104785781Y-84832529D01*
X104630909Y-84768379D01*
X104491528Y-84675247D01*
X104372994Y-84556713D01*
X104279862Y-84417332D01*
X104215712Y-84262460D01*
X104183009Y-84098048D01*
X104183009Y-83930416D01*
X104215712Y-83766004D01*
X104279862Y-83611132D01*
X104372994Y-83471751D01*
X104491528Y-83353217D01*
X104630909Y-83260085D01*
X104785781Y-83195935D01*
X104950193Y-83163232D01*
X105117825Y-83163232D01*
X105282237Y-83195935D01*
G37*
G36*
X102935583Y-82223919D02*
G01*
X103090455Y-82288069D01*
X103229836Y-82381201D01*
X103348370Y-82499735D01*
X103441502Y-82639116D01*
X103505652Y-82793988D01*
X103538355Y-82958400D01*
X103538355Y-83126032D01*
X103505652Y-83290444D01*
X103441502Y-83445316D01*
X103348370Y-83584697D01*
X103229836Y-83703231D01*
X103090455Y-83796363D01*
X102935583Y-83860513D01*
X102771171Y-83893216D01*
X102603539Y-83893216D01*
X102439127Y-83860513D01*
X102284255Y-83796363D01*
X102144874Y-83703231D01*
X102026340Y-83584697D01*
X101933208Y-83445316D01*
X101869058Y-83290444D01*
X101836355Y-83126032D01*
X101836355Y-82958400D01*
X101869058Y-82793988D01*
X101933208Y-82639116D01*
X102026340Y-82499735D01*
X102144874Y-82381201D01*
X102284255Y-82288069D01*
X102439127Y-82223919D01*
X102603539Y-82191216D01*
X102771171Y-82191216D01*
X102935583Y-82223919D01*
G37*
G36*
X160394750Y-83401000D02*
G01*
X158692750Y-83401000D01*
X158692750Y-81699000D01*
X160394750Y-81699000D01*
X160394750Y-83401000D01*
G37*
G36*
X101452586Y-81609642D02*
G01*
X100801259Y-83182085D01*
X99228816Y-82530758D01*
X99880143Y-80958315D01*
X101452586Y-81609642D01*
G37*
G36*
X205474706Y-75726687D02*
G01*
X205643228Y-75796491D01*
X205794893Y-75897830D01*
X205923874Y-76026811D01*
X206025213Y-76178476D01*
X206095017Y-76346998D01*
X206130602Y-76525899D01*
X206130602Y-76708305D01*
X206095017Y-76887206D01*
X206025213Y-77055728D01*
X205923874Y-77207393D01*
X205794893Y-77336374D01*
X205643228Y-77437713D01*
X205474706Y-77507517D01*
X205295805Y-77543102D01*
X205113399Y-77543102D01*
X204934498Y-77507517D01*
X204765976Y-77437713D01*
X204614311Y-77336374D01*
X204485330Y-77207393D01*
X204383991Y-77055728D01*
X204314187Y-76887206D01*
X204278602Y-76708305D01*
X204278602Y-76525899D01*
X204314187Y-76346998D01*
X204383991Y-76178476D01*
X204485330Y-76026811D01*
X204614311Y-75897830D01*
X204765976Y-75796491D01*
X204934498Y-75726687D01*
X205113399Y-75691102D01*
X205295805Y-75691102D01*
X205474706Y-75726687D01*
G37*
G36*
X114946752Y-74932937D02*
G01*
X115115274Y-75002741D01*
X115266939Y-75104080D01*
X115395920Y-75233061D01*
X115497259Y-75384726D01*
X115567063Y-75553248D01*
X115602648Y-75732149D01*
X115602648Y-75914555D01*
X115567063Y-76093456D01*
X115497259Y-76261978D01*
X115395920Y-76413643D01*
X115266939Y-76542624D01*
X115115274Y-76643963D01*
X114946752Y-76713767D01*
X114767851Y-76749352D01*
X114585445Y-76749352D01*
X114406544Y-76713767D01*
X114238022Y-76643963D01*
X114086357Y-76542624D01*
X113957376Y-76413643D01*
X113856037Y-76261978D01*
X113786233Y-76093456D01*
X113750648Y-75914555D01*
X113750648Y-75732149D01*
X113786233Y-75553248D01*
X113856037Y-75384726D01*
X113957376Y-75233061D01*
X114086357Y-75104080D01*
X114238022Y-75002741D01*
X114406544Y-74932937D01*
X114585445Y-74897352D01*
X114767851Y-74897352D01*
X114946752Y-74932937D01*
G37*
G36*
X159791978Y-74111703D02*
G01*
X159946850Y-74175853D01*
X160086231Y-74268985D01*
X160204765Y-74387519D01*
X160297897Y-74526900D01*
X160362047Y-74681772D01*
X160394750Y-74846184D01*
X160394750Y-75013816D01*
X160362047Y-75178228D01*
X160297897Y-75333100D01*
X160204765Y-75472481D01*
X160086231Y-75591015D01*
X159946850Y-75684147D01*
X159791978Y-75748297D01*
X159627566Y-75781000D01*
X159459934Y-75781000D01*
X159295522Y-75748297D01*
X159140650Y-75684147D01*
X159001269Y-75591015D01*
X158882735Y-75472481D01*
X158789603Y-75333100D01*
X158725453Y-75178228D01*
X158692750Y-75013816D01*
X158692750Y-74846184D01*
X158725453Y-74681772D01*
X158789603Y-74526900D01*
X158882735Y-74387519D01*
X159001269Y-74268985D01*
X159140650Y-74175853D01*
X159295522Y-74111703D01*
X159459934Y-74079000D01*
X159627566Y-74079000D01*
X159791978Y-74111703D01*
G37*
G36*
X202208974Y-71058684D02*
G01*
X202426974Y-71148983D01*
X202581123Y-71212833D01*
X202916048Y-71436623D01*
X203200877Y-71721452D01*
X203424667Y-72056377D01*
X203424667Y-72056378D01*
X203578816Y-72428526D01*
X203657400Y-72823594D01*
X203657400Y-73226406D01*
X203578816Y-73621474D01*
X203496738Y-73819627D01*
X203424667Y-73993623D01*
X203200877Y-74328548D01*
X202916048Y-74613377D01*
X202581123Y-74837167D01*
X202435823Y-74897352D01*
X202208974Y-74991316D01*
X201813906Y-75069900D01*
X201411094Y-75069900D01*
X201016026Y-74991316D01*
X200789177Y-74897352D01*
X200643877Y-74837167D01*
X200308952Y-74613377D01*
X200024123Y-74328548D01*
X199800333Y-73993623D01*
X199728262Y-73819627D01*
X199646184Y-73621474D01*
X199567600Y-73226406D01*
X199567600Y-72823594D01*
X199646184Y-72428526D01*
X199800333Y-72056378D01*
X199800333Y-72056377D01*
X200024123Y-71721452D01*
X200308952Y-71436623D01*
X200643877Y-71212833D01*
X200798026Y-71148983D01*
X201016026Y-71058684D01*
X201411094Y-70980100D01*
X201813906Y-70980100D01*
X202208974Y-71058684D01*
G37*
G36*
X118865224Y-70264934D02*
G01*
X119006163Y-70323313D01*
X119237373Y-70419083D01*
X119572298Y-70642873D01*
X119857127Y-70927702D01*
X120080917Y-71262627D01*
X120080917Y-71262628D01*
X120235066Y-71634776D01*
X120313650Y-72029844D01*
X120313650Y-72432656D01*
X120235066Y-72827724D01*
X120144767Y-73045724D01*
X120080917Y-73199873D01*
X119857127Y-73534798D01*
X119572298Y-73819627D01*
X119237373Y-74043417D01*
X119083224Y-74107267D01*
X118865224Y-74197566D01*
X118470156Y-74276150D01*
X118067344Y-74276150D01*
X117672276Y-74197566D01*
X117454276Y-74107267D01*
X117300127Y-74043417D01*
X116965202Y-73819627D01*
X116680373Y-73534798D01*
X116456583Y-73199873D01*
X116392733Y-73045724D01*
X116302434Y-72827724D01*
X116223850Y-72432656D01*
X116223850Y-72029844D01*
X116302434Y-71634776D01*
X116456583Y-71262628D01*
X116456583Y-71262627D01*
X116680373Y-70927702D01*
X116965202Y-70642873D01*
X117300127Y-70419083D01*
X117531337Y-70323313D01*
X117672276Y-70264934D01*
X118067344Y-70186350D01*
X118470156Y-70186350D01*
X118865224Y-70264934D01*
G37*
G36*
X198290502Y-68542483D02*
G01*
X198459024Y-68612287D01*
X198610689Y-68713626D01*
X198739670Y-68842607D01*
X198841009Y-68994272D01*
X198910813Y-69162794D01*
X198946398Y-69341695D01*
X198946398Y-69524101D01*
X198910813Y-69703002D01*
X198841009Y-69871524D01*
X198739670Y-70023189D01*
X198610689Y-70152170D01*
X198459024Y-70253509D01*
X198290502Y-70323313D01*
X198111601Y-70358898D01*
X197929195Y-70358898D01*
X197750294Y-70323313D01*
X197581772Y-70253509D01*
X197430107Y-70152170D01*
X197301126Y-70023189D01*
X197199787Y-69871524D01*
X197129983Y-69703002D01*
X197094398Y-69524101D01*
X197094398Y-69341695D01*
X197129983Y-69162794D01*
X197199787Y-68994272D01*
X197301126Y-68842607D01*
X197430107Y-68713626D01*
X197581772Y-68612287D01*
X197750294Y-68542483D01*
X197929195Y-68506898D01*
X198111601Y-68506898D01*
X198290502Y-68542483D01*
G37*
G36*
X122130956Y-67748733D02*
G01*
X122299478Y-67818537D01*
X122451143Y-67919876D01*
X122580124Y-68048857D01*
X122681463Y-68200522D01*
X122751267Y-68369044D01*
X122786852Y-68547945D01*
X122786852Y-68730351D01*
X122751267Y-68909252D01*
X122681463Y-69077774D01*
X122580124Y-69229439D01*
X122451143Y-69358420D01*
X122299478Y-69459759D01*
X122130956Y-69529563D01*
X121952055Y-69565148D01*
X121769649Y-69565148D01*
X121590748Y-69529563D01*
X121422226Y-69459759D01*
X121270561Y-69358420D01*
X121141580Y-69229439D01*
X121040241Y-69077774D01*
X120970437Y-68909252D01*
X120934852Y-68730351D01*
X120934852Y-68547945D01*
X120970437Y-68369044D01*
X121040241Y-68200522D01*
X121141580Y-68048857D01*
X121270561Y-67919876D01*
X121422226Y-67818537D01*
X121590748Y-67748733D01*
X121769649Y-67713148D01*
X121952055Y-67713148D01*
X122130956Y-67748733D01*
G37*
G36*
X160140224Y-53596184D02*
G01*
X160299074Y-53661982D01*
X160512373Y-53750333D01*
X160847298Y-53974123D01*
X161132127Y-54258952D01*
X161355917Y-54593877D01*
X161388312Y-54672086D01*
X161510066Y-54966026D01*
X161588650Y-55361094D01*
X161588650Y-55763906D01*
X161510066Y-56158974D01*
X161459201Y-56281772D01*
X161355917Y-56531123D01*
X161132127Y-56866048D01*
X160847298Y-57150877D01*
X160512373Y-57374667D01*
X160358224Y-57438517D01*
X160140224Y-57528816D01*
X159745156Y-57607400D01*
X159342344Y-57607400D01*
X158947276Y-57528816D01*
X158729276Y-57438517D01*
X158575127Y-57374667D01*
X158240202Y-57150877D01*
X157955373Y-56866048D01*
X157731583Y-56531123D01*
X157628299Y-56281772D01*
X157577434Y-56158974D01*
X157498850Y-55763906D01*
X157498850Y-55361094D01*
X157577434Y-54966026D01*
X157699188Y-54672086D01*
X157731583Y-54593877D01*
X157955373Y-54258952D01*
X158240202Y-53974123D01*
X158575127Y-53750333D01*
X158788426Y-53661982D01*
X158947276Y-53596184D01*
X159342344Y-53517600D01*
X159745156Y-53517600D01*
X160140224Y-53596184D01*
G37*
G36*
X164893854Y-54672085D02*
G01*
X165062376Y-54741889D01*
X165214041Y-54843228D01*
X165343022Y-54972209D01*
X165444361Y-55123874D01*
X165514165Y-55292396D01*
X165549750Y-55471297D01*
X165549750Y-55653703D01*
X165514165Y-55832604D01*
X165444361Y-56001126D01*
X165343022Y-56152791D01*
X165214041Y-56281772D01*
X165062376Y-56383111D01*
X164893854Y-56452915D01*
X164714953Y-56488500D01*
X164532547Y-56488500D01*
X164353646Y-56452915D01*
X164185124Y-56383111D01*
X164033459Y-56281772D01*
X163904478Y-56152791D01*
X163803139Y-56001126D01*
X163733335Y-55832604D01*
X163697750Y-55653703D01*
X163697750Y-55471297D01*
X163733335Y-55292396D01*
X163803139Y-55123874D01*
X163904478Y-54972209D01*
X164033459Y-54843228D01*
X164185124Y-54741889D01*
X164353646Y-54672085D01*
X164532547Y-54636500D01*
X164714953Y-54636500D01*
X164893854Y-54672085D01*
G37*
G36*
X154733854Y-54672085D02*
G01*
X154902376Y-54741889D01*
X155054041Y-54843228D01*
X155183022Y-54972209D01*
X155284361Y-55123874D01*
X155354165Y-55292396D01*
X155389750Y-55471297D01*
X155389750Y-55653703D01*
X155354165Y-55832604D01*
X155284361Y-56001126D01*
X155183022Y-56152791D01*
X155054041Y-56281772D01*
X154902376Y-56383111D01*
X154733854Y-56452915D01*
X154554953Y-56488500D01*
X154372547Y-56488500D01*
X154193646Y-56452915D01*
X154025124Y-56383111D01*
X153873459Y-56281772D01*
X153744478Y-56152791D01*
X153643139Y-56001126D01*
X153573335Y-55832604D01*
X153537750Y-55653703D01*
X153537750Y-55471297D01*
X153573335Y-55292396D01*
X153643139Y-55123874D01*
X153744478Y-54972209D01*
X153873459Y-54843228D01*
X154025124Y-54741889D01*
X154193646Y-54672085D01*
X154372547Y-54636500D01*
X154554953Y-54636500D01*
X154733854Y-54672085D01*
G37*
G36*
X284387049Y-53639866D02*
G01*
X284498234Y-53661982D01*
X284707703Y-53748747D01*
X284896220Y-53874710D01*
X285056540Y-54035030D01*
X285182503Y-54223547D01*
X285182504Y-54223549D01*
X285269268Y-54433017D01*
X285309744Y-54636500D01*
X285313500Y-54655386D01*
X285313500Y-54882114D01*
X285269268Y-55104484D01*
X285182503Y-55313953D01*
X285056540Y-55502470D01*
X284896220Y-55662790D01*
X284707703Y-55788753D01*
X284498234Y-55875518D01*
X284387049Y-55897634D01*
X284275865Y-55919750D01*
X284049135Y-55919750D01*
X283937951Y-55897634D01*
X283826766Y-55875518D01*
X283617297Y-55788753D01*
X283428780Y-55662790D01*
X283268460Y-55502470D01*
X283142497Y-55313953D01*
X283055732Y-55104484D01*
X283011500Y-54882114D01*
X283011500Y-54655386D01*
X283015257Y-54636500D01*
X283055732Y-54433017D01*
X283142496Y-54223549D01*
X283142497Y-54223547D01*
X283268460Y-54035030D01*
X283428780Y-53874710D01*
X283617297Y-53748747D01*
X283826766Y-53661982D01*
X283937951Y-53639866D01*
X284049135Y-53617750D01*
X284275865Y-53617750D01*
X284387049Y-53639866D01*
G37*
G36*
X135955799Y-53639866D02*
G01*
X136066984Y-53661982D01*
X136276453Y-53748747D01*
X136464970Y-53874710D01*
X136625290Y-54035030D01*
X136751253Y-54223547D01*
X136751254Y-54223549D01*
X136838018Y-54433017D01*
X136878494Y-54636500D01*
X136882250Y-54655386D01*
X136882250Y-54882114D01*
X136838018Y-55104484D01*
X136751253Y-55313953D01*
X136625290Y-55502470D01*
X136464970Y-55662790D01*
X136276453Y-55788753D01*
X136066984Y-55875518D01*
X135955799Y-55897634D01*
X135844615Y-55919750D01*
X135617885Y-55919750D01*
X135506701Y-55897634D01*
X135395516Y-55875518D01*
X135186047Y-55788753D01*
X134997530Y-55662790D01*
X134837210Y-55502470D01*
X134711247Y-55313953D01*
X134624482Y-55104484D01*
X134580250Y-54882114D01*
X134580250Y-54655386D01*
X134584007Y-54636500D01*
X134624482Y-54433017D01*
X134711246Y-54223549D01*
X134711247Y-54223547D01*
X134837210Y-54035030D01*
X134997530Y-53874710D01*
X135186047Y-53748747D01*
X135395516Y-53661982D01*
X135506701Y-53639866D01*
X135617885Y-53617750D01*
X135844615Y-53617750D01*
X135955799Y-53639866D01*
G37*
M02*
